<svg width="24" height="25" viewBox="0 0 24 25" fill="none" xmlns="http://www.w3.org/2000/svg">
<path d="M4 16.5V10.7427C4 10.6312 4.11735 10.5587 4.21708 10.6085L10.6584 13.8292C11.5029 14.2515 12.4971 14.2515 13.3416 13.8292L19.7829 10.6085C19.8827 10.5587 20 10.6312 20 10.7427V16.5C20 17.6046 19.1046 18.5 18 18.5H6C4.89543 18.5 4 17.6046 4 16.5Z" fill="#373A3B"/>
<path d="M4 8.5V9.40729C4 9.46411 4.0321 9.51605 4.08292 9.54146L10.6584 12.8292C11.5029 13.2515 12.4971 13.2515 13.3416 12.8292L19.9171 9.54146C19.9679 9.51605 20 9.46411 20 9.4073V8.5C20 7.39543 19.1046 6.5 18 6.5H6C4.89543 6.5 4 7.39543 4 8.5Z" fill="#373A3B"/>
</svg>
