<svg width="40" height="41" viewBox="0 0 40 41" fill="none" xmlns="http://www.w3.org/2000/svg">
<rect y="0.958984" width="40" height="40" rx="20" fill="white"/>
<path d="M28 21.7034V27.2191H24.7713V22.0397C24.7713 20.7617 24.3004 19.8872 23.157 19.8872C22.2825 19.8872 21.7444 20.4926 21.5426 21.0307C21.4753 21.2325 21.4081 21.5016 21.4081 21.8379V27.2191H18.1794C18.1794 27.2191 18.2466 18.4747 18.1794 17.6002H21.4081V18.9455C21.8117 18.2729 22.6188 17.3312 24.3004 17.3312C26.3856 17.3312 28 18.7437 28 21.7034ZM14.8161 12.959C13.7399 12.959 13 13.6989 13 14.6406C13 15.5823 13.6726 16.3222 14.7489 16.3222C15.8924 16.3222 16.565 15.5823 16.565 14.6406C16.6323 13.6316 15.9596 12.959 14.8161 12.959ZM13.2018 27.2191H16.4305V17.6002H13.2018V27.2191Z" fill="#010101"/>
</svg>
