<svg width="24" height="25" viewBox="0 0 24 25" fill="none" xmlns="http://www.w3.org/2000/svg">
<path fill-rule="evenodd" clip-rule="evenodd" d="M12.398 20.763C13.881 19.9938 19 16.9753 19 11.959C19 8.09299 15.866 4.95898 12 4.95898C8.13401 4.95898 5 8.09299 5 11.959C5 16.9753 10.119 19.9938 11.602 20.763C11.8548 20.8941 12.1452 20.8941 12.398 20.763ZM12 14.959C13.6569 14.959 15 13.6158 15 11.959C15 10.3021 13.6569 8.95898 12 8.95898C10.3431 8.95898 9 10.3021 9 11.959C9 13.6158 10.3431 14.959 12 14.959Z" fill="white"/>
<path d="M12.398 20.763L12.6743 21.2956V21.2956L12.398 20.763ZM11.602 20.763L11.3257 21.2956L11.3257 21.2956L11.602 20.763ZM18.4 11.959C18.4 14.2497 17.2328 16.1153 15.829 17.5312C14.4258 18.9466 12.8363 19.8597 12.1218 20.2303L12.6743 21.2956C13.4427 20.897 15.1542 19.9163 16.6812 18.3761C18.2077 16.8364 19.6 14.6846 19.6 11.959H18.4ZM12 5.55898C15.5346 5.55898 18.4 8.42436 18.4 11.959H19.6C19.6 7.76162 16.1974 4.35898 12 4.35898V5.55898ZM5.6 11.959C5.6 8.42436 8.46538 5.55898 12 5.55898V4.35898C7.80264 4.35898 4.4 7.76162 4.4 11.959H5.6ZM11.8782 20.2303C11.1637 19.8597 9.57422 18.9466 8.17097 17.5312C6.76717 16.1153 5.6 14.2497 5.6 11.959H4.4C4.4 14.6846 5.79235 16.8364 7.31879 18.3761C8.8458 19.9163 10.5573 20.897 11.3257 21.2956L11.8782 20.2303ZM12.1218 20.2303C12.0421 20.2716 11.9579 20.2716 11.8782 20.2303L11.3257 21.2956C11.7518 21.5166 12.2482 21.5166 12.6743 21.2956L12.1218 20.2303ZM14.4 11.959C14.4 13.2845 13.3255 14.359 12 14.359V15.559C13.9882 15.559 15.6 13.9472 15.6 11.959H14.4ZM12 9.55898C13.3255 9.55898 14.4 10.6335 14.4 11.959H15.6C15.6 9.97076 13.9882 8.35898 12 8.35898V9.55898ZM9.6 11.959C9.6 10.6335 10.6745 9.55898 12 9.55898V8.35898C10.0118 8.35898 8.4 9.97076 8.4 11.959H9.6ZM12 14.359C10.6745 14.359 9.6 13.2845 9.6 11.959H8.4C8.4 13.9472 10.0118 15.559 12 15.559V14.359Z" fill="white"/>
</svg>
