<svg width="24" height="25" viewBox="0 0 24 25" fill="none" xmlns="http://www.w3.org/2000/svg">
<path d="M17.7071 14.2071L20.3552 16.8552C20.7113 17.2113 20.7113 17.7887 20.3552 18.1448C18.43 20.07 15.3821 20.2866 13.204 18.653L11.6286 17.4714C9.88504 16.1638 8.33622 14.615 7.02857 12.8714L5.84701 11.296C4.21341 9.11788 4.43001 6.06999 6.35523 4.14477C6.71133 3.78867 7.28867 3.78867 7.64477 4.14477L10.2929 6.79289C10.6834 7.18342 10.6834 7.81658 10.2929 8.20711L9.27175 9.22825C9.10946 9.39054 9.06923 9.63846 9.17187 9.84373C10.3585 12.2171 12.2829 14.1415 14.6563 15.3281C14.8615 15.4308 15.1095 15.3905 15.2717 15.2283L16.2929 14.2071C16.6834 13.8166 17.3166 13.8166 17.7071 14.2071Z" fill="#373A3B"/>
<path fill-rule="evenodd" clip-rule="evenodd" d="M20.3553 18.145C20.7114 17.7889 20.7114 17.2116 20.3553 16.8555L17.7071 14.2073C17.7071 14.2073 17.707 14.2072 17.7069 14.2072C17.3164 13.8168 16.6834 13.8169 16.2929 14.2073L15.5 15.0002L19.4048 18.905C19.743 18.6916 20.0621 18.4381 20.3553 18.145ZM5.59521 5.09542L9.50003 9.00023L10.2929 8.20734C10.6834 7.81681 10.6834 7.18365 10.2929 6.79313L7.6448 4.145C7.2887 3.78891 6.71136 3.78891 6.35526 4.145C6.06214 4.43813 5.80862 4.75728 5.59521 5.09542Z" fill="#373A3B"/>
</svg>
