<svg width="24" height="25" viewBox="0 0 24 25" fill="none" xmlns="http://www.w3.org/2000/svg">
<path d="M19.0732 5.41667C17.1916 3.54167 14.6829 2.5 12.0348 2.5C6.52961 2.5 2.06969 6.94444 2.06969 12.4306C2.06969 14.1667 2.55749 15.9028 3.39373 17.3611L2 22.5L7.29617 21.1111C8.75958 21.875 10.3624 22.2917 12.0348 22.2917C17.5401 22.2917 22 17.8472 22 12.3611C21.9303 9.79167 20.9547 7.29167 19.0732 5.41667ZM16.8432 15.9722C16.6341 16.5278 15.6585 17.0833 15.1707 17.1528C14.7526 17.2222 14.1951 17.2222 13.6376 17.0833C13.2892 16.9444 12.8014 16.8056 12.2439 16.5278C9.73519 15.4861 8.13241 12.9861 7.99303 12.7778C7.85366 12.6389 6.94774 11.4583 6.94774 10.2083C6.94774 8.95833 7.57491 8.40278 7.78397 8.125C7.99303 7.84722 8.27178 7.84722 8.48084 7.84722C8.62021 7.84722 8.82927 7.84722 8.96864 7.84722C9.10801 7.84722 9.31707 7.77778 9.52613 8.26389C9.73519 8.75 10.223 10 10.2927 10.0694C10.3624 10.2083 10.3624 10.3472 10.2927 10.4861C10.223 10.625 10.1533 10.7639 10.0139 10.9028C9.87456 11.0417 9.73519 11.25 9.6655 11.3194C9.52613 11.4583 9.38676 11.5972 9.52613 11.8056C9.6655 12.0833 10.1533 12.8472 10.9199 13.5417C11.8955 14.375 12.662 14.6528 12.9408 14.7917C13.2195 14.9306 13.3589 14.8611 13.4983 14.7222C13.6376 14.5833 14.1254 14.0278 14.2648 13.75C14.4042 13.4722 14.6132 13.5417 14.8223 13.6111C15.0314 13.6806 16.2857 14.3056 16.4948 14.4444C16.7735 14.5833 16.9129 14.6528 16.9826 14.7222C17.0523 14.9306 17.0523 15.4167 16.8432 15.9722Z" fill="#373A3B"/>
</svg>
