<svg width="61" height="60" viewBox="0 0 61 60" fill="none" xmlns="http://www.w3.org/2000/svg">
<g id="benefits 1">
<g id="Group">
<g id="Group_2">
<g id="Group_3">
<g id="Group_4">
<path id="Vector" d="M37.54 37.3006C37.3291 37.3006 37.1064 37.2772 36.8838 37.2303L30.8838 35.9178C30.5791 35.8475 30.3799 35.5545 30.4502 35.2381C30.5205 34.9334 30.8252 34.7342 31.1299 34.8045L37.1299 36.117C37.6455 36.2342 38.1846 36.1287 38.6182 35.8358C39.0517 35.5428 39.3447 35.0975 39.4267 34.5819C39.5908 33.6678 39.0752 32.7772 38.2314 32.4608C34.2119 30.9139 23.9932 28.0662 16.0713 34.8397C15.8252 35.0389 15.4736 35.0155 15.2627 34.7811C15.0635 34.535 15.0869 34.1834 15.3213 33.9725C23.7002 26.8006 34.4111 29.7889 38.6299 31.3944C40.001 31.91 40.8096 33.3397 40.5517 34.7811C40.4111 35.6131 39.9541 36.328 39.251 36.7967C38.7353 37.1248 38.1494 37.3006 37.54 37.3006Z" fill="#373A3B"/>
</g>
<g id="Group_5">
<path id="Vector_2" d="M20.2193 44.5426C19.9967 44.5426 19.7857 44.4137 19.692 44.191C19.5748 43.8981 19.7272 43.5699 20.0201 43.441L23.149 42.2106C25.3404 41.3317 27.8131 41.2379 30.0865 41.941L33.0631 42.8668C35.1842 43.5348 37.4693 43.4059 39.5201 42.5152L52.9615 36.7027C53.5592 36.4332 54.0279 35.9527 54.2623 35.3434C54.4967 34.734 54.4733 34.066 54.2037 33.4801C53.7115 32.3902 52.5045 31.8277 51.3561 32.1441L40.1647 35.2027C39.86 35.2848 39.5436 35.109 39.4615 34.8043C39.3795 34.4996 39.5553 34.1832 39.86 34.1012L51.0514 31.0426C52.7623 30.5738 54.5084 31.3942 55.235 33.0113C55.6334 33.8785 55.6686 34.8629 55.317 35.7535C54.9654 36.6676 54.2857 37.3707 53.3951 37.7574L39.9537 43.5699C37.6686 44.566 35.0904 44.7066 32.6998 43.9566L29.7232 43.0309C27.6959 42.4098 25.4928 42.4918 23.5475 43.2652L20.4186 44.4957C20.36 44.5309 20.2897 44.5426 20.2193 44.5426Z" fill="#373A3B"/>
</g>
<g id="Group_6">
<path id="Vector_3" d="M16.8801 48.7968C16.6692 48.7968 16.4582 48.6796 16.3645 48.4687C16.2356 48.1874 16.3528 47.8476 16.6457 47.7069L20.466 45.9257C20.4778 45.9257 20.4778 45.9022 20.4778 45.8905L14.3957 32.953C14.384 32.9413 14.3723 32.9413 14.3606 32.9413L10.552 34.7226C10.2707 34.8515 9.93089 34.7343 9.79026 34.4413C9.66136 34.1601 9.77854 33.8202 10.0715 33.6796L13.8918 31.8983C14.1731 31.7694 14.4895 31.7577 14.7825 31.8632C15.0754 31.9687 15.3098 32.1796 15.4504 32.4608L21.509 45.3866C21.7903 45.9843 21.5324 46.6757 20.9465 46.9335L17.1379 48.7147C17.0442 48.7851 16.9504 48.7968 16.8801 48.7968Z" fill="#373A3B"/>
</g>
<g id="Group_7">
<path id="Vector_4" d="M13.7157 51.9489C13.2821 51.9489 12.8603 51.7028 12.661 51.2809L5.24307 35.5075C5.11416 35.2262 5.10244 34.9098 5.20791 34.6168C5.31338 34.3356 5.52432 34.1012 5.80557 33.9606L8.86416 32.5192C9.4501 32.2497 10.1415 32.4958 10.411 33.0817L17.8173 48.8668C17.9462 49.1481 17.9579 49.4645 17.8524 49.7575C17.747 50.0387 17.536 50.2731 17.2548 50.4137L14.1962 51.8551C14.1845 51.8551 14.1845 51.8668 14.1728 51.8668C14.0204 51.9137 13.8681 51.9489 13.7157 51.9489ZM13.6923 50.7887C13.6923 50.8004 13.7157 50.8004 13.7274 50.8004L16.786 49.359C16.7978 49.359 16.7978 49.3473 16.7978 49.3356L9.37978 33.5739C9.36807 33.5622 9.36807 33.5622 9.35635 33.5622L6.29775 35.0036C6.28604 35.0036 6.28604 35.0153 6.28604 35.027L13.6923 50.7887Z" fill="#373A3B"/>
</g>
</g>
</g>
<g id="Group_8">
<g id="Group_9">
<g id="Group_10">
<path id="Vector_5" d="M39.9775 27.9375C35.0674 27.9375 31.0713 23.9414 31.0713 19.0312C31.0713 14.1211 35.0674 10.125 39.9775 10.125C44.8877 10.125 48.8838 14.1211 48.8838 19.0312C48.8604 23.9414 44.876 27.9375 39.9775 27.9375ZM39.9775 11.2852C35.7002 11.2852 32.2197 14.7656 32.2197 19.043C32.2197 23.3203 35.7002 26.8008 39.9775 26.8008C44.2549 26.8008 47.7354 23.3203 47.7354 19.043C47.7236 14.7539 44.2432 11.2852 39.9775 11.2852Z" fill="#373A3B"/>
</g>
<g id="Group_11">
<g id="Group_12">
<path id="Vector_6" d="M39.9775 23.5547C38.5713 23.5547 37.4229 22.4062 37.4229 21C37.4229 20.6836 37.6807 20.4258 37.9971 20.4258C38.3135 20.4258 38.5713 20.6836 38.5713 21C38.5713 21.7734 39.2041 22.4062 39.9775 22.4062C40.751 22.4062 41.3838 21.7734 41.3838 21C41.3838 20.2266 40.751 19.5938 39.9775 19.5938C38.5713 19.5938 37.4229 18.4453 37.4229 17.0391C37.4229 15.6328 38.5713 14.4844 39.9775 14.4844C41.3838 14.4844 42.5322 15.6328 42.5322 17.0391C42.5322 17.3555 42.2744 17.6133 41.958 17.6133C41.6416 17.6133 41.3838 17.3555 41.3838 17.0391C41.3838 16.2656 40.751 15.6328 39.9775 15.6328C39.2041 15.6328 38.5713 16.2656 38.5713 17.0391C38.5713 17.8125 39.2041 18.4453 39.9775 18.4453C41.3838 18.4453 42.5322 19.5938 42.5322 21C42.5205 22.4062 41.3721 23.5547 39.9775 23.5547Z" fill="#373A3B"/>
</g>
<g id="Group_13">
<path id="Vector_7" d="M39.9775 24.9258C39.6611 24.9258 39.4033 24.668 39.4033 24.3516V22.9687C39.4033 22.6523 39.6611 22.3945 39.9775 22.3945C40.2939 22.3945 40.5518 22.6523 40.5518 22.9687V24.3516C40.54 24.6797 40.2939 24.9258 39.9775 24.9258Z" fill="#373A3B"/>
</g>
<g id="Group_14">
<path id="Vector_8" d="M39.9775 15.6445C39.6611 15.6445 39.4033 15.3867 39.4033 15.0703V13.6875C39.4033 13.3711 39.6611 13.1133 39.9775 13.1133C40.2939 13.1133 40.5518 13.3711 40.5518 13.6875V15.0703C40.54 15.3984 40.2939 15.6445 39.9775 15.6445Z" fill="#373A3B"/>
</g>
</g>
</g>
<g id="Group_15">
<path id="Vector_9" d="M25.4697 25.7695H23.6885C23.2666 25.7695 22.9268 25.418 22.9268 25.0078V23.4727H21.3916C20.9697 23.4727 20.6299 23.1211 20.6299 22.7109V20.9297C20.6299 20.5078 20.9814 20.168 21.3916 20.168H22.9268V18.6328C22.9268 18.2109 23.2783 17.8711 23.6885 17.8711H25.4697C25.8916 17.8711 26.2314 18.2227 26.2314 18.6328V20.168H27.7666C28.1885 20.168 28.5283 20.5195 28.5283 20.9297V22.7109C28.5283 23.1328 28.1768 23.4727 27.7666 23.4727H26.2314V25.0078C26.2432 25.418 25.8916 25.7695 25.4697 25.7695ZM24.0752 24.6211H25.0947V23.0859C25.0947 22.6641 25.4463 22.3242 25.8564 22.3242H27.3916V21.3047H25.8564C25.4346 21.3047 25.0947 20.9531 25.0947 20.543V19.0078H24.0752V20.543C24.0752 20.9648 23.7236 21.3047 23.3135 21.3047H21.7783V22.3242H23.3135C23.7354 22.3242 24.0752 22.6758 24.0752 23.0859V24.6211Z" fill="#373A3B"/>
</g>
<g id="Group_16">
<path id="Vector_10" d="M17.4893 20.0508H15.708C15.2861 20.0508 14.9463 19.6992 14.9463 19.2891V17.7539H13.4111C12.9893 17.7539 12.6494 17.4023 12.6494 16.9922V15.2109C12.6494 14.7891 13.001 14.4492 13.4111 14.4492H14.9463V12.9141C14.9463 12.4922 15.2979 12.1523 15.708 12.1523H17.4893C17.9111 12.1523 18.251 12.5039 18.251 12.9141V14.4492H19.7861C20.208 14.4492 20.5479 14.8008 20.5479 15.2109V16.9922C20.5479 17.4141 20.1963 17.7539 19.7861 17.7539H18.251V19.2891C18.251 19.6992 17.9111 20.0508 17.4893 20.0508ZM16.0947 18.9023H17.1143V17.3672C17.1143 16.9453 17.4658 16.6055 17.876 16.6055H19.4111V15.5859H17.876C17.8525 15.5859 17.8408 15.5859 17.8174 15.5859C17.4189 15.5508 17.1143 15.2109 17.1143 14.8242V13.2891H16.0947V14.8242C16.0947 15.2461 15.7432 15.5859 15.333 15.5859H13.7979V16.6055H15.333C15.7549 16.6055 16.0947 16.957 16.0947 17.3672V18.9023Z" fill="#373A3B"/>
</g>
<g id="Group_17">
<path id="Vector_11" d="M26.8408 15.9609H25.0596C24.6377 15.9609 24.2979 15.6094 24.2979 15.1992V13.6641H22.7627C22.3408 13.6641 22.001 13.3125 22.001 12.9023V11.1211C22.001 10.6992 22.3525 10.3594 22.7627 10.3594H24.2979V8.82422C24.2979 8.40234 24.6494 8.0625 25.0596 8.0625H26.8408C27.2627 8.0625 27.6025 8.41406 27.6025 8.82422V10.3594H29.1377C29.5596 10.3594 29.8994 10.7109 29.8994 11.1211V12.8906C29.8994 13.3125 29.5479 13.6523 29.1377 13.6523H27.6025V15.1875C27.6025 15.6094 27.251 15.9609 26.8408 15.9609ZM25.4463 14.8125H26.4658V13.2773C26.4658 12.8555 26.8174 12.5156 27.2275 12.5156H28.7627V11.4961H27.2275C26.8057 11.4961 26.4658 11.1445 26.4658 10.7344V9.19922H25.4463V10.7344C25.4463 11.1562 25.0947 11.4961 24.6846 11.4961H23.1494V12.5156H24.6846C25.1064 12.5156 25.4463 12.8672 25.4463 13.2773V14.8125Z" fill="#373A3B"/>
</g>
</g>
</g>
</g>
</svg>
