<svg width="61" height="60" viewBox="0 0 61 60" fill="none" xmlns="http://www.w3.org/2000/svg">
<g id="quality-control 1">
<path id="Vector" fill-rule="evenodd" clip-rule="evenodd" d="M39.7689 12.7994C39.6388 12.6909 39.5569 12.5353 39.541 12.3666C39.5251 12.1979 39.5766 12.0298 39.6842 11.8989C39.7919 11.7681 39.9469 11.6851 40.1154 11.6681C40.284 11.651 40.4525 11.7014 40.5841 11.8081C47.6968 17.6589 48.253 28.3784 41.7123 34.9191C39.7075 36.9233 37.195 38.3441 34.4442 39.0292C31.6934 39.7143 28.808 39.6379 26.0973 38.8082C23.3866 37.9785 20.9528 36.4267 19.0568 34.3192C17.1608 32.2117 15.8741 29.6279 15.3346 26.8449C14.7951 24.0619 15.0231 21.1845 15.9943 18.5212C16.9654 15.8579 18.643 13.5091 20.8473 11.7265C23.0516 9.94401 25.6994 8.79495 28.507 8.40254C31.3145 8.01013 34.1759 8.38917 36.7845 9.49902C36.9413 9.56574 37.0652 9.69201 37.1289 9.85007C37.1926 10.0081 37.1909 10.185 37.1242 10.3418C37.0575 10.4987 36.9312 10.6225 36.7732 10.6863C36.6151 10.75 36.4382 10.7483 36.2814 10.6816C33.8876 9.66258 31.2617 9.31429 28.685 9.67403C26.1084 10.0338 23.6782 11.088 21.655 12.7236C19.6319 14.3593 18.092 16.5147 17.2005 18.9588C16.309 21.403 16.0995 24.0436 16.5945 26.5977C17.0894 29.1519 18.2702 31.5231 20.0101 33.4573C21.75 35.3915 23.9836 36.8157 26.4713 37.5773C28.959 38.3388 31.607 38.4089 34.1315 37.7801C36.656 37.1513 38.9618 35.8474 40.8017 34.008C46.8017 28.008 46.2943 18.1682 39.7689 12.799V12.7994ZM38.1129 16.4283C36.6403 14.9557 34.7641 13.9529 32.7215 13.5466C30.6789 13.1403 28.5618 13.3488 26.6377 14.1458C24.7136 14.9427 23.0691 16.2924 21.9121 18.024C20.7551 19.7556 20.1375 21.7914 20.1375 23.874C20.1375 25.9566 20.7551 27.9924 21.9121 29.724C23.0691 31.4556 24.7136 32.8053 26.6377 33.6022C28.5618 34.3992 30.6789 34.6077 32.7215 34.2014C34.7641 33.7952 36.6403 32.7923 38.1129 31.3197C40.0876 29.3449 41.1969 26.6666 41.1969 23.874C41.1969 21.0814 40.0876 18.4031 38.1129 16.4283ZM30.6673 12.0562C28.3299 12.0561 26.0451 12.7492 24.1016 14.0478C22.1581 15.3464 20.6434 17.1921 19.7489 19.3515C18.8544 21.5109 18.6204 23.8871 19.0764 26.1796C19.5324 28.472 20.6579 30.5778 22.3107 32.2306C23.9634 33.8833 26.0692 35.0089 28.3617 35.4649C30.6541 35.9209 33.0303 35.6868 35.1898 34.7924C37.3492 33.8979 39.1949 32.3831 40.4935 30.4397C41.792 28.4962 42.4851 26.2113 42.4851 23.8739C42.485 20.7397 41.2399 17.7338 39.0237 15.5176C36.8074 13.3013 33.8016 12.0562 30.6673 12.0562ZM37.4525 55.834L39.4798 52.3897C39.52 52.3138 39.5751 52.2469 39.6417 52.1927C39.7082 52.1386 39.785 52.0983 39.8675 52.0744C39.9499 52.0505 40.0363 52.0434 40.1215 52.0534C40.2067 52.0635 40.2891 52.0906 40.3636 52.1331L43.8626 54.1154L40.942 43.2155C39.2482 44.7936 36.7496 43.0571 35.2659 43.405C34.9013 43.5135 34.5602 43.6889 34.2599 43.9224L37.4525 55.834ZM21.5576 42.4806C22.6107 42.9971 24.7052 41.7636 26.3602 42.1518C28.0203 42.5413 29.3719 44.5837 30.6673 44.5837C31.9627 44.5837 33.3128 42.5417 34.9745 42.1519C36.6297 41.7636 38.7238 42.9972 39.777 42.4806C40.8268 41.9658 41.1168 39.5621 42.4089 38.5251C43.7111 37.48 46.1041 37.7307 46.829 36.8275C47.5539 35.9243 46.7965 33.6372 47.5354 32.1307C48.2765 30.6197 50.5534 29.8055 50.8308 28.6233C51.1095 27.4349 49.4406 25.6307 49.4406 23.8737C49.4406 22.1167 51.1096 20.3125 50.8308 19.1243C50.5534 17.942 48.2761 17.1279 47.5354 15.6168C46.7971 14.1104 47.5547 11.8245 46.829 10.92C46.1032 10.0156 43.7111 10.2678 42.4095 9.22281C41.1127 8.18207 40.83 5.78348 39.7776 5.26727C38.7251 4.75105 36.63 5.98434 34.975 5.59609C33.3143 5.20645 31.9625 3.16422 30.6673 3.16422C29.3721 3.16422 28.0203 5.20645 26.3602 5.59586C24.7049 5.98422 22.6102 4.75059 21.5576 5.26773C20.505 5.78488 20.2225 8.18195 18.9257 9.22281C17.6235 10.2679 15.2305 10.0172 14.5056 10.9204C13.7807 11.8236 14.5381 14.1107 13.7992 15.6171C13.0581 17.1282 10.7812 17.9424 10.5038 19.1247C10.225 20.3129 11.8939 22.1171 11.8939 23.8739C11.8939 25.6308 10.2249 27.4352 10.5037 28.6234C10.7809 29.8057 13.0584 30.62 13.7991 32.131C14.538 33.6374 13.7798 35.9234 14.5055 36.8277C15.2313 37.7321 17.6234 37.4802 18.9256 38.5253C20.0795 39.4511 20.5561 41.9897 21.5575 42.4809L21.5576 42.4806ZM23.5316 57.7676C23.5904 57.8839 23.683 57.9796 23.7973 58.0421C23.9115 58.1047 24.042 58.1312 24.1716 58.1181C24.3012 58.105 24.4238 58.0529 24.5232 57.9688C24.6227 57.8846 24.6943 57.7723 24.7286 57.6467L28.1778 44.7742C30.0879 46.2449 31.2469 46.2449 33.157 44.7742L36.606 57.6467C36.6398 57.7728 36.7111 57.8857 36.8105 57.9703C36.91 58.0549 37.0328 58.1073 37.1627 58.1204C37.2927 58.1335 37.4235 58.1068 37.5378 58.0438C37.6522 57.9808 37.7447 57.8845 37.803 57.7676L40.2784 53.5606L44.534 55.9707C44.6432 56.0406 44.771 56.0758 44.9006 56.0718C45.0302 56.0678 45.1556 56.0248 45.2603 55.9483C45.3651 55.8718 45.4442 55.7655 45.4875 55.6432C45.5307 55.521 45.536 55.3885 45.5027 55.2632L41.8984 41.8127C41.9982 41.6098 42.0932 41.4025 42.1882 41.1946C42.4947 40.5256 42.8004 39.8587 43.214 39.5263C44.2122 38.7251 46.7047 39.035 47.8304 37.6325C48.9561 36.23 48.1148 33.8623 48.6877 32.6941C49.2589 31.5293 51.663 30.7089 52.0838 28.915C52.5038 27.1245 50.7288 25.3036 50.7288 23.8736C50.7288 22.4436 52.5038 20.6229 52.0838 18.8323C51.663 17.0384 49.259 16.218 48.6877 15.0531C48.1148 13.885 48.9554 11.5168 47.8304 10.1148C46.7054 8.71293 44.2122 9.02219 43.214 8.22098C42.2097 7.41496 41.969 4.91313 40.3405 4.11449C38.7121 3.31586 36.5779 4.65027 35.2663 4.34266C33.9548 4.03504 32.5657 1.87598 30.6673 1.87598C28.7689 1.87598 27.3815 4.03492 26.0683 4.34301C24.7551 4.65109 22.6213 3.3168 20.9941 4.11484C19.3668 4.91289 19.1249 7.41531 18.1206 8.22133C17.1224 9.02254 14.63 8.7127 13.5043 10.1152C12.3786 11.5177 13.2198 13.8854 12.6469 15.0535C12.0757 16.2189 9.67176 17.0392 9.25094 18.8322C8.83082 20.6228 10.6059 22.4434 10.6059 23.8735C10.6059 25.3035 8.83082 27.1243 9.25082 28.9149C9.67164 30.7088 12.0756 31.5292 12.6469 32.6939C13.2198 33.8623 12.3793 36.2304 13.5043 37.6323C14.1546 38.4426 15.2104 38.6663 16.2657 38.8899C18.1778 39.2949 18.333 39.4186 19.1464 41.1945C19.2414 41.402 19.3364 41.6097 19.4362 41.8125L15.8321 55.264C15.7987 55.3894 15.804 55.5219 15.8472 55.6442C15.8905 55.7665 15.9697 55.8728 16.0744 55.9493C16.1792 56.0258 16.3047 56.0688 16.4343 56.0727C16.564 56.0766 16.6918 56.0413 16.801 55.9713L21.0562 53.5614L23.5316 57.7684V57.7676ZM17.472 54.1154L20.3925 43.2155C20.5714 43.3837 20.7743 43.5245 20.9944 43.6332C22.6214 44.4312 24.757 43.0974 26.0686 43.405C26.4332 43.5134 26.7743 43.6889 27.0746 43.9224L23.8821 55.834L21.8548 52.3897C21.8146 52.3138 21.7595 52.2469 21.693 52.1927C21.6264 52.1386 21.5496 52.0983 21.4672 52.0744C21.3847 52.0505 21.2983 52.0434 21.2131 52.0534C21.1279 52.0635 21.0455 52.0906 20.971 52.1331L17.472 54.1154ZM24.9345 23.6509L27.9766 26.847C28.0812 26.957 28.2215 27.0264 28.3725 27.0428C28.5234 27.0592 28.6753 27.0217 28.8012 26.9368L36.2951 21.8772C36.367 21.8308 36.429 21.7705 36.4773 21.6998C36.5256 21.6292 36.5594 21.5496 36.5766 21.4657C36.5937 21.3819 36.594 21.2954 36.5774 21.2115C36.5607 21.1275 36.5275 21.0477 36.4796 20.9768C36.4317 20.9058 36.3702 20.8451 36.2986 20.7982C36.2269 20.7514 36.1467 20.7193 36.0625 20.7038C35.9783 20.6884 35.8919 20.6899 35.8082 20.7082C35.7246 20.7266 35.6455 20.7615 35.5756 20.8108L28.5326 25.5674L25.865 22.7654C25.7471 22.6437 25.586 22.5735 25.4166 22.5701C25.2473 22.5666 25.0834 22.6302 24.9607 22.7469C24.838 22.8637 24.7664 23.0242 24.7614 23.1935C24.7564 23.3628 24.8185 23.5272 24.9341 23.6509H24.9345Z" fill="#373A3B"/>
</g>
</svg>
