<svg width="60" height="60" viewBox="0 0 60 60" fill="none" xmlns="http://www.w3.org/2000/svg">
<g id="versatile 1" clip-path="url(#clip0_764_14500)">
<path id="_x31_2" d="M38.4137 60C37.652 60 36.9606 59.5781 36.6208 58.8867L32.3786 50.3438C32.0622 49.7109 32.1091 48.9609 32.4958 48.3633C32.8708 47.7891 33.5387 47.4492 34.2301 47.4492H36.7731C37.0544 47.4492 37.2887 47.6484 37.3239 47.9297C37.3591 48.2461 37.113 48.5039 36.7966 48.5039H34.2067C33.8669 48.5039 33.5505 48.668 33.3747 48.9492C33.1989 49.2305 33.1872 49.5703 33.3278 49.8633L37.57 58.4062C37.7341 58.7344 38.0505 58.9336 38.4137 58.9336C38.777 58.9336 39.0934 58.7344 39.2575 58.4062L43.4997 49.8633C43.652 49.5703 43.6286 49.2305 43.4528 48.9492C43.277 48.668 42.9489 48.5039 42.6208 48.5039H40.0895C39.8083 48.5039 39.5739 48.3047 39.5387 48.0234C39.5036 47.707 39.7497 47.4492 40.0661 47.4492H42.6442C43.3356 47.4492 43.9801 47.8008 44.3434 48.3984C44.7067 48.9961 44.7419 49.7227 44.4372 50.3438L40.195 58.8867C39.8669 59.5781 39.1755 60 38.4137 60Z" fill="#373A3B"/>
<path id="_x31_1" d="M38.4375 48.4453C38.6317 48.4453 38.7891 48.2879 38.7891 48.0938C38.7891 47.8996 38.6317 47.7422 38.4375 47.7422C38.2433 47.7422 38.0859 47.8996 38.0859 48.0938C38.0859 48.2879 38.2433 48.4453 38.4375 48.4453Z" fill="#373A3B"/>
<path id="_x31_0" d="M21.6094 12.375C21.8035 12.375 21.9609 12.2176 21.9609 12.0234C21.9609 11.8293 21.8035 11.6719 21.6094 11.6719C21.4152 11.6719 21.2578 11.8293 21.2578 12.0234C21.2578 12.2176 21.4152 12.375 21.6094 12.375Z" fill="#373A3B"/>
<path id="_x39_" d="M41.0153 37.4885C40.9919 36.4104 40.5348 35.3791 39.738 34.6643L25.4997 21.7268C24.8551 21.1408 24.4801 20.2971 24.4801 19.4299V12.5393H25.7692C26.4606 12.5393 27.1286 12.2112 27.5036 11.6252C27.8903 11.0276 27.9372 10.2776 27.6208 9.64475L23.402 1.14865C23.0505 0.445527 22.3356 -0.0232227 21.5622 -0.0115039C20.8122 0.000214816 20.1325 0.42209 19.8044 1.10178L15.5622 9.64475C15.2458 10.2776 15.2926 11.0276 15.6794 11.6252C16.0544 12.1994 16.7223 12.5393 17.4137 12.5393H18.7028V21.633C18.7028 23.2619 19.4176 24.8088 20.6481 25.8752L35.0739 38.2619C35.3669 38.508 35.5309 38.883 35.5309 39.2697V48.0002H36.5856V39.2697C36.5856 38.5783 36.2809 37.9221 35.7536 37.4651L21.3278 25.0783C20.32 24.2112 19.7458 22.9572 19.7458 21.633V12.5393H19.945C20.2262 12.5393 20.4606 12.3401 20.4958 12.0588C20.5309 11.7424 20.2848 11.4846 19.9684 11.4846H17.3786C17.0387 11.4846 16.7223 11.3205 16.5466 11.0393C16.3708 10.758 16.3591 10.4182 16.4997 10.1252L20.7184 1.6174C20.8825 1.27756 21.2341 1.04318 21.6091 1.0549C21.9606 1.06662 22.2653 1.25412 22.4294 1.58225L26.6716 10.1252C26.8239 10.4182 26.8005 10.758 26.6247 11.0393C26.4489 11.3205 26.1208 11.4846 25.7926 11.4846H23.2614C22.9801 11.4846 22.7458 11.6838 22.7106 11.9651C22.6755 12.2815 22.9216 12.5393 23.238 12.5393H23.4255V19.4299C23.4255 20.6018 23.9176 21.7268 24.7848 22.5119L39.0231 35.4377C39.6091 35.9651 39.9489 36.7151 39.9606 37.5002L40.1364 48.0002L41.1911 47.9768L41.0153 37.4885Z" fill="#373A3B"/>
<path id="_x38_" d="M21.6094 48.4453C21.8035 48.4453 21.9609 48.2879 21.9609 48.0938C21.9609 47.8996 21.8035 47.7422 21.6094 47.7422C21.4152 47.7422 21.2578 47.8996 21.2578 48.0938C21.2578 48.2879 21.4152 48.4453 21.6094 48.4453Z" fill="#373A3B"/>
<path id="_x37_" d="M38.4375 12.375C38.6317 12.375 38.7891 12.2176 38.7891 12.0234C38.7891 11.8293 38.6317 11.6719 38.4375 11.6719C38.2433 11.6719 38.0859 11.8293 38.0859 12.0234C38.0859 12.2176 38.2433 12.375 38.4375 12.375Z" fill="#373A3B"/>
<path id="_x36_" d="M25.7692 47.4609H24.4801V40.5703C24.4801 39.6914 24.8551 38.8594 25.4997 38.2734L30.6559 33.5977L29.9411 32.8125L24.7848 37.4883C23.9176 38.2734 23.4255 39.3984 23.4255 40.5703V47.4609H23.2614C22.9801 47.4609 22.7458 47.6602 22.7106 47.9414C22.6755 48.2578 22.9216 48.5156 23.238 48.5156H25.7926C26.1325 48.5156 26.4489 48.6797 26.6247 48.9609C26.8005 49.2422 26.8122 49.582 26.6716 49.875L22.4294 58.418C22.2653 58.7461 21.9489 58.9453 21.5856 58.9453C21.2223 58.9453 20.9059 58.7461 20.7419 58.418L16.4997 49.875C16.3473 49.5703 16.3708 49.2422 16.5466 48.9609C16.7223 48.6797 17.0505 48.5156 17.3786 48.5156H19.945C20.2262 48.5156 20.4606 48.3164 20.4958 48.0352C20.5309 47.7188 20.2848 47.4609 19.9684 47.4609H19.7458V38.3672C19.7458 37.043 20.32 35.7891 21.3278 34.9219L26.8825 30.1523L26.1911 29.3555L20.6364 34.125C19.3942 35.1914 18.6911 36.7383 18.6911 38.3672V47.4609H17.402C16.7106 47.4609 16.0426 47.7891 15.6676 48.375C15.2809 48.9727 15.2341 49.7227 15.5505 50.3555L19.7926 58.8984C20.1325 59.5781 20.8239 60.0117 21.5856 60.0117C22.3473 60.0117 23.0387 59.5898 23.3786 58.8984L27.6208 50.3555C27.9372 49.7227 27.8903 48.9727 27.5036 48.375C27.1286 47.7891 26.4606 47.4609 25.7692 47.4609Z" fill="#373A3B"/>
<path id="_x35_" d="M44.4492 9.65625L40.207 1.11328C39.8672 0.433594 39.1758 0 38.4141 0C37.6523 0 36.9609 0.421875 36.6211 1.11328L32.3789 9.65625C32.0625 10.2891 32.1094 11.0391 32.4961 11.6367C32.8711 12.2109 33.5391 12.5508 34.2305 12.5508H35.5195V20.7422C35.5195 21.1289 35.3555 21.4922 35.0625 21.75L29.7773 26.2852L30.4687 27.082L35.7539 22.5469C36.2812 22.0898 36.5859 21.4336 36.5859 20.7422V12.5391H36.7852C37.0664 12.5391 37.3008 12.3398 37.3359 12.0586C37.3711 11.7422 37.125 11.4844 36.8086 11.4844H34.2187C33.8789 11.4844 33.5625 11.3203 33.3867 11.0391C33.2109 10.7578 33.1992 10.418 33.3398 10.125L37.582 1.58203C37.7461 1.25391 38.0625 1.05469 38.4258 1.05469C38.7891 1.05469 39.1055 1.25391 39.2695 1.58203L43.5 10.0898C43.6523 10.3945 43.6523 10.7695 43.4648 11.0508C43.2891 11.3203 42.9961 11.4844 42.668 11.4844H40.1016C39.8203 11.4844 39.5859 11.6836 39.5508 11.9648C39.5156 12.2812 39.7617 12.5391 40.0781 12.5391H40.1367L39.9727 22.4883C39.9609 23.2734 39.6211 24.0234 39.0352 24.5508L33.4219 29.6484L34.1367 30.4336L39.7383 25.3477C40.5352 24.6211 41.0039 23.5898 41.0156 22.5234L41.1797 12.5508H42.5977C43.2891 12.5508 43.957 12.2227 44.332 11.6367C44.7187 11.0273 44.7656 10.2891 44.4492 9.65625Z" fill="#373A3B"/>
<path id="_x34_" d="M12.3164 30.3516C12.5106 30.3516 12.668 30.1942 12.668 30C12.668 29.8058 12.5106 29.6484 12.3164 29.6484C12.1222 29.6484 11.9648 29.8058 11.9648 30C11.9648 30.1942 12.1222 30.3516 12.3164 30.3516Z" fill="#373A3B"/>
<path id="_x33_" d="M12.3516 28.9103C12.6211 28.8869 12.832 28.6408 12.832 28.3595V28.2424H23.5781V27.1877H12.832V25.8166C12.832 25.1252 12.5039 24.4572 11.918 24.0822C11.3203 23.6955 10.5703 23.6486 9.9375 23.965L1.39453 28.2072C0.714844 28.547 0.28125 29.2384 0.28125 30.0002C0.28125 30.7619 0.703125 31.4533 1.39453 31.7931L9.9375 36.0353C10.2188 36.1759 10.5234 36.2463 10.8281 36.2463C11.2031 36.2463 11.5664 36.1408 11.8945 35.9416C12.4922 35.5666 12.832 34.8986 12.832 34.1955V32.8127H23.3438V31.758H12.832V31.6759C12.832 31.3947 12.6328 31.1603 12.3516 31.1252C12.0352 31.09 11.7773 31.3361 11.7773 31.6525V34.2072C11.7773 34.547 11.6133 34.8634 11.332 35.0392C11.0508 35.215 10.7109 35.2267 10.418 35.0861L1.875 30.8439C1.55859 30.6799 1.35938 30.3869 1.34766 30.0236C1.33594 29.6486 1.57031 29.297 1.91016 29.133L10.418 24.9142C10.7109 24.7619 11.0508 24.7853 11.332 24.9611C11.6133 25.1369 11.7773 25.465 11.7773 25.7931V28.383C11.7773 28.6877 12.0352 28.9338 12.3516 28.9103Z" fill="#373A3B"/>
<path id="_x32_" d="M47.6836 30.3516C47.8778 30.3516 48.0352 30.1942 48.0352 30C48.0352 29.8058 47.8778 29.6484 47.6836 29.6484C47.4894 29.6484 47.332 29.8058 47.332 30C47.332 30.1942 47.4894 30.3516 47.6836 30.3516Z" fill="#373A3B"/>
<path id="_x31_" d="M58.5586 28.1838L50.0625 23.965C49.4297 23.6486 48.6797 23.6955 48.082 24.0822C47.4961 24.4572 47.168 25.1252 47.168 25.8166V27.1877H36.9258C36.3398 27.1877 35.8711 27.6564 35.8711 28.2424H47.168V28.3595C47.168 28.6408 47.3672 28.8752 47.6484 28.9103C47.9648 28.9455 48.2227 28.6994 48.2227 28.383V25.7931C48.2227 25.4533 48.3867 25.1369 48.668 24.9611C48.9492 24.7853 49.2891 24.7736 49.582 24.9142L58.0898 29.133C58.4297 29.297 58.6641 29.6486 58.6523 30.0236C58.6406 30.3752 58.4531 30.6799 58.125 30.8439L49.582 35.0861C49.2773 35.2384 48.9492 35.215 48.668 35.0392C48.3867 34.8634 48.2227 34.5353 48.2227 34.2072V31.6759C48.2227 31.3947 48.0234 31.1603 47.7422 31.1252C47.4258 31.09 47.168 31.3361 47.168 31.6525V31.758H36.5742V32.8127H47.168V34.1838C47.168 34.8869 47.5078 35.5549 48.1055 35.9299C48.4336 36.1408 48.7969 36.2345 49.1719 36.2345C49.4766 36.2345 49.7813 36.1642 50.0625 36.0236L58.6055 31.7814C59.2852 31.4416 59.707 30.7736 59.7188 30.0236C59.7188 29.2502 59.25 28.5353 58.5586 28.1838Z" fill="#373A3B"/>
</g>
<defs>
<clipPath id="clip0_764_14500">
<rect width="60" height="60" fill="white"/>
</clipPath>
</defs>
</svg>
