<svg width="142" height="142" viewBox="0 0 142 142" fill="none" xmlns="http://www.w3.org/2000/svg">
<rect width="142" height="142" rx="71" fill="#2E2D2C"/>
<path d="M99.3984 73.6427V93.2234H87.9366V74.8367C87.9366 70.2997 86.265 67.1954 82.2056 67.1954C79.1014 67.1954 77.191 69.3445 76.4747 71.2548C76.2359 71.9712 75.9971 72.9263 75.9971 74.1203V93.2234H64.5352C64.5352 93.2234 64.774 62.1808 64.5352 59.0766H75.9971V63.8523C77.4298 61.4645 80.2953 58.1214 86.265 58.1214C93.6675 58.1214 99.3984 63.136 99.3984 73.6427ZM52.5957 42.6001C48.7751 42.6001 46.1484 45.2268 46.1484 48.5698C46.1484 51.9129 48.5363 54.5396 52.357 54.5396C56.4164 54.5396 58.8043 51.9129 58.8043 48.5698C59.0431 44.988 56.6552 42.6001 52.5957 42.6001ZM46.8648 93.2234H58.3267V59.0766H46.8648V93.2234Z" fill="white"/>
</svg>
