<svg width="106" height="106" viewBox="0 0 106 106" fill="none" xmlns="http://www.w3.org/2000/svg">
<circle cx="53.3695" cy="53.3954" r="52.5648" fill="url(#paint0_linear_319_6813)"/>
<path d="M62.0293 45.8309C62.537 45.8315 63.0335 45.6821 63.456 45.4013C63.8785 45.1206 64.208 44.7213 64.4028 44.2539C64.5975 43.7864 64.6488 43.2719 64.5502 42.7754C64.4515 42.2789 64.2074 41.8227 63.8486 41.4646C63.4898 41.1064 63.0325 40.8624 62.5346 40.7634C62.0367 40.6645 61.5205 40.7149 61.0513 40.9085C60.5821 41.102 60.1811 41.4299 59.899 41.8507C59.6168 42.2715 59.4662 42.7663 59.4662 43.2725C59.4662 43.9504 59.7361 44.6006 60.2167 45.0803C60.6973 45.56 61.3492 45.83 62.0293 45.8309Z" fill="white"/>
<path d="M82.2591 40.7276C81.4284 42.1774 80.5843 43.678 79.6825 45.2969L75.1259 53.5196C75.1058 53.6175 75.0715 53.712 75.0242 53.8002L74.9564 53.9353C74.8988 54.0435 74.8479 54.1449 74.7937 54.2395L73.1629 57.119C71.9357 59.2887 70.6643 61.5295 69.4336 63.7398C68.6573 65.1221 67.5588 65.8386 66.1654 65.8724H63.3616C62.7154 65.8777 62.08 65.7066 61.5242 65.3778C60.9685 65.049 60.5136 64.5748 60.2087 64.0068C59.5781 62.9253 58.9577 61.837 58.3372 60.7488L57.1642 58.7007L54.6317 54.2666C54.574 54.1652 54.5198 54.0604 54.4622 53.9455L54.3842 53.7934C54.3466 53.7241 54.3181 53.6503 54.2994 53.5737L48.7563 43.6983C48.1834 42.6844 47.6104 41.7077 47.0442 40.7073C45.5186 40.7073 43.9952 40.7073 42.4741 40.7073H40.2196L49.9938 57.778C50.0847 57.9371 50.1326 58.1171 50.1326 58.3002C50.1326 58.4833 50.0847 58.6633 49.9938 58.8224C49.0694 60.4536 48.1461 62.0894 47.2239 63.7297C46.4475 65.1119 45.3491 65.8284 43.9557 65.8622H41.1519C40.5056 65.8679 39.8701 65.697 39.3142 65.3681C38.7584 65.0393 38.3035 64.565 37.999 63.9966C37.3684 62.9152 36.7479 61.8269 36.1275 60.7386L35.5037 59.647L32.422 54.2699C32.3643 54.1685 32.3101 54.0638 32.2524 53.9489L32.1711 53.7968C32.136 53.7267 32.1087 53.6531 32.0897 53.5771L26.5432 43.6983C25.9714 42.7047 25.4063 41.7088 24.8481 40.7107C23.3224 40.7107 21.7991 40.7107 20.278 40.7107H18.0234L25.2447 53.3202C28.2463 58.5587 31.2444 63.7984 34.2391 69.0391C34.6051 69.7561 35.1677 70.3549 35.8614 70.7659C36.5551 71.1769 37.3516 71.3832 38.1583 71.361C40.1134 71.361 42.0684 71.361 44.0235 71.361H47.0951C48.6275 71.361 49.6547 70.7526 50.4345 69.3872C50.9702 68.4477 51.5081 67.5081 52.0483 66.5686L52.6009 65.5986C52.6931 65.4362 52.8269 65.3012 52.9886 65.2072C53.1504 65.1132 53.3342 65.0637 53.5214 65.0637C53.7085 65.0637 53.8924 65.1132 54.0541 65.2072C54.2158 65.3012 54.3496 65.4362 54.4418 65.5986L56.4184 69.0526C56.7882 69.7714 57.3558 70.3702 58.0547 70.779C58.7536 71.1878 59.5548 71.3897 60.3646 71.361C62.322 71.361 64.277 71.361 66.2298 71.361H69.3014C70.8338 71.361 71.8645 70.7526 72.6408 69.3872C76.3464 62.8881 80.1401 56.2944 83.8084 49.9203C85.1329 47.6153 86.4574 45.3104 87.7818 43.0055C88.2192 42.2484 88.6531 41.4914 89.0905 40.7242H86.8766C85.3352 40.7242 83.7937 40.7242 82.2523 40.7242" fill="white"/>
<defs>
<linearGradient id="paint0_linear_319_6813" x1="15.3053" y1="91.9127" x2="89.6211" y2="16.6906" gradientUnits="userSpaceOnUse">
<stop stop-color="#919191"/>
<stop offset="1" stop-color="#D6D6D6"/>
</linearGradient>
</defs>
</svg>
