<svg width="969" height="77" viewBox="0 0 969 77" fill="none" xmlns="http://www.w3.org/2000/svg">
<path d="M902.479 13.7799L909.18 13.7799C910.957 13.6966 912.723 14.0916 914.272 14.9191C915.821 15.7466 917.089 16.9725 917.929 18.4541C919.594 21.1688 921.244 23.8947 922.879 26.632L924.532 29.3721C927.263 33.8965 929.985 38.4067 932.698 42.9028C932.85 43.1573 932.994 43.4203 933.147 43.7087L933.353 44.0905C933.55 44.4343 933.68 44.8149 933.882 45.1557L948.274 69.4469C951.085 74.0736 956.086 76.9376 961.5 76.9376C962.625 76.9376 963.75 76.9376 964.875 76.9376C967.499 76.9376 969.116 74.0707 967.759 71.8247L927.883 5.83109C926.9 4.02994 925.395 2.52975 923.544 1.5054C921.692 0.481058 919.571 -0.0252474 917.426 0.045509C912.246 0.045509 907.066 0.045509 901.886 0.045509L893.747 0.045509C889.687 0.045509 886.965 1.57249 884.899 4.99972C875.08 21.313 865.028 37.8638 855.308 53.8717C851.793 59.6572 848.284 65.44 844.78 71.2199C843.259 73.7292 845.065 76.9376 848 76.9376H855.061C857.778 76.9376 860.298 75.5137 861.691 73.1801C863.167 70.7053 864.68 68.1534 866.259 65.4682L877.952 45.4784C878.204 45.0477 878.361 44.5663 878.593 44.1244L878.79 43.7851C878.934 43.5136 879.069 43.2591 879.221 43.0131C880.653 40.6152 882.087 38.2144 883.524 35.8109C886.785 30.3561 890.154 24.7232 893.406 19.1752C895.463 15.7056 898.373 13.9071 902.065 13.8223H902.344" fill="white"/>
<path d="M906.611 64.094C905.268 64.094 903.955 64.4701 902.838 65.1748C901.721 65.8795 900.851 66.8811 900.337 68.053C899.823 69.2249 899.688 70.5144 899.95 71.7585C900.212 73.0025 900.859 74.1453 901.809 75.0422C902.758 75.9391 903.969 76.5499 905.286 76.7974C906.603 77.0448 907.969 76.9179 909.21 76.4324C910.451 75.947 911.511 75.125 912.257 74.0704C913.004 73.0157 913.402 71.7757 913.402 70.5073C913.403 69.6648 913.228 68.8303 912.887 68.0517C912.547 67.2731 912.046 66.5657 911.415 65.9699C910.785 65.3742 910.036 64.9018 909.211 64.5799C908.387 64.258 907.503 64.0928 906.611 64.094Z" fill="white"/>
<path d="M550.881 0.232145L550.369 0.232145C548.487 0.29466 546.704 1.04464 545.396 2.32406C544.088 3.60349 543.357 5.31244 543.357 7.09084C543.357 8.86923 544.088 10.5782 545.396 11.8576C546.704 13.137 548.487 13.887 550.369 13.9495H550.881C552.763 13.887 554.546 13.137 555.854 11.8576C557.162 10.5782 557.893 8.86923 557.893 7.09084C557.893 5.31244 557.162 3.60349 555.854 2.32406C554.546 1.04464 552.763 0.29466 550.881 0.232145Z" fill="white"/>
<path d="M537.631 63.1142C537.631 63.1165 537.629 63.1184 537.627 63.1184H536.014C533.041 63.1184 530.373 61.8799 527.866 59.4197C527.543 59.1059 527.22 58.7665 526.878 58.3932C523.159 54.3496 519.449 50.3002 515.748 46.2452C505.04 34.5553 493.964 22.4922 483.005 10.6156C480.738 8.22799 478.209 6.07523 475.459 4.1938C471.686 1.55552 467.015 0.240622 461.158 0.172756C458.077 0.172756 454.798 0.121859 450.522 0.121859C444.752 0.121859 440.075 4.79928 440.075 10.5692V69.4542C440.075 73.5919 443.429 76.9461 447.567 76.9461C451.704 76.9461 455.059 73.5919 455.059 69.4542V16.7151C455.059 16.0831 455.298 15.472 455.733 14.9915C456.167 14.511 456.769 14.1927 457.43 14.0938C458.417 13.9451 459.414 13.8685 460.413 13.8647C462.525 13.8394 464.615 14.273 466.521 15.132C468.428 15.9911 470.1 17.2525 471.408 18.8189C475.711 23.7053 480.193 28.6086 484.532 33.3422C486.131 35.0898 487.727 36.8402 489.32 38.5934C491.775 41.2854 494.225 43.9802 496.668 46.6779C502.956 53.6341 509.514 60.8364 516.018 67.886C518.389 70.5684 521.332 72.7488 524.655 74.2851C527.978 75.8213 531.607 76.6789 535.304 76.8019C539.113 76.9546 543.021 76.9715 546.803 76.98H550.693C553.028 76.98 555.355 76.98 557.726 76.98C557.964 76.98 558.157 76.787 558.157 76.5488V70.045C558.157 66.2148 555.052 63.1099 551.222 63.1099L537.635 63.1099C537.633 63.1099 537.631 63.1118 537.631 63.1142Z" fill="white"/>
<path d="M114.6 12.8637C115.946 12.8654 117.261 12.4902 118.381 11.7855C119.5 11.0809 120.373 10.0786 120.889 8.90529C121.405 7.732 121.541 6.44052 121.28 5.19426C121.018 3.94799 120.372 2.80293 119.421 1.90397C118.47 1.00502 117.259 0.392553 115.939 0.144077C114.62 -0.104398 113.252 0.0222979 112.009 0.508099C110.766 0.993901 109.703 1.81698 108.956 2.87322C108.208 3.92947 107.809 5.17141 107.809 6.44189C107.809 8.14359 108.524 9.7757 109.798 10.9798C111.071 12.1839 112.798 12.8614 114.6 12.8637Z" fill="white"/>
<path d="M168.202 0.0539781C166.001 3.69329 163.765 7.45986 161.375 11.5233L149.684 31.5098C149.431 31.9426 149.28 32.431 149.032 32.8672L148.853 33.2065C148.7 33.478 148.565 33.7325 148.422 33.97L144.101 41.1977C140.849 46.6439 137.48 52.2683 134.219 57.8164C132.162 61.286 129.252 63.0845 125.56 63.1693H118.131C116.418 63.1826 114.735 62.7533 113.262 61.9279C111.79 61.1025 110.584 59.9124 109.776 58.4865C108.106 55.7719 106.462 53.0403 104.818 50.3087L101.71 45.1679L94.9992 34.0379C94.8465 33.7834 94.7028 33.5204 94.5501 33.2319L94.3435 32.8502C94.1467 32.5064 94.0164 32.1258 93.8145 31.785L79.4315 7.51075C76.6444 2.83845 71.5637 0.00308077 66.1233 0.00308077C65.0104 0.00308077 63.8979 0.00308077 62.7859 0.00308077C60.1619 0.00308077 58.5449 2.86988 59.9022 5.11555L82.7104 42.8519C82.9514 43.2513 83.0781 43.703 83.0781 44.1626C83.0781 44.6222 82.9514 45.0739 82.7104 45.4733C80.261 49.5678 77.8146 53.6737 75.3712 57.7909C73.3141 61.2606 70.4035 63.059 66.7115 63.1438L59.2825 63.1438C57.57 63.1581 55.886 62.7292 54.4133 61.9037C52.9405 61.0782 51.7353 59.8876 50.9283 58.4611C49.2574 55.7465 47.6135 53.0149 45.9696 50.2833L44.3167 47.5432L36.1511 34.0463C35.9984 33.7918 35.8547 33.5289 35.702 33.2404L35.4864 32.8587C35.3026 32.5106 35.169 32.1355 34.9682 31.7969L20.5745 7.51075C17.7618 2.88082 12.7588 0.0115723 7.34149 0.0115723C6.21844 0.0115723 5.09586 0.0115723 3.97374 0.0115723C1.34989 0.0115723 -0.266957 2.87834 1.09047 5.12377L17.1339 31.6625C25.0869 44.8116 33.031 57.9634 40.966 71.1181C41.9358 72.9178 43.4263 74.4207 45.2645 75.4524C47.1026 76.484 49.213 77.002 51.3505 76.9461C56.5307 76.9461 61.7109 76.9461 66.8912 76.9461H75.0298C79.0902 76.9461 81.8121 75.4191 83.8782 71.9919C85.2975 69.6335 86.7228 67.2752 88.1541 64.9169L89.6184 62.4822C89.8627 62.0746 90.2173 61.7355 90.6457 61.4996C91.0742 61.2637 91.5613 61.1395 92.0572 61.1395C92.5532 61.1395 93.0403 61.2637 93.4688 61.4996C93.8973 61.7355 94.2518 62.0746 94.4962 62.4822L99.7333 71.152C100.713 72.9561 102.217 74.4592 104.069 75.4853C105.921 76.5114 108.044 77.0181 110.19 76.9461C115.376 76.9461 120.556 76.9461 125.73 76.9461L133.869 76.9461C137.929 76.9461 140.66 75.4191 142.717 71.9919C152.536 55.6786 162.588 39.1278 172.308 23.1284C175.817 17.3428 179.326 11.5573 182.836 5.7717C182.979 5.53594 183.123 5.30017 183.267 5.06436C184.608 2.86084 183.017 0.0455125 180.437 0.0455125C176.353 0.0455125 172.269 0.0455125 168.184 0.0455125" fill="white"/>
<path d="M652.278 0.0794527C648.664 0.0794527 645.733 3.00967 645.733 6.62427C645.733 10.2389 648.664 13.1691 652.278 13.1691L728.683 13.1691C729.306 13.1715 729.91 13.369 730.401 13.7306C730.891 14.0921 731.241 14.5973 731.396 15.1669C731.55 15.7365 731.499 16.3383 731.252 16.878C731.005 17.4176 730.576 17.8646 730.031 18.1487L658.741 54.7454C655.309 56.3552 652.142 58.4238 649.336 60.8873C646.641 63.4323 645.347 65.9773 645.302 68.7937C645.302 71.2029 645.302 73.6631 645.302 76.0469C645.302 76.492 645.663 76.8528 646.108 76.8528L651.06 76.8528C651.488 76.8512 651.914 76.9291 652.342 76.9291L753.432 76.9291C757.053 76.9291 759.989 73.9932 759.989 70.3716C759.989 66.7499 757.053 63.814 753.432 63.814L672.681 63.814C671.259 63.814 670.659 62.2085 671.919 61.549L694.61 50.156L734.935 29.8132L739.84 27.3531C743.981 25.2916 748.257 23.1114 752.416 20.9397L752.533 20.8804C754.816 19.6138 756.707 17.803 758.015 15.6292C759.324 13.4555 760.004 10.9952 759.989 8.49481C759.989 3.84714 756.221 0.0794527 751.574 0.0794527L652.278 0.0794527Z" fill="white"/>
<path d="M261.626 63.1693C260.74 63.1702 259.855 63.1192 258.976 63.0166C257.321 62.9056 255.776 62.1931 254.665 61.0288C253.555 59.8645 252.965 58.3391 253.02 56.7729C253.02 55.6701 253.02 54.5673 253.02 53.5069C253.02 53.0573 253.02 52.5992 253.02 52.1496V23.9089C253.016 23.8326 253.016 23.7561 253.02 23.6798C253.02 22.5685 253.02 21.1349 253.02 19.7436C253.03 18.4347 253.52 17.1693 254.406 16.1626C255.292 15.1559 256.519 14.4698 257.88 14.221C259.118 13.9588 260.384 13.8307 261.653 13.8392L346.695 13.8392C350.516 13.8392 353.613 10.7419 353.613 6.92117C353.613 3.10042 350.516 0.0030849 346.695 0.0030849L260.189 0.0030849C256.77 -0.038815 253.359 0.346271 250.047 1.14833C244.657 2.49716 241.262 4.84702 239.267 8.54571C237.831 11.3845 237.155 14.5133 237.3 17.6567C237.3 24.5394 237.3 31.4165 237.3 38.288C237.3 45.2612 237.3 52.2372 237.3 59.2161C237.293 60.5125 237.38 61.8078 237.561 63.0929C238.414 68.9379 241.594 72.8147 247.289 74.9695C250.981 76.3607 255.14 76.98 260.764 76.98L347.04 76.98C350.854 76.98 353.945 73.8884 353.945 70.0747C353.945 66.2609 350.854 63.1693 347.04 63.1693L261.626 63.1693Z" fill="white"/>
<path d="M345.609 38.4401C345.608 36.6249 344.855 34.882 343.513 33.5827C342.171 32.2834 340.344 31.5303 338.423 31.4839L285.423 31.4839C283.464 31.4839 281.586 32.2186 280.201 33.5263C278.817 34.834 278.039 36.6077 278.039 38.4571C278.039 40.3065 278.817 42.0802 280.201 43.3879C281.586 44.6956 283.464 45.4303 285.423 45.4303L338.423 45.4303C340.344 45.3818 342.169 44.628 343.511 43.3292C344.852 42.0303 345.605 40.2886 345.609 38.474" fill="white"/>
</svg>
