<svg width="144" height="144" viewBox="0 0 144 144" fill="none" xmlns="http://www.w3.org/2000/svg">
<g clip-path="url(#clip0_335_6863)">
<mask id="path-1-outside-1_335_6863" maskUnits="userSpaceOnUse" x="-1" y="4.2876" width="146" height="135" fill="black">
<rect fill="white" x="-1" y="4.2876" width="146" height="135"/>
<path d="M11.3625 128.7H85.6125C86.2875 128.7 86.7375 128.25 86.7375 127.575V71.4376C86.7375 70.7626 86.2875 70.3126 85.6125 70.3126H11.3625C10.6875 70.3126 10.2375 70.7626 10.2375 71.4376V127.463C10.2375 128.138 10.8 128.7 11.3625 128.7ZM12.4875 72.5626H84.4875V126.338H12.4875V72.5626ZM129.713 12.4876H64.575C61.7625 12.4876 59.5125 14.7376 59.5125 17.5501C59.5125 20.3626 61.7625 22.6126 64.575 22.6126H129.713C132.525 22.6126 134.775 20.3626 134.775 17.5501C134.775 14.7376 132.525 12.4876 129.713 12.4876ZM129.713 20.3626H64.575C63 20.3626 61.7625 19.1251 61.7625 17.5501C61.7625 15.9751 63 14.7376 64.575 14.7376H129.713C131.288 14.7376 132.525 15.9751 132.525 17.5501C132.525 19.1251 131.288 20.3626 129.713 20.3626ZM14.2875 12.4876C11.475 12.4876 9.225 14.7376 9.225 17.5501C9.225 20.3626 11.475 22.6126 14.2875 22.6126C17.1 22.6126 19.35 20.3626 19.35 17.5501C19.35 14.7376 16.9875 12.4876 14.2875 12.4876ZM14.2875 20.3626C12.7125 20.3626 11.475 19.1251 11.475 17.5501C11.475 15.9751 12.7125 14.7376 14.2875 14.7376C15.8625 14.7376 17.1 15.9751 17.1 17.5501C17.1 19.1251 15.75 20.3626 14.2875 20.3626ZM28.2375 12.4876C25.425 12.4876 23.175 14.7376 23.175 17.5501C23.175 20.3626 25.425 22.6126 28.2375 22.6126C31.05 22.6126 33.3 20.3626 33.3 17.5501C33.3 14.7376 31.05 12.4876 28.2375 12.4876ZM28.2375 20.3626C26.6625 20.3626 25.425 19.1251 25.425 17.5501C25.425 15.9751 26.6625 14.7376 28.2375 14.7376C29.8125 14.7376 31.05 15.9751 31.05 17.5501C31.05 19.1251 29.8125 20.3626 28.2375 20.3626ZM42.3 12.4876C39.4875 12.4876 37.2375 14.7376 37.2375 17.5501C37.2375 20.3626 39.4875 22.6126 42.3 22.6126C45.1125 22.6126 47.3625 20.3626 47.3625 17.5501C47.3625 14.7376 45.1125 12.4876 42.3 12.4876ZM42.3 20.3626C40.725 20.3626 39.4875 19.1251 39.4875 17.5501C39.4875 15.9751 40.725 14.7376 42.3 14.7376C43.875 14.7376 45.1125 15.9751 45.1125 17.5501C45.1125 19.1251 43.875 20.3626 42.3 20.3626ZM144 15.0751C144 9.6751 139.613 5.2876 134.213 5.2876H9.7875C4.3875 5.2876 0 9.6751 0 15.0751V128.925C0 134.325 4.3875 138.713 9.7875 138.713H134.213C139.613 138.713 144 134.325 144 128.925C144 123.413 144 132.3 144 15.0751ZM2.25 15.0751C2.25 10.9126 5.625 7.5376 9.7875 7.5376H134.213C138.375 7.5376 141.75 10.9126 141.75 15.0751V27.4501H2.25V15.0751ZM141.75 128.925C141.75 133.088 138.375 136.463 134.213 136.463H9.7875C5.625 136.463 2.25 133.088 2.25 128.925V29.7001H141.75V128.925ZM14.85 62.3251H129.15C131.625 62.3251 133.762 60.3001 133.762 57.7126V43.6501C133.762 41.1751 131.738 39.0376 129.15 39.0376H14.85C12.375 39.0376 10.2375 41.0626 10.2375 43.6501V57.8251C10.2375 60.3001 12.375 62.3251 14.85 62.3251ZM131.512 43.6501V57.8251C131.512 59.0626 130.5 60.1876 129.15 60.1876H34.9875V41.2876H129.037C130.387 41.2876 131.512 42.3001 131.512 43.6501ZM12.4875 43.6501C12.4875 42.4126 13.5 41.2876 14.85 41.2876H32.7375V60.0751H14.85C13.6125 60.0751 12.4875 59.0626 12.4875 57.7126V43.6501ZM24.6375 54.2251L27 56.5876C27.45 57.0376 28.125 57.0376 28.575 56.5876C29.025 56.1376 29.025 55.4626 28.575 55.0126L26.2125 52.6501C27.5625 50.6251 27.225 47.9251 25.5375 46.1251C23.5125 44.1001 20.1375 44.1001 18.1125 46.1251C16.0875 48.1501 16.0875 51.5251 18.1125 53.5501C19.8 55.2376 22.5 55.5751 24.6375 54.2251ZM19.6875 47.7001C20.8125 46.5751 22.725 46.5751 23.85 47.7001C24.975 48.8251 24.975 50.7376 23.85 51.8626C22.725 52.9876 20.8125 52.9876 19.6875 51.8626C18.5625 50.7376 18.5625 48.8251 19.6875 47.7001ZM68.4 104.513L75.2625 100.913C76.1625 100.463 76.05 99.1126 75.0375 98.7751L51.1875 92.5876C50.85 92.4751 50.4 92.5876 50.0625 92.9251C49.725 93.2626 49.725 93.6001 49.8375 94.0501L57.0375 117.563C57.375 118.575 58.725 118.688 59.175 117.675L62.4375 110.7L71.8875 119.7C72.3375 120.15 73.0125 120.15 73.4625 119.7L77.85 115.088C78.3 114.638 78.3 113.963 77.85 113.513L68.4 104.513ZM72.5625 117.338L62.8875 108C62.325 107.438 61.425 107.663 61.0875 108.338L58.3875 114.188L52.65 95.2876L71.6625 100.238L65.925 103.163C65.25 103.5 65.1375 104.4 65.7 104.963L75.4875 114.3L72.5625 117.338ZM132.637 70.3126H95.85C95.175 70.3126 94.725 70.7626 94.725 71.4376V94.3876C94.725 95.0626 95.175 95.5126 95.85 95.5126H132.525C133.2 95.5126 133.65 95.0626 133.65 94.3876V71.4376C133.763 70.8751 133.2 70.3126 132.637 70.3126ZM131.512 93.2626H96.975V72.5626H131.4V93.2626H131.512ZM132.637 103.5H95.85C95.175 103.5 94.725 103.95 94.725 104.625V127.575C94.725 128.25 95.175 128.7 95.85 128.7H132.525C133.2 128.7 133.65 128.25 133.65 127.575V104.625C133.763 104.063 133.2 103.5 132.637 103.5ZM131.512 126.45H96.975V105.75H131.4V126.45H131.512Z"/>
</mask>
<path d="M11.3625 128.7H85.6125C86.2875 128.7 86.7375 128.25 86.7375 127.575V71.4376C86.7375 70.7626 86.2875 70.3126 85.6125 70.3126H11.3625C10.6875 70.3126 10.2375 70.7626 10.2375 71.4376V127.463C10.2375 128.138 10.8 128.7 11.3625 128.7ZM12.4875 72.5626H84.4875V126.338H12.4875V72.5626ZM129.713 12.4876H64.575C61.7625 12.4876 59.5125 14.7376 59.5125 17.5501C59.5125 20.3626 61.7625 22.6126 64.575 22.6126H129.713C132.525 22.6126 134.775 20.3626 134.775 17.5501C134.775 14.7376 132.525 12.4876 129.713 12.4876ZM129.713 20.3626H64.575C63 20.3626 61.7625 19.1251 61.7625 17.5501C61.7625 15.9751 63 14.7376 64.575 14.7376H129.713C131.288 14.7376 132.525 15.9751 132.525 17.5501C132.525 19.1251 131.288 20.3626 129.713 20.3626ZM14.2875 12.4876C11.475 12.4876 9.225 14.7376 9.225 17.5501C9.225 20.3626 11.475 22.6126 14.2875 22.6126C17.1 22.6126 19.35 20.3626 19.35 17.5501C19.35 14.7376 16.9875 12.4876 14.2875 12.4876ZM14.2875 20.3626C12.7125 20.3626 11.475 19.1251 11.475 17.5501C11.475 15.9751 12.7125 14.7376 14.2875 14.7376C15.8625 14.7376 17.1 15.9751 17.1 17.5501C17.1 19.1251 15.75 20.3626 14.2875 20.3626ZM28.2375 12.4876C25.425 12.4876 23.175 14.7376 23.175 17.5501C23.175 20.3626 25.425 22.6126 28.2375 22.6126C31.05 22.6126 33.3 20.3626 33.3 17.5501C33.3 14.7376 31.05 12.4876 28.2375 12.4876ZM28.2375 20.3626C26.6625 20.3626 25.425 19.1251 25.425 17.5501C25.425 15.9751 26.6625 14.7376 28.2375 14.7376C29.8125 14.7376 31.05 15.9751 31.05 17.5501C31.05 19.1251 29.8125 20.3626 28.2375 20.3626ZM42.3 12.4876C39.4875 12.4876 37.2375 14.7376 37.2375 17.5501C37.2375 20.3626 39.4875 22.6126 42.3 22.6126C45.1125 22.6126 47.3625 20.3626 47.3625 17.5501C47.3625 14.7376 45.1125 12.4876 42.3 12.4876ZM42.3 20.3626C40.725 20.3626 39.4875 19.1251 39.4875 17.5501C39.4875 15.9751 40.725 14.7376 42.3 14.7376C43.875 14.7376 45.1125 15.9751 45.1125 17.5501C45.1125 19.1251 43.875 20.3626 42.3 20.3626ZM144 15.0751C144 9.6751 139.613 5.2876 134.213 5.2876H9.7875C4.3875 5.2876 0 9.6751 0 15.0751V128.925C0 134.325 4.3875 138.713 9.7875 138.713H134.213C139.613 138.713 144 134.325 144 128.925C144 123.413 144 132.3 144 15.0751ZM2.25 15.0751C2.25 10.9126 5.625 7.5376 9.7875 7.5376H134.213C138.375 7.5376 141.75 10.9126 141.75 15.0751V27.4501H2.25V15.0751ZM141.75 128.925C141.75 133.088 138.375 136.463 134.213 136.463H9.7875C5.625 136.463 2.25 133.088 2.25 128.925V29.7001H141.75V128.925ZM14.85 62.3251H129.15C131.625 62.3251 133.762 60.3001 133.762 57.7126V43.6501C133.762 41.1751 131.738 39.0376 129.15 39.0376H14.85C12.375 39.0376 10.2375 41.0626 10.2375 43.6501V57.8251C10.2375 60.3001 12.375 62.3251 14.85 62.3251ZM131.512 43.6501V57.8251C131.512 59.0626 130.5 60.1876 129.15 60.1876H34.9875V41.2876H129.037C130.387 41.2876 131.512 42.3001 131.512 43.6501ZM12.4875 43.6501C12.4875 42.4126 13.5 41.2876 14.85 41.2876H32.7375V60.0751H14.85C13.6125 60.0751 12.4875 59.0626 12.4875 57.7126V43.6501ZM24.6375 54.2251L27 56.5876C27.45 57.0376 28.125 57.0376 28.575 56.5876C29.025 56.1376 29.025 55.4626 28.575 55.0126L26.2125 52.6501C27.5625 50.6251 27.225 47.9251 25.5375 46.1251C23.5125 44.1001 20.1375 44.1001 18.1125 46.1251C16.0875 48.1501 16.0875 51.5251 18.1125 53.5501C19.8 55.2376 22.5 55.5751 24.6375 54.2251ZM19.6875 47.7001C20.8125 46.5751 22.725 46.5751 23.85 47.7001C24.975 48.8251 24.975 50.7376 23.85 51.8626C22.725 52.9876 20.8125 52.9876 19.6875 51.8626C18.5625 50.7376 18.5625 48.8251 19.6875 47.7001ZM68.4 104.513L75.2625 100.913C76.1625 100.463 76.05 99.1126 75.0375 98.7751L51.1875 92.5876C50.85 92.4751 50.4 92.5876 50.0625 92.9251C49.725 93.2626 49.725 93.6001 49.8375 94.0501L57.0375 117.563C57.375 118.575 58.725 118.688 59.175 117.675L62.4375 110.7L71.8875 119.7C72.3375 120.15 73.0125 120.15 73.4625 119.7L77.85 115.088C78.3 114.638 78.3 113.963 77.85 113.513L68.4 104.513ZM72.5625 117.338L62.8875 108C62.325 107.438 61.425 107.663 61.0875 108.338L58.3875 114.188L52.65 95.2876L71.6625 100.238L65.925 103.163C65.25 103.5 65.1375 104.4 65.7 104.963L75.4875 114.3L72.5625 117.338ZM132.637 70.3126H95.85C95.175 70.3126 94.725 70.7626 94.725 71.4376V94.3876C94.725 95.0626 95.175 95.5126 95.85 95.5126H132.525C133.2 95.5126 133.65 95.0626 133.65 94.3876V71.4376C133.763 70.8751 133.2 70.3126 132.637 70.3126ZM131.512 93.2626H96.975V72.5626H131.4V93.2626H131.512ZM132.637 103.5H95.85C95.175 103.5 94.725 103.95 94.725 104.625V127.575C94.725 128.25 95.175 128.7 95.85 128.7H132.525C133.2 128.7 133.65 128.25 133.65 127.575V104.625C133.763 104.063 133.2 103.5 132.637 103.5ZM131.512 126.45H96.975V105.75H131.4V126.45H131.512Z" fill="#2E2D2C"/>
<path d="M11.3625 128.7H85.6125C86.2875 128.7 86.7375 128.25 86.7375 127.575V71.4376C86.7375 70.7626 86.2875 70.3126 85.6125 70.3126H11.3625C10.6875 70.3126 10.2375 70.7626 10.2375 71.4376V127.463C10.2375 128.138 10.8 128.7 11.3625 128.7ZM12.4875 72.5626H84.4875V126.338H12.4875V72.5626ZM129.713 12.4876H64.575C61.7625 12.4876 59.5125 14.7376 59.5125 17.5501C59.5125 20.3626 61.7625 22.6126 64.575 22.6126H129.713C132.525 22.6126 134.775 20.3626 134.775 17.5501C134.775 14.7376 132.525 12.4876 129.713 12.4876ZM129.713 20.3626H64.575C63 20.3626 61.7625 19.1251 61.7625 17.5501C61.7625 15.9751 63 14.7376 64.575 14.7376H129.713C131.288 14.7376 132.525 15.9751 132.525 17.5501C132.525 19.1251 131.288 20.3626 129.713 20.3626ZM14.2875 12.4876C11.475 12.4876 9.225 14.7376 9.225 17.5501C9.225 20.3626 11.475 22.6126 14.2875 22.6126C17.1 22.6126 19.35 20.3626 19.35 17.5501C19.35 14.7376 16.9875 12.4876 14.2875 12.4876ZM14.2875 20.3626C12.7125 20.3626 11.475 19.1251 11.475 17.5501C11.475 15.9751 12.7125 14.7376 14.2875 14.7376C15.8625 14.7376 17.1 15.9751 17.1 17.5501C17.1 19.1251 15.75 20.3626 14.2875 20.3626ZM28.2375 12.4876C25.425 12.4876 23.175 14.7376 23.175 17.5501C23.175 20.3626 25.425 22.6126 28.2375 22.6126C31.05 22.6126 33.3 20.3626 33.3 17.5501C33.3 14.7376 31.05 12.4876 28.2375 12.4876ZM28.2375 20.3626C26.6625 20.3626 25.425 19.1251 25.425 17.5501C25.425 15.9751 26.6625 14.7376 28.2375 14.7376C29.8125 14.7376 31.05 15.9751 31.05 17.5501C31.05 19.1251 29.8125 20.3626 28.2375 20.3626ZM42.3 12.4876C39.4875 12.4876 37.2375 14.7376 37.2375 17.5501C37.2375 20.3626 39.4875 22.6126 42.3 22.6126C45.1125 22.6126 47.3625 20.3626 47.3625 17.5501C47.3625 14.7376 45.1125 12.4876 42.3 12.4876ZM42.3 20.3626C40.725 20.3626 39.4875 19.1251 39.4875 17.5501C39.4875 15.9751 40.725 14.7376 42.3 14.7376C43.875 14.7376 45.1125 15.9751 45.1125 17.5501C45.1125 19.1251 43.875 20.3626 42.3 20.3626ZM144 15.0751C144 9.6751 139.613 5.2876 134.213 5.2876H9.7875C4.3875 5.2876 0 9.6751 0 15.0751V128.925C0 134.325 4.3875 138.713 9.7875 138.713H134.213C139.613 138.713 144 134.325 144 128.925C144 123.413 144 132.3 144 15.0751ZM2.25 15.0751C2.25 10.9126 5.625 7.5376 9.7875 7.5376H134.213C138.375 7.5376 141.75 10.9126 141.75 15.0751V27.4501H2.25V15.0751ZM141.75 128.925C141.75 133.088 138.375 136.463 134.213 136.463H9.7875C5.625 136.463 2.25 133.088 2.25 128.925V29.7001H141.75V128.925ZM14.85 62.3251H129.15C131.625 62.3251 133.762 60.3001 133.762 57.7126V43.6501C133.762 41.1751 131.738 39.0376 129.15 39.0376H14.85C12.375 39.0376 10.2375 41.0626 10.2375 43.6501V57.8251C10.2375 60.3001 12.375 62.3251 14.85 62.3251ZM131.512 43.6501V57.8251C131.512 59.0626 130.5 60.1876 129.15 60.1876H34.9875V41.2876H129.037C130.387 41.2876 131.512 42.3001 131.512 43.6501ZM12.4875 43.6501C12.4875 42.4126 13.5 41.2876 14.85 41.2876H32.7375V60.0751H14.85C13.6125 60.0751 12.4875 59.0626 12.4875 57.7126V43.6501ZM24.6375 54.2251L27 56.5876C27.45 57.0376 28.125 57.0376 28.575 56.5876C29.025 56.1376 29.025 55.4626 28.575 55.0126L26.2125 52.6501C27.5625 50.6251 27.225 47.9251 25.5375 46.1251C23.5125 44.1001 20.1375 44.1001 18.1125 46.1251C16.0875 48.1501 16.0875 51.5251 18.1125 53.5501C19.8 55.2376 22.5 55.5751 24.6375 54.2251ZM19.6875 47.7001C20.8125 46.5751 22.725 46.5751 23.85 47.7001C24.975 48.8251 24.975 50.7376 23.85 51.8626C22.725 52.9876 20.8125 52.9876 19.6875 51.8626C18.5625 50.7376 18.5625 48.8251 19.6875 47.7001ZM68.4 104.513L75.2625 100.913C76.1625 100.463 76.05 99.1126 75.0375 98.7751L51.1875 92.5876C50.85 92.4751 50.4 92.5876 50.0625 92.9251C49.725 93.2626 49.725 93.6001 49.8375 94.0501L57.0375 117.563C57.375 118.575 58.725 118.688 59.175 117.675L62.4375 110.7L71.8875 119.7C72.3375 120.15 73.0125 120.15 73.4625 119.7L77.85 115.088C78.3 114.638 78.3 113.963 77.85 113.513L68.4 104.513ZM72.5625 117.338L62.8875 108C62.325 107.438 61.425 107.663 61.0875 108.338L58.3875 114.188L52.65 95.2876L71.6625 100.238L65.925 103.163C65.25 103.5 65.1375 104.4 65.7 104.963L75.4875 114.3L72.5625 117.338ZM132.637 70.3126H95.85C95.175 70.3126 94.725 70.7626 94.725 71.4376V94.3876C94.725 95.0626 95.175 95.5126 95.85 95.5126H132.525C133.2 95.5126 133.65 95.0626 133.65 94.3876V71.4376C133.763 70.8751 133.2 70.3126 132.637 70.3126ZM131.512 93.2626H96.975V72.5626H131.4V93.2626H131.512ZM132.637 103.5H95.85C95.175 103.5 94.725 103.95 94.725 104.625V127.575C94.725 128.25 95.175 128.7 95.85 128.7H132.525C133.2 128.7 133.65 128.25 133.65 127.575V104.625C133.763 104.063 133.2 103.5 132.637 103.5ZM131.512 126.45H96.975V105.75H131.4V126.45H131.512Z" stroke="black" mask="url(#path-1-outside-1_335_6863)"/>
</g>
<defs>
<clipPath id="clip0_335_6863">
<rect width="144" height="144" fill="white"/>
</clipPath>
</defs>
</svg>
