<svg width="198" height="214" viewBox="0 0 198 214" fill="none" xmlns="http://www.w3.org/2000/svg">
<g id="Group 335083">
<path id="Vector" d="M91.767 80.9707L93.5231 79.3686C95.0526 77.9703 96.2748 76.2706 97.1125 74.3772L98.5287 71.0301C99.3497 69.171 100.708 67.5983 102.429 66.5135L106.825 63.8263C107.489 63.413 108.009 62.8041 108.312 62.0837C108.615 61.3633 108.686 60.5671 108.517 59.8049C108.345 59.043 107.94 58.3534 107.359 57.8313C106.777 57.3091 106.048 56.9803 105.27 56.89L100.148 56.3361C98.1242 56.0899 96.222 55.2411 94.6894 53.9002L91.9187 51.5086C90.353 50.1538 88.5222 49.1384 86.5422 48.5267L84.2703 47.8274M30.9168 96.6346L31.4325 98.9359C31.9158 100.953 32.8222 102.844 34.092 104.484L36.3127 107.39C37.5479 109.013 38.2707 110.966 38.389 113.001L38.6884 118.142C38.7286 118.922 39.0112 119.669 39.4966 120.28C39.9821 120.891 40.6465 121.335 41.3973 121.552C42.1485 121.772 42.9497 121.753 43.6903 121.499C44.4309 121.245 45.0741 120.767 45.5312 120.132L48.5512 115.949C49.7487 114.303 51.409 113.048 53.3213 112.344L56.773 111.077C58.7245 110.368 60.5041 109.256 61.9948 107.813L63.6914 106.173M22.6678 59.8304L22.152 57.5291C21.7282 55.4991 21.7408 53.4022 22.1888 51.3766L22.9566 47.8004C23.3842 45.8118 23.2053 43.7415 22.4431 41.8563L20.5159 37.063C20.2312 36.3384 20.1793 35.5432 20.3675 34.7875C20.5557 34.0317 20.9747 33.3528 21.5664 32.8448C22.1518 32.3254 22.8844 32.0002 23.6627 31.9142C24.441 31.8282 25.2266 31.9856 25.9109 32.3647L30.4274 34.8586C32.2066 35.8539 34.2489 36.2811 36.2798 36.0828L39.9423 35.7556C42.0094 35.5632 44.0936 35.8095 46.0577 36.4784L48.2918 37.2372M84.0085 65.2298L84.3453 76.7791L92.1804 82.3588C92.3187 82.4453 92.4348 82.5627 92.5195 82.7018C92.6042 82.8409 92.6551 82.9979 92.6683 83.1602C92.6815 83.3225 92.6566 83.4857 92.5954 83.6368C92.5343 83.7878 92.4388 83.9226 92.3163 84.0304L88.1229 88.1531C87.4556 88.8125 86.9526 89.619 86.6547 90.5076L85.1534 94.997C84.5728 96.7312 83.5257 98.273 82.1266 99.4539C80.8877 100.513 79.408 101.254 77.8167 101.611L72.3592 102.834C72.1944 102.868 72.041 102.944 71.9137 103.054L66.4137 107.588C66.2874 107.687 66.1411 107.758 65.9849 107.796C65.8287 107.833 65.6662 107.836 65.5086 107.805C65.3511 107.775 65.202 107.71 65.0718 107.616C64.9416 107.522 64.8333 107.402 64.7543 107.262L60.4503 99.0189L48.7432 97.6261L38.5596 92.1473L29.7949 96.1202C29.6502 96.1879 29.4922 96.2227 29.3324 96.2222C29.1726 96.2217 29.0149 96.1859 28.8707 96.1173C28.7265 96.0487 28.5993 95.9491 28.4983 95.8256C28.3973 95.7021 28.325 95.5578 28.2866 95.403L26.8294 89.7384C26.5951 88.8314 26.15 87.9924 25.5299 87.2894L22.3804 83.7403C21.1734 82.3709 20.3625 80.6994 20.0343 78.9047C19.7454 77.3039 19.8504 75.6566 20.3401 74.1045L22.0281 68.7733C22.0809 68.6121 22.0895 68.4397 22.0527 68.2742L20.9042 61.2469C20.8789 61.0899 20.8887 60.9293 20.9329 60.7765C20.9771 60.6237 21.0546 60.4824 21.1599 60.3629C21.2651 60.2434 21.3955 60.1485 21.5416 60.0851C21.6878 60.0216 21.8462 59.9912 22.0055 59.9959L31.2596 60.3386L38.2748 50.92L48.2747 44.6959L48.6956 35.4616C48.7048 35.3007 48.7494 35.1437 48.8263 35.0019C48.9032 34.86 49.0104 34.7368 49.1404 34.641C49.2705 34.5453 49.4201 34.4792 49.5785 34.4477C49.737 34.4162 49.9004 34.42 50.0572 34.4587L56.9665 36.212C57.1285 36.2571 57.2994 36.2597 57.4629 36.2199L62.9203 34.9967C64.5099 34.6413 66.1616 34.674 67.735 35.092C69.5041 35.5745 71.1088 36.5265 72.3783 37.8468L75.6522 41.266C76.3009 41.9424 77.0999 42.4571 77.9848 42.7686L83.5331 44.6908C83.6878 44.7388 83.8294 44.8215 83.9472 44.9325C84.065 45.0435 84.1559 45.1798 84.2128 45.3312C84.2698 45.4826 84.2914 45.645 84.2759 45.806C84.2605 45.967 84.2084 46.1224 84.1237 46.2604L79.4197 54.6505L84.0446 65.2388M33.2875 131.795C33.57 132.481 34.0001 133.096 34.5474 133.598C35.0947 134.099 35.7458 134.474 36.4547 134.697C37.1635 134.92 37.9129 134.984 38.6498 134.886C39.3867 134.788 40.0931 134.529 40.7192 134.129L84.5403 106.266C86.3958 105.065 88.0249 103.548 89.3525 101.783L120.695 60.939C121.162 60.3558 121.491 59.6757 121.66 58.9486C121.828 58.2215 121.831 57.466 121.668 56.738C121.505 56.01 121.18 55.3281 120.717 54.7424C120.254 54.1568 119.666 53.6825 118.995 53.3545L73.2141 29.779C71.2578 28.7555 69.1379 28.0788 66.949 27.7792L15.4237 21.2692C14.686 21.1775 13.9369 21.2481 13.2291 21.4761C12.5214 21.7041 11.872 22.084 11.3268 22.5891C10.7816 23.0941 10.3536 23.712 10.0731 24.3994C9.79251 25.0869 9.66616 25.8271 9.70281 26.5682L12.2643 76.0507C12.4404 79.3913 13.1771 82.6782 14.4437 85.7744L33.2875 131.795ZM60.809 87.9094C51.5964 89.9742 42.4579 84.1965 40.3977 75.0044C38.3375 65.8123 44.1356 56.6868 53.3482 54.6219C62.5609 52.5571 71.6993 58.3348 73.7596 67.5269C75.8198 76.719 70.0216 85.8445 60.809 87.9094Z" stroke="#373A3B" stroke-width="2" stroke-linecap="round" stroke-linejoin="round"/>
<g id="Group">
<path id="Vector_2" d="M113.855 166.009C122.28 176.384 137.521 177.964 147.896 169.538C158.271 161.113 159.852 145.872 151.426 135.497C143 125.122 127.76 123.542 117.385 131.967C107.01 140.393 105.429 155.634 113.855 166.009Z" stroke="#373A3B" stroke-width="2" stroke-miterlimit="10"/>
<path id="Vector_3" d="M111.837 167.648C121.167 179.137 138.046 180.887 149.535 171.557C161.025 162.226 162.775 145.348 153.444 133.858C144.114 122.368 127.235 120.618 115.746 129.949C104.256 139.28 102.506 156.158 111.837 167.648Z" stroke="#373A3B" stroke-width="2" stroke-miterlimit="10" stroke-linecap="round" stroke-linejoin="round"/>
<path id="Vector_4" d="M132.429 100.684L144.001 109.064C147.44 111.553 150.616 114.513 153.264 117.773L172.05 140.906C174.698 144.166 179.466 144.803 182.852 142.31L186.239 139.818" stroke="#373A3B" stroke-width="2" stroke-miterlimit="10"/>
<path id="Vector_5" d="M181.601 161.232C184.09 159.855 186.234 158.372 187.986 156.563C189.179 155.336 189.995 153.643 190.029 151.94C190.2 147.551 187.548 141.588 183.751 135.01C176.983 123.502 168.535 113.1 158.661 104.115C152.939 98.9714 147.788 95.1672 143.379 94.4968C141.705 94.1811 139.882 94.6318 138.436 95.5482C136.384 96.8283 134.414 98.6857 132.555 100.839L83.8836 140.365C81.3949 141.742 79.2505 143.226 77.499 145.035C76.3054 146.262 75.4901 147.955 75.4557 149.657C75.324 152.985 76.8072 157.191 79.1684 161.843C79.9296 163.415 80.8315 165.002 81.7333 166.588C88.5022 178.095 96.9496 188.497 106.824 197.483C112.546 202.626 117.697 206.431 122.106 207.101C123.779 207.417 125.603 206.966 127.049 206.05C129.101 204.769 131.071 202.912 132.929 200.759L181.601 161.232ZM147.39 138.775C154.009 146.926 152.769 158.883 144.618 165.502C136.467 172.121 124.511 170.881 117.891 162.731C111.272 154.58 112.512 142.623 120.663 136.004C128.814 129.385 140.77 130.624 147.39 138.775Z" stroke="#373A3B" stroke-width="2" stroke-miterlimit="10" stroke-linecap="round" stroke-linejoin="round"/>
<path id="Vector_6" d="M91.3798 153.086C92.4939 154.458 94.5092 154.667 95.8811 153.553C97.253 152.438 97.462 150.423 96.3479 149.051C95.2338 147.679 93.2184 147.47 91.8465 148.584C90.4746 149.699 90.2656 151.714 91.3798 153.086Z" stroke="#373A3B" stroke-width="2" stroke-miterlimit="10"/>
<g id="Group_2">
<path id="Vector_7" d="M79.1055 161.766L82.4919 159.273C85.8783 156.781 90.5833 157.34 93.2941 160.678L112.08 183.81C114.791 187.148 117.904 190.03 121.343 192.519L132.915 200.899" stroke="#373A3B" stroke-width="2" stroke-miterlimit="10"/>
</g>
</g>
</g>
</svg>
