<svg width="195" height="159" viewBox="0 0 195 159" fill="none" xmlns="http://www.w3.org/2000/svg">
<g id="Group 335083">
<path id="Vector" d="M124.594 86.7668H157.381M165.672 157.472L180.798 129.722M101.176 129.722L116.303 157.472M190.68 157.472H91.308C90.7561 157.458 90.2173 157.301 89.7441 157.018C89.2709 156.735 88.8794 156.334 88.6078 155.855C88.3363 155.376 88.1939 154.836 88.1946 154.286C88.1952 153.736 88.339 153.195 88.6117 152.717L138.305 61.6494C138.556 61.1521 138.942 60.7341 139.418 60.4422C139.894 60.1502 140.442 59.9956 141.001 59.9956C141.56 59.9956 142.108 60.1502 142.584 60.4422C143.06 60.7341 143.445 61.1521 143.697 61.6494L193.377 152.717C193.649 153.195 193.793 153.736 193.794 154.286C193.794 154.836 193.652 155.376 193.38 155.855C193.109 156.334 192.717 156.735 192.244 157.018C191.771 157.301 191.232 157.458 190.68 157.472ZM153.04 124.725C153.04 131.631 147.644 137.23 140.987 137.23C134.331 137.23 128.935 131.631 128.935 124.725C128.935 117.819 134.331 112.22 140.987 112.22C147.644 112.22 153.04 117.819 153.04 124.725Z" stroke="#373A3B" stroke-width="2" stroke-linecap="round" stroke-linejoin="round"/>
<g id="Group">
<path id="Vector_2" d="M54.4619 61.6759C63.4874 61.5342 70.6949 54.4772 70.5604 45.9138C70.426 37.3504 63.0004 30.5232 53.9749 30.665C44.9494 30.8067 37.7418 37.8637 37.8763 46.4271C38.0108 54.9905 45.4364 61.8176 54.4619 61.6759Z" stroke="#373A3B" stroke-width="2" stroke-miterlimit="10"/>
<path id="Vector_3" d="M85.8793 89.3149L9.10962 90.5206C4.35903 90.5952 0.683458 86.5051 1.56562 82.1631L15.2379 8.73011C15.9442 5.29255 18.9478 2.90094 22.5582 2.84424L99.3279 1.63859C104.078 1.56399 107.754 5.6541 106.872 9.99613L93.1996 83.4291C92.4933 86.8666 89.4898 89.2582 85.8793 89.3149Z" stroke="#373A3B" stroke-width="2" stroke-miterlimit="10"/>
<path id="Vector_4" d="M4.71899 65.1626L27.9211 90.2262" stroke="#373A3B" stroke-width="2" stroke-miterlimit="10"/>
<path id="Vector_5" d="M80.5159 1.93433L103.718 26.998" stroke="#373A3B" stroke-width="2" stroke-miterlimit="10"/>
</g>
</g>
</svg>
