<svg width="223" height="209" viewBox="0 0 223 209" fill="none" xmlns="http://www.w3.org/2000/svg">
<path d="M66.7222 81.9283C74.982 81.9283 81.6778 75.2324 81.6778 66.9727C81.6778 58.7129 74.982 52.0171 66.7222 52.0171C58.4625 52.0171 51.7666 58.7129 51.7666 66.9727C51.7666 75.2324 58.4625 81.9283 66.7222 81.9283Z" stroke="#373A3B" stroke-width="2" stroke-miterlimit="10"/>
<path d="M66.7236 87.3958C78.003 87.3958 87.1468 78.252 87.1468 66.9725C87.1468 55.6931 78.003 46.5493 66.7236 46.5493C55.4441 46.5493 46.3003 55.6931 46.3003 66.9725C46.3003 78.252 55.4441 87.3958 66.7236 87.3958Z" stroke="#373A3B" stroke-width="2" stroke-miterlimit="10"/>
<path d="M24.75 102.029V31.9149C24.75 28.0554 27.8055 25 31.665 25H101.779C105.639 25 108.694 28.0554 108.694 31.9149V102.029C108.694 105.889 105.639 108.944 101.779 108.944H31.665C27.8055 108.944 24.75 105.889 24.75 102.029Z" stroke="#373A3B" stroke-width="2" stroke-miterlimit="10"/>
<circle cx="157.75" cy="149" r="40" stroke="#373A3B" stroke-width="2"/>
</svg>
