<svg width="223" height="209" viewBox="0 0 223 209" fill="none" xmlns="http://www.w3.org/2000/svg">
<path d="M44.2994 150.239L38.615 153.577L39.2165 157.297L56.6715 187.713L59.5341 190.116L65.7741 186.452M44.2994 150.239L104.769 114.728L106.301 115.159L126.073 149.619L125.795 151.205L65.7741 186.452M44.2994 150.239L65.7741 186.452" stroke="#373A3B" stroke-width="2" stroke-miterlimit="10"/>
<path d="M102.354 115.815L124.103 152.793" stroke="#373A3B" stroke-width="2" stroke-miterlimit="10"/>
<path d="M127.262 137.67L137.21 131.877L146.572 148.102L136.624 153.895L107.899 104.148L117.847 98.3549L127.35 114.787L117.349 120.487" stroke="#373A3B" stroke-width="2" stroke-miterlimit="10"/>
<path d="M127.188 114.889C127.188 114.889 132.472 117.727 134.84 121.699C137.023 125.387 137.232 129.702 137.052 131.974" stroke="#373A3B" stroke-width="2" stroke-miterlimit="10"/>
<path d="M146.268 148.27L158.388 126.516L146.031 105.048" stroke="#373A3B" stroke-width="2" stroke-miterlimit="10"/>
<path d="M183.487 76.837L197.876 101.862L210.18 94.6558L207.913 79.4283L195.776 69.6403L183.487 76.837Z" stroke="#373A3B" stroke-width="2" stroke-miterlimit="10"/>
<path d="M190.003 87.7186L179.718 91.7504L182.49 96.5565L192.731 92.4482" stroke="#373A3B" stroke-width="2" stroke-miterlimit="10"/>
<path d="M164.505 119.933L156.059 105.377" stroke="#373A3B" stroke-width="2" stroke-miterlimit="10"/>
<path d="M158.247 126.689C158.247 126.689 158.854 123.285 165.207 119.932C171.57 116.594 181.624 110.819 183.748 109.51C185.873 108.201 197.889 101.372 197.889 101.372" stroke="#373A3B" stroke-width="2" stroke-miterlimit="10"/>
<path d="M184.117 77.0851L155.514 93.817C155.514 93.817 149.727 98.6513 146.367 99.1614C142.992 99.6806 137.214 98.1172 136.838 99.7203C136.447 101.333 143.409 105.037 146.837 105.484C151.615 106.103 155.859 105.607 166.973 104.39C182.076 102.744 196.816 99.152 196.816 99.152" stroke="#373A3B" stroke-width="2" stroke-miterlimit="10"/>
<path d="M162.036 89.902C162.036 89.902 177.481 82.8142 187.034 82.5863" stroke="#373A3B" stroke-width="2" stroke-miterlimit="10"/>
<path d="M195.592 69.5743L202.613 81.6623" stroke="#373A3B" stroke-width="2" stroke-miterlimit="10"/>
<path d="M187.741 84.0919C187.741 84.0919 202.022 81.2393 203.858 81.6376C205.694 82.036 207.724 82.6271 208.727 85.1817" stroke="#373A3B" stroke-width="2" stroke-miterlimit="10"/>
<path d="M117.608 98.4968L137.677 98.522" stroke="#373A3B" stroke-width="2" stroke-miterlimit="10"/>
<path d="M196.457 99.0265C196.457 99.0265 205.322 97.1345 210.253 94.7573" stroke="#373A3B" stroke-width="2" stroke-miterlimit="10"/>
<path d="M105.731 115.206L112.227 111.435" stroke="#373A3B" stroke-width="2" stroke-miterlimit="10"/>
<path d="M126.052 150.226L132.548 146.455" stroke="#373A3B" stroke-width="2" stroke-miterlimit="10"/>
<path d="M112.285 72.7795L178.611 37.8593C180.016 37.1194 180.576 35.4372 179.87 34.0743L173.123 21.0444L166.404 8.06912C166.066 7.4149 165.446 6.90866 164.77 6.70927C164.01 6.48494 163.279 6.59238 162.605 6.9475L96.2791 41.8677L95.4655 43.0593L102.975 57.977L92.728 38.187C92.5586 37.8599 92.2768 37.5919 91.8829 37.5218C91.5451 37.4221 91.1232 37.4361 90.7859 37.6137L86.5703 39.8332C86.0083 40.1291 85.5026 40.5341 85.1379 41.073L75.1189 54.188C74.4734 55.0136 73.6308 55.7347 72.6753 56.2378C63.0639 61.4369 53.8761 67.4538 45.3365 74.1701C45.3365 74.1701 34.5405 77.6339 29.0032 80.0637C23.4658 82.4934 18.1255 85.0275 14.6406 86.8623C11.184 88.7516 5.98459 91.4197 5.98459 91.4197L7.54098 96.4977L7.90717 96.7905C7.90717 96.7905 7.62644 97.0771 7.76834 97.7656C7.91024 98.4541 9.06986 101.937 9.06986 101.937C9.06986 101.937 9.12657 102.185 9.40862 102.591C9.69066 102.998 12.0592 106.052 12.0592 106.052C12.0592 106.052 12.5666 106.618 13.0727 106.49L13.1856 106.708L13.9751 107.68L15.3016 110.104C15.3016 110.104 15.0495 110.722 15.1629 111.218C15.3046 111.767 16.4645 115.389 16.4645 115.389C16.4645 115.389 16.6341 115.855 16.8315 116.098C17.0288 116.341 19.4256 119.45 19.4256 119.45C19.4256 119.45 19.7077 119.856 20.2985 119.892C20.8611 119.874 21.1698 119.503 21.1698 119.503L23.9774 116.498C23.9774 116.498 23.8095 117.003 24.2037 117.212L30.6677 113.808L31.3422 113.453C31.3422 113.453 43.6533 107.804 60.2548 94.6924C60.2548 94.6924 72.5971 90.7613 87.241 83.9533C87.241 83.9533 88.3931 83.2773 90.3339 83.1574C92.2747 83.0375 106.733 82.3635 106.733 82.3635C106.733 82.3635 107.717 82.3308 108.56 81.8869C109.403 81.443 112.776 79.6674 112.776 79.6674C112.776 79.6674 114.069 78.9868 113.419 77.7328L110.851 72.7717L111.019 72.6829L112.285 72.7795Z" stroke="#373A3B" stroke-width="2" stroke-miterlimit="10"/>
<path d="M88.3099 83.5286L88.4511 83.8012M79.5848 65.435C79.1871 63.2854 78.5081 61.1452 77.6604 59.0938M41.6426 99.9119L37.9614 102.058L28.7998 107.021M27.9224 104.083L27.724 103.285M27.9224 104.083L28.5692 103.95L27.9793 104.469M27.9224 104.083L26.6853 104.457L26.0388 104.728M178.555 37.8882L174.349 29.765L110.609 63.3237L103.015 48.6585L166.755 15.0997M166.755 15.0997L162.549 6.9766M166.755 15.0997L166.811 15.0702L167.261 14.9721L167.543 14.9627L167.852 15.0079L168.274 15.1325L168.668 15.3412L169.344 15.8179L169.936 16.4082L170.867 17.5142L171.628 18.7089L172.362 19.9878L173.039 21.2962L173.689 22.5501L174.282 23.8336L174.819 25.1467L175.243 26.519L175.357 27.1529L175.414 27.8165L175.415 28.371L175.332 28.9006L175.192 29.1825L175.052 29.4644L174.687 29.8647L174.462 29.9831M75.1198 54.1872L76.5792 52.3088L77.5335 51.1125L78.4878 49.9163L79.4141 48.8042L80.1722 48.0581L80.8745 47.4802L81.8862 46.9476M75.1198 54.1872L85.1387 41.0723C85.5034 40.5334 86.0091 40.1284 86.5711 39.8325L90.7867 37.613C91.124 37.4354 91.5459 37.4214 91.8837 37.5211C92.2776 37.5912 92.5594 37.8592 92.7287 38.1863L102.976 57.9762M75.1198 54.1872C74.4743 55.0127 73.6317 55.7339 72.6761 56.237C63.0648 61.4361 53.877 67.4529 45.3374 74.1691C45.3374 74.1691 34.5415 77.6329 29.0042 80.0627C23.4668 82.4924 18.1266 85.0265 14.6417 86.8613C11.185 88.7506 5.98567 91.4187 5.98567 91.4187L7.54205 96.4966L7.90824 96.7894C7.90824 96.7894 7.62751 97.076 7.76941 97.7645C7.91131 98.4529 9.07093 101.936 9.07093 101.936C9.07093 101.936 9.12764 102.184 9.40968 102.59C9.69173 102.997 12.0603 106.051 12.0603 106.051C12.0603 106.051 12.5676 106.617 13.0738 106.489L13.1867 106.707L13.9761 107.679L15.3026 110.103C15.3026 110.103 15.0506 110.721 15.164 111.216C15.3056 111.766 16.4655 115.388 16.4655 115.388C16.4655 115.388 16.6351 115.853 16.8325 116.096C17.0299 116.339 19.4266 119.449 19.4266 119.449C19.4266 119.449 19.7087 119.855 20.2995 119.891C20.8621 119.872 21.1708 119.502 21.1708 119.502L23.9785 116.497C23.9785 116.497 23.8106 117.002 24.2048 117.21L30.6687 113.807L31.3432 113.452C31.3432 113.452 43.6542 107.803 60.2557 94.6913C60.2557 94.6913 72.598 90.7602 87.2418 83.9522C87.2418 83.9522 88.3939 83.2763 90.3347 83.1564C92.2755 83.0365 106.733 82.3625 106.733 82.3625C106.733 82.3625 107.718 82.3298 108.561 81.8859C109.404 81.442 112.777 79.6664 112.777 79.6664C112.777 79.6664 114.069 78.9858 113.42 77.7319L110.851 72.7708M89.8813 50.2313L85.1669 41.1268M89.8813 50.2313C89.4024 49.859 88.8675 49.6549 88.2765 49.4805M89.8813 50.2313C90.9517 51.0553 91.5728 52.2547 91.6315 53.6114C91.582 57.384 89.2536 60.8994 85.712 62.4865L83.1824 63.6796L80.681 64.9272L90.1378 83.1907M106.537 82.3968L91.6032 53.5569M106.537 82.3968L94.7509 82.9821M106.537 82.3968C107.155 82.3485 107.802 82.2161 108.364 81.9202L112.58 79.7007C113.311 79.316 113.59 78.4749 113.223 77.7662L102.976 57.9762M12.004 106.081C12.2296 106.378 12.5956 106.532 13.0176 106.518M9.29729 102.649L11.9478 106.11M9.29729 102.649C9.12817 102.461 9.01525 102.243 8.95854 101.995M9.29729 102.649L9.77541 102.606L12.426 106.067M11.9196 106.056L12.3978 106.012C12.4542 106.121 12.6513 106.226 12.7357 106.251M8.95854 101.995L7.65695 97.8237M8.95854 101.995L9.49312 102.06M9.49312 102.06L8.19159 97.8891M9.49312 102.06C9.5216 102.254 9.60628 102.417 9.74718 102.551M7.88027 96.8735C7.68392 97.185 7.6282 97.4919 7.74137 97.8486M8.21982 97.9436L7.68518 97.8782M8.24699 97.4436C8.19104 97.6119 8.19133 97.7505 8.24779 97.8595M28.828 107.075L31.1745 113.541C41.4046 108.293 51.0983 102.01 60.0871 94.7801M28.828 107.075L27.3666 107.844M28.828 107.075C28.517 106.198 28.2904 105.346 28.0356 104.439C27.0808 105.358 26.8582 106.725 27.4228 107.815M30.4719 113.841L27.3384 107.79M30.4719 113.841L31.1463 113.486M30.4719 113.841L24.0079 117.245M23.8953 117.165L22.6025 117.846M13.1023 106.682L13.046 106.712L13.8354 107.684L15.1619 110.107M5.9577 91.5028L6.3229 91.2411L18.7448 84.701L24.9003 81.8071L31.1968 79.1858L37.6624 76.753L44.241 74.5383L52.2258 72.1382L56.3027 71.0324L60.4079 69.9811L64.5413 68.9843L68.7029 68.0421L72.8928 67.1544L77.0827 66.2667M5.9577 91.5028L6.2954 91.6025L6.71811 92.0043M5.9577 91.5028L7.51409 96.5807M76.4948 52.2838L76.9477 53.8493L77.6554 56.3212C80.2138 55.4599 82.5457 53.8853 84.3706 51.8838M48.7114 73.2253C57.5051 66.9997 66.7501 61.5078 76.4748 56.8041L76.5877 57.0221L76.955 57.8695L77.4349 58.7963L77.4913 58.9053L77.5478 59.0144L77.576 59.0689L77.6042 59.1234M76.4466 56.7496L77.4023 56.3851L78.1071 57.1935L78.7849 58.6406C79.4057 59.7013 79.8578 60.8509 80.2538 62.03C80.6213 63.016 80.7919 64.0363 80.8219 65.0612M26.0106 104.673L23.818 105.55M23.818 105.55L16.3126 108.6M23.818 105.55C25.3908 104.167 27.3301 103.215 29.3266 102.788C49.2362 98.9666 68.6349 92.6386 87.0731 84.041M11.8841 101.981C12.4764 102.849 13.6865 103.114 14.6421 102.61C15.6538 102.078 16.1017 100.871 15.6498 99.8597M6.74635 92.0589L6.35113 91.2956M77.2233 66.262L77.7294 66.1343M7.85205 96.819L7.57028 96.5511M7.79585 96.8486L8.04919 96.9234L9.69046 102.303L13.1305 106.737L13.0742 106.766M16.2844 108.545L14.682 109.181M14.7665 109.205L15.3303 109.88M78.1511 65.9817C78.9945 65.6764 79.8097 65.3166 80.6248 64.9568M90.1378 83.1907C89.0971 83.2529 88.0287 83.538 87.0449 83.9865L77.7574 66.0502M90.1378 83.1907L92.5288 83.1113L94.0759 83.0599L94.7791 83.0366M77.7856 66.1047L78.2074 65.952M112.286 72.7786L110.851 72.7708M112.286 72.7786L178.611 37.8586C180.016 37.1187 180.576 35.4365 179.87 34.0736L173.123 21.0438L166.405 8.06862C166.066 7.4144 165.446 6.90817 164.771 6.70877C164.011 6.48445 163.28 6.59189 162.605 6.94701L96.2799 41.867L95.4663 43.0586M112.286 72.7786L111.02 72.682L110.851 72.7708M84.3706 51.8838L81.8017 46.9227C84.3049 46.6455 86.7259 47.591 88.2765 49.4805M84.3706 51.8838C85.4093 50.7125 86.7863 49.9181 88.2765 49.4805M102.976 57.9762L95.4663 43.0586M74.1653 55.2448C74.2495 55.1311 74.4181 55.0423 74.5022 54.9286M24.0362 117.299L32.3549 112.919M95.4663 43.0586L95.2976 43.1474M110.683 72.8596L110.851 72.7708M15.7345 100.023C15.1981 98.9874 13.9316 98.6136 12.8636 99.1758C11.7957 99.7381 11.376 101 11.9123 102.036C12.4487 103.071 13.7153 103.445 14.7832 102.883C15.8512 102.321 16.2426 101.005 15.7345 100.023ZM8.44189 96.3003L8.38517 96.0527L8.35668 95.8595L8.32818 95.6664L8.32792 95.5278L8.35595 95.4436L8.41214 95.414L8.49657 95.439L8.52479 95.4935L8.58126 95.6025L8.66594 95.7661L8.77886 95.9841L8.89178 96.2022L9.03292 96.4748L9.11788 96.777L9.20283 97.0791L9.28772 97.3814L9.37267 97.6835L9.42939 97.9312L9.48612 98.1789L9.51461 98.372L9.54304 98.5652L9.5433 98.7038L9.51533 98.7879L9.45914 98.8175L9.37472 98.7925L9.34649 98.738L9.29003 98.629L9.20534 98.4654L9.09242 98.2474L8.9795 98.0293L8.83836 97.7567L8.7534 97.4545L8.66845 97.1524L8.5835 96.8502L8.49855 96.548L8.44189 96.3003Z" stroke="#373A3B" stroke-width="2" stroke-miterlimit="10"/>
<path d="M20.8836 108.784L16.4005 109.467C16.06 109.507 15.7482 109.742 15.5783 109.972C15.3802 110.288 15.324 110.598 15.4382 110.96L16.7514 115.185C16.8086 115.436 16.9225 115.656 17.0932 115.847L19.7674 119.353C19.9665 119.599 20.279 119.785 20.648 119.801C21.017 119.817 21.3006 119.667 21.5272 119.407L24.6432 116.073C24.8415 115.898 24.9547 115.698 25.0394 115.442L26.7916 111.283C26.933 110.998 26.8755 110.607 26.7331 110.331C26.5907 110.055 26.3349 109.838 25.9941 109.737L21.6216 108.816L20.8836 108.784Z" stroke="#373A3B" stroke-width="2" stroke-miterlimit="10"/>
<path d="M22.8527 113.824C22.5517 114.728 21.5747 115.274 20.6398 114.979C19.7048 114.685 19.2422 113.686 19.5432 112.782C19.8442 111.878 20.8213 111.332 21.7562 111.627C22.6911 111.921 23.1538 112.92 22.8527 113.824Z" stroke="#373A3B" stroke-width="2"/>
</svg>
