<svg width="222" height="209" viewBox="0 0 222 209" fill="none" xmlns="http://www.w3.org/2000/svg">
<path d="M76.2979 30.1261L97.88 8.54399L138.965 49.6292L129.745 58.8492M129.745 58.8492C129.745 58.8492 103.397 73.3954 75.4986 79.1877C56.9893 83.224 38.7904 88.5472 21.0343 95.1187L9.04761 92.2886L34.3039 114.641L53.7134 136.954C57.4952 134.425 60.8625 131.326 63.6971 127.768C66.5728 124.079 68.8987 119.991 70.6029 115.631M129.745 58.8492C129.745 58.8492 113.822 84.8204 88.5977 97.3013C68.6407 107.178 34.2959 114.649 34.2959 114.649L50.5404 124.641M50.5404 124.641L48.9907 131.549M50.5404 124.641C50.5404 124.641 66.861 117.507 74.7632 112.491C87.1842 104.6 98.4228 91.5112 98.4228 91.5112M113.863 66.5172L102.866 55.5202C102.866 55.5202 70.6201 62.4072 50.6378 68.5456C30.6555 74.6839 9.00797 92.3442 9.00797 92.3442M33.459 76.0432C38.6612 67.1543 45.3323 59.216 53.1908 52.5633M53.1908 52.5633C65.4555 42.6112 83.0972 35.7352 83.0972 35.7352M53.1908 52.5633C55.5016 48.6881 58.1374 45.0172 61.07 41.59C65.6783 36.3118 74.7196 28.8176 74.7196 28.8176L83.0972 35.7352M83.0972 35.7352C83.0972 35.7352 107.826 38.1202 113.051 37.6799C118.276 37.2397 120.509 36.3623 120.95 37.6441C122.391 41.4182 102.859 55.5758 102.859 55.5758M28.4442 109.464L30.9631 102.064L21.0263 95.1267M34.28 114.633C34.28 114.633 42.2185 108.289 39.71 103.987C37.2014 99.6856 30.9551 102.056 30.9551 102.056" stroke="#373A3B" stroke-width="2" stroke-linecap="round" stroke-linejoin="round"/>
<path d="M174.85 87.1466C174.85 87.1466 155.999 107.037 139.276 117.038C114.011 132.092 101.692 144.744 101.692 144.744" stroke="#373A3B" stroke-width="2" stroke-linecap="round" stroke-linejoin="round"/>
<path d="M180.483 135.399C180.483 135.399 155.321 139.391 134.5 143.307C117.027 146.596 92.6092 162.994 92.6092 162.994L133.488 198.785C139.903 195.142 154.27 175.38 154.27 175.38L180.367 135.297" stroke="#373A3B" stroke-width="2" stroke-linecap="round" stroke-linejoin="round"/>
<path d="M189.687 110.318C189.687 110.318 183.787 112.57 174.349 109.157C164.017 105.422 163.262 98.406 163.262 98.406L186.948 99.4945L189.687 110.318ZM189.687 110.318C191.472 112.739 193.875 114.739 196.629 116.095C201.636 118.833 210.115 119.955 210.115 119.955" stroke="#373A3B" stroke-width="2" stroke-linecap="round" stroke-linejoin="round"/>
<path d="M150.587 109.209C150.677 102.282 152.428 95.6827 155.713 89.888C161.084 80.8531 167.873 80.0349 167.873 80.0349L186.957 99.4867L209.436 116.424L210.068 119.916C210.068 119.916 202.149 137.943 158.942 135.695C130.369 134.223 115.616 135.715 103.963 142.967C96.3926 147.686 93.6073 157.055 92.5989 163.005" stroke="#373A3B" stroke-width="2" stroke-linecap="round" stroke-linejoin="round"/>
</svg>
