<svg width="223" height="209" viewBox="0 0 223 209" fill="none" xmlns="http://www.w3.org/2000/svg">
<path d="M149.987 146.144C156.748 143.332 160.12 135.985 157.52 129.734C154.92 123.482 147.332 120.694 140.572 123.506C133.812 126.317 130.439 133.664 133.039 139.916C135.639 146.167 143.227 148.956 149.987 146.144Z" stroke="#373A3B" stroke-width="2" stroke-miterlimit="10"/>
<path d="M101.099 170.028L118.964 183.285" stroke="#373A3B" stroke-width="2" stroke-miterlimit="10"/>
<path d="M175.297 159.856L101.854 190.402C99.4847 191.387 96.9968 189.489 97.5466 187.099L113.308 112.15C113.506 111.141 114.208 110.232 115.261 109.794L188.705 79.2479C191.074 78.2625 193.562 80.1611 193.012 82.5512L177.25 157.5C177.052 158.509 176.35 159.418 175.297 159.856Z" stroke="#373A3B" stroke-width="2" stroke-miterlimit="10"/>
<path d="M151.739 150.356C160.971 146.517 165.563 136.45 161.995 127.873C158.428 119.295 148.052 115.455 138.82 119.294C129.588 123.134 124.997 133.2 128.564 141.777C132.132 150.355 142.507 154.196 151.739 150.356Z" stroke="#373A3B" stroke-width="2" stroke-miterlimit="10"/>
<path d="M116.658 55.4811L101.691 28.4455" stroke="#373A3B" stroke-width="2" stroke-miterlimit="10"/>
<path d="M129.898 32.5478L77.455 123.383C76.2137 125.533 73.2362 125.725 72.0653 123.615L23.4493 34.8708C22.2783 32.7614 23.8299 30.074 26.2422 30.0335L127.405 27.7639C129.714 27.9025 131.14 30.3979 129.898 32.5478Z" stroke="#373A3B" stroke-width="2" stroke-miterlimit="10"/>
<path d="M86.7844 68.3322C90.3263 62.1974 88.6254 54.5845 82.9853 51.3282C77.3453 48.0719 69.9019 50.4054 66.36 56.5402C62.8181 62.675 64.5189 70.2879 70.1589 73.5442C75.799 76.8005 83.2424 74.467 86.7844 68.3322Z" stroke="#373A3B" stroke-width="2" stroke-miterlimit="10"/>
</svg>
