<svg width="223" height="209" viewBox="0 0 223 209" fill="none" xmlns="http://www.w3.org/2000/svg">
<path d="M84.0295 177.96C93.706 175.22 104.545 173.823 114.678 172.662L118.607 172.216C121.457 171.911 124.277 171.568 126.916 171.25M123.224 184.354C122.131 184.646 120.962 184.922 119.708 185.19M119.708 185.19L119.359 185.274C112.281 186.814 102.883 187.681 92.9611 188.854M119.708 185.19C114.911 191.251 109.358 196.673 103.185 201.325L79.6435 172.61C85.6042 165.754 95.149 156.859 107.986 151.451M184.278 135.354C182.532 136.509 180.597 137.349 178.562 137.839M166.38 157.283L160.502 157.451L160.828 163.106L154.517 161.8L155.266 168.86L147.059 167.17M166.38 157.283L165.321 149.733L171.735 151.296L172.126 145.457L176.672 144.629L178.507 137.884L172.443 139.754L169.365 142.278L163.445 141.317M166.38 157.283L159.183 154.765L160.242 162.315L153.045 159.797L153.587 166.717L144.14 163.609M147.059 167.17L148.618 174.31M147.059 167.17L144.14 163.609M148.618 174.31L140.392 172.635M148.618 174.31L145.023 169.924M140.392 172.635L141.435 179.145M140.392 172.635L135.406 166.553M141.435 179.145L132.006 176.022M141.435 179.145L136.296 172.877M132.006 176.022L133.416 181.921M132.006 176.022L126.67 169.513M133.416 181.921L123.79 178.557L124.673 184.872L123.215 184.361M133.416 181.921L124.88 171.508M127.005 128.185L126.479 133.841L135.319 144.624M127.005 128.185L134.157 130.631L144.701 143.491M127.005 128.185L141.622 146.015M135.319 144.624L141.622 146.015M135.319 144.624L132.26 147.132M120.35 138.865L120.31 132.557M120.31 132.557L126.497 133.826M120.31 132.557L132.26 147.132M114.154 137.604L114.194 143.913L118.709 149.42M114.154 137.604L120.341 138.873L126.787 146.735M114.154 137.604L121.778 146.904M126.787 146.735L132.26 147.132M126.787 146.735L121.778 146.904M108.187 142.883L107.977 151.459L113.075 148.845M108.187 142.883L114.184 143.92M108.187 142.883L113.075 148.845M181.841 119.693L190.499 130.254M163.445 141.317L160.376 143.833M163.445 141.317L150.599 125.648M160.376 143.833L154.1 142.437M160.376 143.833L147.53 128.164M154.1 142.437L151.021 144.96M154.1 142.437L141.337 126.869M151.021 144.96L144.701 143.491M151.021 144.96L138.258 129.393M144.701 143.491L141.622 146.015M121.778 146.904L118.709 149.42M118.709 149.42L113.075 148.845M150.599 125.648L157.347 127.619L160.425 125.096C160.425 125.096 172.635 125.256 180.688 119.894C186.096 116.298 187.707 110.698 186.162 108.058C185.046 106.167 182.171 103.795 172.643 103.916C167.047 103.933 161.533 105.267 156.548 107.809M150.599 125.648L147.53 128.164M147.53 128.164L141.337 126.869M141.337 126.869L138.258 129.393M138.258 129.393L134.14 130.629L132.105 121.849L138.792 123.746L137.733 116.195L144.93 118.714L143.871 111.163L151.068 113.682L150.792 107.086L156.595 107.848L158.291 103.543C158.291 103.543 162.951 101.134 174.816 100.724C181.27 100.373 187.74 100.905 194.05 102.304C194.05 102.304 193.625 109.35 193.025 116.183C192.557 120.911 191.735 125.596 190.564 130.201L184.324 135.316M157.355 127.628L169.372 142.287M160.433 125.105L172.451 139.764M165.516 125.046L176.538 138.49M169.862 124.087L180.618 137.207M174.096 122.973L184.259 135.37M181.42 119.387L190.397 130.338M144.14 163.609L145.023 169.924M145.023 169.924L135.406 166.553M135.406 166.553L136.296 172.877M136.296 172.877L126.67 169.513M126.67 169.513L126.914 171.267M123.799 178.549L118.615 172.226M124.682 184.864L114.686 172.672" stroke="#373A3B" stroke-width="2" stroke-linecap="round" stroke-linejoin="round"/>
<path d="M107.485 39.0224L105.269 96.7719M84.2551 116.121L34.453 85.4523M28.1925 58.3363L80.2214 30.8946M115.94 86.936L121.225 65.9527L121.333 65.6423L121.492 65.3913L121.721 65.122L122.007 64.9488L122.301 64.8101L122.605 64.7036L122.93 64.6994L123.265 64.7293L133.653 67.2736L134.26 67.3843L134.904 67.3409L135.525 67.1975L136.08 66.9258L136.618 66.5891L137.056 66.1281L137.412 65.6171L137.637 65.0292L138.815 61.3172L139.022 60.3389L139.114 59.3165L139.025 58.2977L138.755 57.2861L138.354 56.341L137.831 55.4933L137.146 54.721L136.337 54.0483L135.491 53.5275L126.787 49.1663L126.532 49.0088L126.347 48.8372L126.153 48.6293L126.023 48.374L125.926 48.1094L125.871 47.8731L125.876 47.585L125.925 47.3247L126.568 44.7337L66.3886 26.7316L47.0072 32.8871L46.6612 32.967L46.3361 32.9712L45.9937 32.9086L45.7139 32.7933L45.4185 32.6107L45.1826 32.378L45.0101 32.0962L44.9032 31.7993L42.198 22.4331L41.9532 21.8464L41.6525 21.3415L41.2175 20.8696L40.7022 20.5234L40.135 20.26L39.5128 20.082L38.8851 20.047L38.2567 20.1577L31.5028 21.717L30.5187 22.015L29.6085 22.4759L28.7299 23.0731L27.9861 23.7809L27.3757 24.6014L26.893 25.5015L26.5377 26.4795L26.3301 27.4577L26.3157 28.5005L26.8141 38.0527L26.8017 38.3063L26.7179 38.5746L26.6363 38.8442L26.5027 39.055L26.3346 39.2737L26.1252 39.4637L25.899 39.5887L25.6378 39.7198L24.0158 40.2379L37.0852 96.8033L53.3801 112.228L53.5818 112.471L53.7557 112.75L53.8266 113.057L53.8625 113.371L53.8642 113.694L53.7542 114.006L53.6011 114.291L53.4082 114.551L45.862 122.274L45.4632 122.757L45.1949 123.322L45.0028 123.902L44.9291 124.53L44.9681 125.164L45.1437 125.767L45.4483 126.305L45.8145 126.795L48.4651 129.619L49.2399 130.3L50.0931 130.855L51.0284 131.284L52.0324 131.554L53.0414 131.679L54.0899 131.652L55.0957 131.456L56.0719 131.123L56.9763 130.629L65.2869 125.27L65.5463 125.14L65.781 125.051L66.0635 125.02L66.354 125.024L66.6201 125.072L66.8915 125.151L67.1442 125.307L67.3646 125.472L70.7006 128.64L115.94 86.936ZM88.144 64.3537L88.6889 65.767L89.1279 67.2029L89.431 68.6739L89.5626 70.1826L89.589 71.7175L89.4279 73.2211L89.1577 74.7173L88.7309 76.175L88.187 77.5908L87.5215 78.962L86.6899 80.2279L85.7712 81.4412L84.7276 82.5781L83.5832 83.5946L82.3364 84.4912L81.0333 85.2936L79.6637 85.9659L78.2289 86.5135L76.7214 86.896L75.2236 87.1709L73.6864 87.2751L72.1585 87.2699L70.6355 87.1199L69.1161 86.8275L67.669 86.3749L66.2325 85.8106L64.8666 85.0865L63.5889 84.2712L62.392 83.332L61.2807 82.2983L60.2883 81.1319L59.4204 79.8984L58.6511 78.6097L58.0037 77.2182L57.5298 75.7885L57.1498 74.3007L56.9145 72.8159L56.8516 71.2894L56.9032 69.7767L57.1043 68.2965L57.4535 66.8184L57.9552 65.3779L58.5781 63.9802L59.3269 62.6625L60.1931 61.3886L61.1961 60.2248L62.2907 59.1508L63.4874 58.1949L64.7382 57.3319L66.0994 56.6233L67.5187 56.0084L68.9694 55.5299L70.4597 55.2222L72.0098 55.0079L73.5185 54.9467L75.0677 55.0523L76.5721 55.2793L78.0728 55.6487L79.4956 56.1453L80.8779 56.791L82.2172 57.5576L83.4412 58.4561L84.6119 59.4397L85.6598 60.5225L86.5942 61.7367L87.4336 63.0131L88.144 64.3537ZM89.237 67.2102L88.7804 65.723L88.2187 64.2619L87.4865 62.8765L86.6188 61.5607L85.653 60.302L84.57 59.1833L83.3609 58.1665L82.1047 57.2447L80.7196 56.4542L79.2897 55.7851L77.8196 55.2746L76.2692 54.8897L74.716 54.6588L73.1121 54.5486L71.5516 54.6102L69.9519 54.8341L68.4103 55.1517L66.9112 55.6452L65.4444 56.2787L64.037 57.0114L62.7413 57.904L61.5077 58.8913L60.3761 60.0044L59.3386 61.2011L58.4424 62.5203L57.6675 63.8822L57.0265 65.3262L56.5071 66.8149L56.1461 68.3416L55.9374 69.8714L55.8866 71.4376L55.9494 73.0139L56.1925 74.5485L56.5841 76.0872L57.0767 77.5643L57.7459 79.0006L58.5393 80.3354L59.4358 81.6101L60.4642 82.8161L61.612 83.8911L62.8514 84.8646L64.172 85.7082L65.5819 86.4566L67.0592 87.0402L68.5563 87.51L70.1263 87.8137L71.6963 87.9681L73.2764 87.9746L74.8644 87.8665L76.4118 87.582L77.9716 87.1854L79.4544 86.621L80.8702 85.9247L82.2132 85.0959L83.5014 84.1706L84.684 83.1203L85.7555 81.9464L86.7034 80.6938L87.5646 79.3808L88.2526 77.9662L88.8129 76.4968L89.251 74.9887L89.5326 73.442L89.6988 71.8855L89.6724 70.3009L89.5523 68.734L89.237 67.2102ZM98.4981 63.2937L99.0076 65.1765L99.3826 67.1248L99.6076 69.0714L99.6736 71.0183L99.6065 72.9959L99.3793 74.9359L99.038 76.8639L98.537 78.7561L97.8842 80.6469L97.1014 82.4568L96.1867 84.186L95.1479 85.8673L93.9849 87.4758L92.7194 88.9893L91.3159 90.3873L89.8601 91.7246L88.2572 92.9063L86.5906 93.9955L84.8586 94.9506L83.0251 95.7817L81.1935 96.463L79.2562 97.0194L77.3272 97.4284L75.3605 97.691L73.3632 97.821L71.3695 97.8008L69.3796 97.6304L67.4368 97.34L65.4972 96.8977L63.6313 96.2928L61.7771 95.5723L60.0046 94.7239L58.2705 93.7172L56.6296 92.6163L55.1041 91.3758L53.6342 90.0517L52.3317 88.6219L51.0776 87.0947L49.9523 85.4689L48.9971 83.7656L48.1373 82.002L47.3787 80.1785L46.8004 78.3135L46.3607 76.4088L46.0548 74.4446L45.9128 72.5171L45.9009 70.5213L46.0487 68.5614L46.3554 66.6413L46.777 64.7292L47.3491 62.8207L48.0551 60.9941L48.9169 59.2024L49.8672 57.5033L50.9907 55.8733L52.2035 54.2973L53.5196 52.8448L54.9674 51.473L56.5176 50.2288L58.1299 49.0793L59.8419 48.0542L61.6249 47.1621L63.4402 46.4099L65.323 45.7837L67.2761 45.2964L69.2234 44.9579L71.2029 44.7593L73.1806 44.7104L75.1906 44.8015L77.1575 45.0136L79.0883 45.4178L81.008 45.9317L82.8814 46.5693L84.6809 47.377L86.4314 48.3129L88.1025 49.3705L89.6808 50.5241L91.1774 51.8057L92.5851 53.1845L93.8729 54.7L95.0537 56.2421L96.1143 57.9116L97.0335 59.6251L97.8358 61.4384L98.4981 63.2937ZM99.0113 65.1756L98.5017 63.2928L97.851 61.4464L97.0488 59.6331L96.1296 57.9195L95.069 56.2501L93.8882 54.7079L92.6004 53.1924L91.1926 51.8137L89.6961 50.5321L88.1178 49.3784L86.4466 48.3209L84.6962 47.385L82.8966 46.5772L81.0232 45.9396L79.1036 45.4257L77.1728 45.0215L75.2059 44.8095L73.1959 44.7184L71.2182 44.7672L69.2386 44.9659L67.2914 45.3044L65.3382 45.7917L63.4555 46.4178L61.6401 47.17L59.8572 48.0622L58.1451 49.0873L56.5328 50.2367L54.9826 51.4809L53.5348 52.8528L52.2188 54.3052L51.006 55.8812L49.8825 57.5113L48.9322 59.2104L48.0704 61.0021L47.3643 62.8287L46.7923 64.7372L46.3706 66.6493L46.064 68.5693L45.9162 70.5293L45.9281 72.525L46.0701 74.4525L46.3759 76.4168L46.8144 78.316L47.3927 80.181L48.1512 82.0044L49.0111 83.7681L49.9663 85.4714L51.0916 87.0972L52.3457 88.6244L53.6517 90.061L55.1216 91.3852L56.6471 92.6257L58.288 93.7266L60.0222 94.7332L61.7947 95.5817L63.6488 96.3022L65.5147 96.907L67.4543 97.3494L69.3971 97.6397L71.387 97.8101L73.3807 97.8303L75.378 97.7004L77.3447 97.4377L79.2737 97.0287L81.211 96.4724L83.0426 95.791L84.8762 94.96L86.6082 94.0049L88.2747 92.9157L89.8777 91.7339L91.3335 90.3966L92.7369 88.9987L94.0024 87.4852L95.1654 85.8767L96.2043 84.1953L97.1188 82.4661L97.9016 80.6563L98.5545 78.7655L99.0556 76.8733L99.3968 74.9453L99.6241 73.0053L99.6911 71.0277L99.6252 69.0807L99.4001 67.1342L99.0113 65.1756Z" stroke="#373A3B" stroke-width="2" stroke-linecap="round" stroke-linejoin="round"/>
</svg>
