<svg width="223" height="217" viewBox="0 0 223 217" fill="none" xmlns="http://www.w3.org/2000/svg">
<path d="M81.5532 91.1382L96.9179 82.2673M101.2 79.7952L136.523 59.4016L102.809 1.00777L77.8657 15.4087L74.3083 28.7158L72.3588 29.8413M68.077 32.3134L52.7123 41.1843M52.3923 106.395L46.8286 109.608L48.1033 111.816M56.8022 74.007L56.8264 74.5628L56.7906 75.1176L56.6809 75.6677L56.501 76.1989L56.2457 76.7024L55.9328 77.1679L55.5573 77.5865L55.1369 77.948L54.6679 78.2662L54.1666 78.5082L53.6383 78.6826L53.0828 78.7896L52.5233 78.8278L51.9685 78.792L51.4222 78.6682L50.891 78.4882L50.3927 78.2417L49.9272 77.9288L49.5085 77.5533L49.1331 77.129L48.8288 76.6637L48.5868 76.1624L48.4034 75.6391L48.2964 75.0837M56.7971 73.9981L56.6863 73.4567L56.5118 72.9283L56.2647 72.4181L55.9604 71.9528L55.5989 71.5323L55.1714 71.1619L54.7059 70.849L54.2024 70.5936L53.6712 70.4136L53.1301 70.2987L52.5664 70.268L52.0106 70.2922L51.4552 70.3992L50.932 70.5825L50.4307 70.8245L49.9565 71.1338L49.5272 71.5004L49.1657 71.9228L48.8529 72.3883L48.5976 72.8918L48.4126 73.4141L48.3028 73.9641L48.2671 74.519L48.3053 75.0785M82.1131 29.3852L84.2689 30.4672L86.3515 31.7101L88.3276 33.0976L101.491 55.8978L126.248 41.6048M82.1131 29.3852L80.1984 32.0101L78.3183 34.6744M82.1131 29.3852L81.9527 28.8606L81.317 26.7111L80.7228 24.7156L80.1817 22.9151L79.6887 21.3005L79.2409 19.8259L78.8514 18.5551L78.5216 17.511L78.0687 16.0275L77.9329 15.6073L77.8708 15.4176L77.8811 15.4354M99.679 71.6517L78.3272 34.6692L78.2057 34.8699L78.062 35.2378M64.5121 100.929L67.2858 99.3398L81.5443 91.1433L95.7808 82.8882M95.7808 82.8882L96.1294 82.7107L96.5618 82.4729L97.6122 81.8664L98.1946 81.5183L99.432 80.8039L100.06 80.4531L101.654 79.5331L102.067 79.2826L102.363 79.0761L102.579 78.9157L102.673 78.7903L102.655 78.7177L102.534 78.6928L102.3 78.7206L101.973 78.7909L101.543 78.9088L101.042 79.0908L100.462 79.319L99.8651 79.5805L99.2303 79.8995L98.6109 80.2453L97.9929 80.6139L97.4349 80.9836L96.9049 81.3608L96.4386 81.725L96.0309 82.0672L95.7046 82.3862L95.4534 82.6499L95.3633 82.7613L81.3501 91.0536L67.2436 99.3286L53.0759 107.58M95.7808 82.8882L95.5701 82.5232M53.0759 107.58L57.1263 114.595L56.4942 114.96M53.0759 107.58L53.0399 107.517M53.0399 107.517L53.0755 107.497M53.0399 107.517L52.3563 106.333L46.7926 109.545M53.0755 107.497L44.2603 92.2283M53.0755 107.497L53.4494 107.281L53.6223 107.169L53.7685 107.073L53.9541 106.942L54.1003 106.846L55.7568 105.213L56.84 103.388L57.3334 101.406L57.2371 99.2656L56.55 97.027M56.55 97.027L98.8253 72.6194M56.55 97.027L45.65 92.2094M98.8253 72.6194L99.0197 72.4834L99.2128 72.3244L99.4969 71.9942L99.6701 71.6568M98.8253 72.6194L77.3861 35.4856L27.4551 64.3132M114.353 21.0036L89.5972 35.2966M78.062 35.2378L77.6367 35.3646L77.395 35.4804M78.062 35.2378L74.2994 28.7209M27.4551 64.3132L25.3071 72.3314L38.661 95.461M27.4551 64.3132L30.0433 54.6521L30.1651 54.2256L42.4183 47.2225L54.6526 40.2895L66.872 33.4128L67.0134 33.3905L67.3675 33.3047L67.8016 33.1728L68.307 32.9997L68.8556 32.778L69.4472 32.5076L70.0413 32.2002L70.6747 31.8583L71.2786 31.4858L71.8723 31.0956L72.4023 30.7184L72.8901 30.3299L73.2927 29.9787L73.6152 29.6739L73.8398 29.4255L73.9805 29.2374L74.0143 29.1111L73.9605 29.059L73.8102 29.0865L73.5582 29.1845L73.2364 29.3466L72.8128 29.5792L70.5962 30.8589L69.9872 31.2225L69.3589 31.5733L67.7209 32.519L67.2988 32.7746L66.9708 32.9877M66.9708 32.9877L54.6707 40.0536L42.3823 47.1602L35.7123 51.0467M66.9708 32.9877L67.1815 33.3527M45.65 92.2094L45.2835 92.0886L44.9174 92.0507L44.5746 92.0943L44.2603 92.2283M45.65 92.2094L54.0951 106.837M44.2603 92.2283L38.661 95.461M38.661 95.461L46.7926 109.545M46.7926 109.545L46.8337 109.617M51.6712 106.812L55.3772 113.231M51.6801 106.807L55.5249 113.466M51.2795 107.038L52.5543 109.246M52.5543 109.246L48.1033 111.816M52.5543 109.246L52.7234 109.148L57.1439 115.962L57.1799 116.024L57.2032 116.106L57.2214 116.178L57.2077 116.257L57.1889 116.328L57.1612 116.403L57.1232 116.46L57.0623 116.519L57.0051 116.564L52.2158 119.329M48.1033 111.816L47.9342 111.913L51.6247 119.148L51.6658 119.22L51.7196 119.272L51.7823 119.318L51.8487 119.351L51.9189 119.37L51.9981 119.384L52.0758 119.375L52.1484 119.356L52.2107 119.32M34.9396 89.0154L34.7705 89.113L30.3448 82.2905L30.3089 82.2282L30.2907 82.1556L30.2814 82.0778L30.281 81.9949L30.2998 81.9247L30.3276 81.8494L30.3744 81.7867L30.4265 81.7329L30.6579 81.5993M54.3105 79.6003L55.7872 78.807L56.9484 77.5906L57.6735 76.0917L57.9006 74.4293L57.6038 72.7845L56.8105 71.3076L55.608 70.1501L54.0951 69.421L52.4328 69.1937L50.7881 69.4904L49.3114 70.2837L48.1591 71.495L47.4251 72.999L47.198 74.6614L47.4948 76.3062L48.2881 77.7831L49.4995 78.9355L51.0034 79.6697L52.6658 79.897L54.3105 79.6003ZM51.9299 69.6384L52.8752 70.0423L53.9188 70.4725L55.393 71.0933L55.9461 71.3319L56.489 71.5526L56.6147 72.5721L56.7562 73.7012L56.9571 75.2827L57.1014 76.4577L56.7621 76.7129L56.4102 76.9873L56.0798 77.2374L55.4012 77.7479L55.0404 78.0274L54.6833 78.2929L54.3314 78.5674L53.9743 78.8329L53.6223 79.1073L53.1687 79.4523L52.2145 79.0536L51.1746 78.6093L49.7056 77.9974L48.6096 77.5381L48.4839 76.5186L48.3424 75.3895L47.9921 72.6241L48.4419 72.2932L48.7761 72.029L49.1243 71.7687L49.4902 71.498L49.8637 71.1993L50.5423 70.6888L50.8905 70.4284L51.2298 70.1732L51.5817 69.8988L51.9299 69.6384ZM54.8324 80.5453L56.4324 79.6572L57.7219 78.3548L58.5829 76.7418L58.9638 74.9551L58.8128 73.1311L58.1625 71.4292L57.0569 69.9665L55.587 68.8802L53.8642 68.2605L52.0519 68.1435L50.2662 68.5454L48.6662 69.4335L47.3767 70.7359L46.5157 72.3489L46.1437 74.1305L46.2807 75.9507L46.9361 77.6615L48.0366 79.1153L49.5064 80.2016L51.2254 80.8354L53.0467 80.9472L54.8324 80.5453ZM57.8694 85.6412L59.9929 84.344L61.8162 82.6503L63.2503 80.6115L64.26 78.3311L64.7858 75.8908L64.8116 73.4068L64.3289 70.9672L63.3661 68.6623L61.9671 66.6092L60.1731 64.8792L58.0709 63.5407L55.7426 62.6533L53.2826 62.2574L50.8019 62.3602L48.3834 62.9612L46.1366 64.0447L44.1454 65.5504L42.5078 67.4218L41.2795 69.591L40.5099 71.9584L40.2392 74.4294L40.4672 76.9212L41.1995 79.2998L42.3811 81.4902L43.9872 83.3881L45.9449 84.9287L48.1672 86.0435L50.5735 86.6959L53.0553 86.8418L55.5209 86.4867L57.8694 85.6412ZM42.4014 83.4372L40.8629 81.2865L39.7696 78.8789L39.1728 76.3033L39.0832 73.6605L39.5253 71.0549L40.4501 68.5861L41.8437 66.3333L43.6533 64.4101L45.8036 62.8718L48.2199 61.7735L50.7902 61.168L53.438 61.0875L56.0473 61.5159L58.5161 62.4409L60.76 63.84L62.6921 65.6446L64.2305 67.7953L65.3238 70.2029L65.9206 72.7784L66.0103 75.4213L65.5821 78.0307L64.6485 80.5046L63.2497 82.7485L61.4453 84.6806L59.286 86.224L56.8786 87.3172L54.3033 87.9138L51.6606 88.0032L49.0602 87.5697L46.5774 86.6409L44.3335 85.2418L42.4014 83.4372ZM56.6808 86.7073L58.9674 85.672L61.0161 84.2043L62.7431 82.3644L64.0696 80.2216L64.9554 77.8702L65.3675 75.3769L65.281 72.8629L64.7102 70.4147L63.6786 68.1139L62.2019 66.0701L60.3671 64.3517L58.2331 63.0198L55.8729 62.1389L53.3886 61.7214L50.8747 61.8077L48.4178 62.3834L46.1223 63.4238L44.0825 64.8864L42.3555 66.7263L41.0238 68.8602L40.1432 71.2205L39.726 73.7049L39.8125 76.2189L40.3832 78.6671L41.4238 80.9627L42.8916 83.0117L44.7264 84.73L46.8604 86.062L49.2257 86.9518L51.7049 87.3604L54.2239 87.283L56.6808 86.7073Z" stroke="#373A3B" stroke-width="2" stroke-linecap="round" stroke-linejoin="round"/>
<path d="M161.188 108.54L161.187 108.411M139.274 110.428L139.256 110.207M157.78 124.295L161.104 111.683M142.757 86.66C142.715 86.6981 130.933 103.762 130.933 103.762C129.612 105.59 127.933 107.13 125.997 108.286M98.0428 193.238L159.454 155.94M148 108.207L147.827 105.919M147.472 109.808L147.994 108.198M153.049 109.215C153.047 109.191 152.538 108.672 152.538 108.672L151.375 107.438M151.375 107.438L151.202 105.15M151.375 107.438L149.686 107.83M147.966 108.215L149.657 107.847M149.714 107.877C149.208 107.991 148.739 108.231 148.35 108.575C147.962 108.919 147.668 109.357 147.495 109.846M149.709 107.868C150.218 107.756 150.748 107.775 151.248 107.924C151.748 108.073 152.201 108.346 152.566 108.719C152.738 108.937 152.882 109.175 152.997 109.428M158.243 124.014L161.48 111.791M160.505 103.432C156.448 95.9617 145.711 95.3819 140.56 102.003M135.249 118.435L138.486 106.212M157.775 124.35C157.93 124.237 158.094 124.137 158.266 124.052M138.898 106.401C138.78 106.324 138.647 106.273 138.509 106.25M138.898 106.401L135.569 119.004M138.898 106.401C143.342 92.2677 164.198 96.9462 161.137 111.779M135.559 119.01C135.469 118.828 135.363 118.654 135.244 118.49M139.044 107.089L138.883 106.333M139.032 107.07L136.036 118.41C135.881 118.588 135.716 118.757 135.542 118.917M157.974 123.337L158.015 123.403M156.376 122.962L157.951 123.299M155.295 118.923C155.56 119.849 156.147 121.989 156.41 122.89M137.474 119.011L141.115 115.506M143.677 86.3858C144.172 86.4989 150.15 88.3138 155.572 89.6387C160.016 90.7167 165.956 91.8303 166.437 91.8998L167.571 92.1687L167.86 92.3037C167.953 92.3829 168.028 92.4807 168.082 92.5908C168.135 92.7008 168.165 92.8207 168.17 92.943L167.822 94.8619M143.425 86.3966C143.425 86.3966 143.425 86.3967 143.368 86.4311C143.175 86.4908 143 86.5972 142.858 86.741M143.471 86.4722L143.742 86.5144M155.906 151.161L154.199 150.607C140.586 157.84 123.936 166.012 108.159 161.754C102.541 158.005 97.3081 153.709 92.5356 148.93C87.0145 134.084 101.544 121.417 112.367 113.68M155.93 151.095L159.744 149.089M92.5829 148.901L76.9726 158.382L65.6931 139.803M98.1491 193.264L86.8695 174.684L108.206 161.725M158.067 156.872L154.166 150.446M86.7892 174.552L76.8923 158.25M155.85 150.962C156.49 152.656 157.347 155.046 157.987 156.74M171.176 107.118L171.522 118.937C169.268 127.239 166.716 136.201 164.089 144.38C163.328 146.705 162.277 149.917 161.349 152.201C160.801 153.259 160.383 155.233 159.298 155.853C158.607 153.841 159.489 151.055 159.664 148.957M160.543 88.6243C158.851 86.6897 155.756 86.1507 152.865 87.9713M159.701 148.934C159.701 148.934 170.638 111.558 170.928 110.438M115.712 113.459C111.65 112.861 108.244 113.791 104.03 116.351L65.6563 139.657M128.57 116.593L116.675 113.703L115.718 113.469M157.873 123.851C155.276 123.216 138.897 119.246 135.917 118.534M117.397 113.38L125.953 108.3M170.658 100.706L171.15 107.224C171.256 108.347 171.159 109.479 170.864 110.567M117.432 113.372C117.176 113.527 116.874 113.711 116.628 113.86M170.727 96.8355C170.74 97.065 170.703 97.2946 170.621 97.509C170.538 97.7235 170.411 97.9179 170.247 98.0796C170.084 98.2412 169.888 98.3663 169.672 98.4466C169.457 98.5269 169.227 98.5607 168.998 98.5456L168.23 98.4947M139.403 91.297C139.207 91.1957 139.036 91.0535 138.9 90.8801C138.765 90.7068 138.668 90.5063 138.616 90.2923C138.565 90.0782 138.56 89.8556 138.602 89.6395C138.644 89.4234 138.732 89.2188 138.86 89.0397C140.633 86.5272 145.889 79.1438 147.652 76.6371L160.273 67.8339C160.461 67.7025 160.675 67.6127 160.901 67.5701C161.127 67.5276 161.359 67.5335 161.582 67.5873C161.806 67.6411 162.015 67.7417 162.197 67.8824C162.378 68.023 162.528 68.2006 162.636 68.4034L169.234 81.871C169.437 84.335 170.419 94.4744 170.666 96.7561M164.516 88.5652L166.373 91.9001M145.036 86.7502L148.381 84.7186C148.605 82.7592 149.491 80.9348 150.892 79.5474C152.293 78.1599 154.126 77.2926 156.088 77.0889L159.903 71.0594C159.987 70.9014 160.122 70.776 160.285 70.7029C160.449 70.6298 160.632 70.6132 160.806 70.6558C160.98 70.6983 161.135 70.7975 161.246 70.9378C161.358 71.078 161.419 71.2514 161.421 71.4306M161.376 71.4194L161.674 78.43C163.287 79.514 164.462 81.1354 164.991 83.0053C165.52 84.8753 165.368 86.8723 164.562 88.6408M158.437 90.162C159.44 89.8544 160.319 89.235 160.946 88.3936C161.573 87.5522 161.915 86.5329 161.923 85.4837C161.93 84.4345 161.603 83.4102 160.989 82.5597C160.375 81.7092 159.505 81.0769 158.507 80.7546C153.625 79.3604 149.611 84.9548 153.099 88.8897M151.943 86.8366C152.601 82.4017 159.736 81.1595 161.847 84.9994M168.123 101.599L169.51 101.52C169.824 101.504 170.12 101.369 170.338 101.143C170.556 100.917 170.68 100.616 170.685 100.302L170.71 96.8716M140.574 101.982C139.687 103.28 138.989 104.697 138.499 106.191M160.518 103.411C161.804 106 162.148 108.955 161.493 111.77C161.372 111.74 161.223 111.688 161.108 111.732M164.851 126.313L168.368 114.359L167.79 94.8943L165.248 91.4321L146.003 86.6806L141.124 89.1906L133.528 101.539L128.396 117.372L164.851 126.313ZM142.95 117.379C144.327 118.492 145.945 119.266 147.675 119.639C149.406 120.013 151.199 119.975 152.912 119.53C154.625 119.084 156.21 118.243 157.539 117.074C158.868 115.905 159.905 114.441 160.566 112.799C163.753 103.413 153.92 95.6737 145.276 99.863C143.707 100.632 142.353 101.777 141.332 103.195C140.312 104.613 139.658 106.261 139.427 107.993C139.197 109.725 139.397 111.487 140.011 113.123C140.624 114.758 141.632 116.217 142.945 117.37L142.95 117.379ZM147.739 111.483C151.635 113.98 156.142 109.432 153.104 105.728C149.039 102.014 143.429 107.75 147.761 111.456L147.739 111.483ZM146.777 109.131C147.496 110.006 148.277 110.828 149.112 111.593C150.272 111.453 151.414 111.193 152.52 110.817C152.876 109.889 153.282 108.556 153.565 107.595C152.725 106.835 151.945 106.012 151.23 105.133C150.126 105.516 148.983 105.777 147.821 105.91C147.563 106.869 147.12 108.185 146.777 109.131Z" stroke="#373A3B" stroke-width="2" stroke-linecap="round" stroke-linejoin="round"/>
</svg>
