<svg width="223" height="209" viewBox="0 0 223 209" fill="none" xmlns="http://www.w3.org/2000/svg">
<path d="M115.116 190.092L187.588 139.142L189.252 137.972L157.737 93.5605L82.183 146.678" stroke="#373A3B" stroke-width="2" stroke-miterlimit="10" stroke-linecap="round" stroke-linejoin="round"/>
<path d="M154.591 96.2473L185.45 139.894" stroke="#373A3B" stroke-width="2" stroke-miterlimit="10" stroke-linecap="round" stroke-linejoin="round"/>
<path d="M179.926 84.4116L179.892 86.81C179.908 87.6472 180.485 88.3441 181.358 88.4092L182.723 88.4681C183.556 88.4766 184.233 87.9161 184.273 87.0402L184.377 85.4402" stroke="#373A3B" stroke-width="2" stroke-miterlimit="10" stroke-linecap="round" stroke-linejoin="round"/>
<path d="M194.132 76.5928C194.132 76.5928 203.021 88.879 204.635 91.3839C206.008 93.55 203.605 100.738 202.926 102.569C202.826 102.893 202.646 103.104 202.371 103.298L197.969 106.391C189.439 112.384 194.638 123.539 194.638 123.539L199.488 130.37L189.803 137.175L179.726 123.1L179.451 123.294L168.067 107.261L168.342 107.067L158.481 93.1796L170.257 84.9053L169.547 78.2121L174.279 74.8869" stroke="#373A3B" stroke-width="2" stroke-miterlimit="10" stroke-linecap="round" stroke-linejoin="round"/>
<path d="M201.966 86.8983L185.089 98.831" stroke="#373A3B" stroke-width="2" stroke-miterlimit="10" stroke-linecap="round" stroke-linejoin="round"/>
<path d="M168.773 86.1619L175.348 95.4309C175.348 95.4309 175.801 95.9542 176.672 96.6044C177.717 97.3848 179.33 98.2713 181.37 98.6046C185.047 99.0495 189.131 98.4502 191.203 101.371C192.279 102.888 193.753 104.967 193.753 104.967C195.038 107.01 195.019 108.37 194.046 111.16" stroke="#373A3B" stroke-width="2" stroke-miterlimit="10" stroke-linecap="round" stroke-linejoin="round"/>
<path d="M176.521 96.6351L176.994 101.184L168.211 107.367" stroke="#373A3B" stroke-width="2" stroke-miterlimit="10" stroke-linecap="round" stroke-linejoin="round"/>
<path d="M176.986 101.081L188.249 116.986L193.199 119.711" stroke="#373A3B" stroke-width="2" stroke-miterlimit="10" stroke-linecap="round" stroke-linejoin="round"/>
<path d="M188.206 116.995L179.376 123.238" stroke="#373A3B" stroke-width="2" stroke-miterlimit="10" stroke-linecap="round" stroke-linejoin="round"/>
<path d="M179.914 84.1762L179.836 86.8552C179.852 87.6907 180.428 88.3862 181.299 88.4512L182.661 88.51C183.493 88.5185 184.168 87.9593 184.208 87.0851" stroke="#373A3B" stroke-width="2" stroke-miterlimit="10" stroke-linecap="round" stroke-linejoin="round"/>
<path d="M182.689 86.7807L182.8 86.7018" stroke="#373A3B" stroke-width="2" stroke-miterlimit="10" stroke-linecap="round" stroke-linejoin="round"/>
<path d="M194.773 76.4803L194.803 76.2905L194.793 76.0444L194.822 75.8546L194.742 75.7419L194.583 75.5167" stroke="#373A3B" stroke-width="2" stroke-miterlimit="10" stroke-linecap="round" stroke-linejoin="round"/>
<path d="M194.456 76.868L194.567 76.7891" stroke="#373A3B" stroke-width="2" stroke-miterlimit="10" stroke-linecap="round" stroke-linejoin="round"/>
<path d="M194.617 75.5161L187.062 62.5428" stroke="#373A3B" stroke-width="2" stroke-miterlimit="10" stroke-linecap="round" stroke-linejoin="round"/>
<path d="M185.376 62.2346L185.652 62.0407L185.858 61.981L186.104 61.9779L186.295 62.0136L186.541 62.0105L186.812 62.1595L186.892 62.2727L187.094 62.5558" stroke="#373A3B" stroke-width="2" stroke-miterlimit="10" stroke-linecap="round" stroke-linejoin="round"/>
<path d="M182.821 86.7015L194.434 76.868" stroke="#373A3B" stroke-width="2" stroke-miterlimit="10" stroke-linecap="round" stroke-linejoin="round"/>
<path d="M186.21 83.7983L194.33 76.9474" stroke="#373A3B" stroke-width="2" stroke-miterlimit="10" stroke-linecap="round" stroke-linejoin="round"/>
<path d="M194.457 76.8684L194.765 76.4805" stroke="#373A3B" stroke-width="2" stroke-miterlimit="10" stroke-linecap="round" stroke-linejoin="round"/>
<path d="M185.193 62.2479L173.859 71.9071C173.017 72.5838 173.635 73.3374 173.635 73.3374L181.292 86.4505C181.719 87.1684 182.392 86.9506 182.392 86.9506L182.858 86.7925" stroke="#373A3B" stroke-width="2" stroke-miterlimit="10" stroke-linecap="round" stroke-linejoin="round"/>
<path d="M180.787 76.876C182.194 78.8577 184.865 79.3573 186.797 78.0001C188.728 76.6429 189.148 73.9718 187.741 71.9901C186.334 70.0084 183.662 69.5087 181.731 70.8659C179.854 72.1844 179.379 74.8943 180.787 76.876Z" stroke="#373A3B" stroke-width="2" stroke-miterlimit="10" stroke-linecap="round" stroke-linejoin="round"/>
<path d="M163.119 124.497C163.119 124.497 148.305 114.273 149.22 120.87C150.136 127.467 162.227 146.587 154.996 140.743C147.765 134.899 136.212 126.364 135.966 130.321C135.744 134.024 146.92 154.682 140.446 150.325C134.172 146.115 124.313 135.947 123.234 140.123C122.13 144.554 131.367 158.129 127.314 155.763C123.261 153.398 114.868 144.914 115.479 148.399C115.479 148.399 121.261 160.523 117.999 158.835C114.984 157.256 109.505 152.782 110.542 155.837C111.105 157.562 113.239 162.137 111.414 161.531C110.629 161.24 106.418 157.832 106.657 159.824" stroke="#373A3B" stroke-width="2" stroke-miterlimit="10" stroke-linecap="round" stroke-linejoin="round"/>
<path d="M106.839 7.93993L41.8366 55.9612L40.3442 57.0637L75.7447 104.548L143.512 54.4841" stroke="#373A3B" stroke-width="2" stroke-miterlimit="10" stroke-linecap="round" stroke-linejoin="round"/>
<path d="M43.8014 55.0064L78.8713 102.062L67.3323 110.589C64.9307 112.364 61.4574 111.847 59.5714 109.317L56.4281 105.099C55.1259 103.352 53.3278 102.158 51.2856 101.612L49.8057 101.21C47.7635 100.664 45.9204 99.4099 44.6631 97.7229C43.4058 96.0359 42.7342 93.9161 42.8455 91.8717L42.8886 90.345C42.955 88.2403 42.3283 86.1807 41.071 84.4937L37.2093 79.3122C35.0539 76.4202 33.3534 73.2854 32.0493 69.9512L30.6378 66.2291C30.4094 65.557 30.6086 64.8492 31.1943 64.4164L43.8463 55.0667L43.8014 55.0064Z" stroke="#373A3B" stroke-width="2" stroke-miterlimit="10" stroke-linecap="round" stroke-linejoin="round"/>
<path d="M33.6971 74.5671L15.4343 88.0582C14.1932 88.9751 13.5095 90.5168 13.6297 92.0302L14.1102 98.0837C14.1495 98.9971 14.516 99.8573 15.0597 100.587L22.717 110.857" stroke="#373A3B" stroke-width="2" stroke-miterlimit="10" stroke-linecap="round" stroke-linejoin="round"/>
<path d="M48.8083 120.394L61.48 110.985" stroke="#373A3B" stroke-width="2" stroke-miterlimit="10" stroke-linecap="round" stroke-linejoin="round"/>
<path d="M42.4598 112.158L48.8196 120.687C49.4511 121.534 49.6256 122.624 49.2353 123.569L42.055 141.348C41.9098 141.643 41.4215 141.723 41.2411 141.481L29.7392 126.056C29.243 125.391 29.0411 124.508 29.2098 123.633L29.9394 119.717" stroke="#373A3B" stroke-width="2" stroke-miterlimit="10" stroke-linecap="round" stroke-linejoin="round"/>
<path d="M32.4852 109.015C33.6899 108.125 33.9178 106.399 32.9943 105.161C32.0707 103.922 30.3453 103.64 29.1406 104.529C27.9359 105.419 27.7079 107.145 28.6315 108.383C29.5551 109.622 31.2805 109.904 32.4852 109.015Z" stroke="#373A3B" stroke-width="2" stroke-miterlimit="10" stroke-linecap="round" stroke-linejoin="round"/>
<path d="M35.5599 113.136C38.9787 110.611 39.6256 105.715 37.0046 102.2C34.3836 98.6857 29.4874 97.8835 26.0686 100.409C22.6497 102.934 22.0029 107.83 24.6239 111.345C27.2448 114.859 32.141 115.662 35.5599 113.136Z" stroke="#373A3B" stroke-width="2" stroke-miterlimit="10" stroke-linecap="round" stroke-linejoin="round"/>
<path d="M39.6696 127.521L42.392 126.165L43.6308 124.407L42.0833 105.234L34.7544 90.5191C34.134 89.1985 32.5605 88.6757 31.2649 89.2583L18.3576 95.5164C17.107 96.1593 16.649 97.6211 17.2243 98.8814L24.1423 113.9L37.9336 127.025L39.6696 127.521Z" stroke="#373A3B" stroke-width="2" stroke-miterlimit="10" stroke-linecap="round" stroke-linejoin="round"/>
<path d="M42.4124 126.204C39.8122 120.642 38.9286 115.308 39.574 109.218L38.2974 101.649L33.4273 92.4312C33.1262 91.9053 32.4731 91.6394 31.9589 91.9257L19.0055 98.2219C18.4912 98.5082 18.3055 99.1132 18.5029 99.6222L22.6966 109.152L27.2521 115.141C32.3433 118.676 36.2712 122.603 39.5441 127.482" stroke="#373A3B" stroke-width="2" stroke-miterlimit="10" stroke-linecap="round" stroke-linejoin="round"/>
<path d="M31.5067 89.3695L32.2266 91.9189" stroke="#373A3B" stroke-width="2" stroke-miterlimit="10" stroke-linecap="round" stroke-linejoin="round"/>
<path d="M35.0059 90.5783L33.6929 92.4033" stroke="#373A3B" stroke-width="2" stroke-miterlimit="10" stroke-linecap="round" stroke-linejoin="round"/>
<path d="M18.4165 95.8429L19.0782 98.4367" stroke="#373A3B" stroke-width="2" stroke-miterlimit="10" stroke-linecap="round" stroke-linejoin="round"/>
<path d="M17.2407 99.2229L18.5331 99.8584" stroke="#373A3B" stroke-width="2" stroke-miterlimit="10" stroke-linecap="round" stroke-linejoin="round"/>
<path d="M38.448 101.554L42.1678 105.219" stroke="#373A3B" stroke-width="2" stroke-miterlimit="10" stroke-linecap="round" stroke-linejoin="round"/>
<path d="M39.6162 109.127L42.6839 112.157" stroke="#373A3B" stroke-width="2" stroke-miterlimit="10" stroke-linecap="round" stroke-linejoin="round"/>
<path d="M22.625 109.398L24.0021 114.169" stroke="#373A3B" stroke-width="2" stroke-miterlimit="10" stroke-linecap="round" stroke-linejoin="round"/>
<path d="M27.1388 115.331L27.8587 117.88" stroke="#373A3B" stroke-width="2" stroke-miterlimit="10" stroke-linecap="round" stroke-linejoin="round"/>
<path d="M67.7464 71.7665C67.7464 71.7665 81.9192 80.9756 80.7798 74.8625C79.6404 68.7495 67.5971 51.2189 74.5527 56.5072C81.5082 61.7956 92.5854 69.4998 92.6385 65.8168C92.6806 62.3709 81.4171 43.3933 87.6054 47.3148C93.6021 51.1027 103.182 60.3577 103.997 56.4554C104.824 52.3161 95.6689 39.8823 99.5274 42.0005C103.386 44.1187 111.534 51.8372 110.814 48.6106C110.814 48.6106 104.924 37.4568 108.019 38.9617C110.882 40.3696 116.154 44.4194 115.059 41.6003C114.46 40.0084 112.282 35.7984 113.999 36.3259C114.739 36.5806 118.79 39.6649 118.48 37.8176" stroke="#373A3B" stroke-width="2" stroke-miterlimit="10" stroke-linecap="round" stroke-linejoin="round"/>
</svg>
