<svg width="320" height="31" viewBox="0 0 320 31" fill="none" xmlns="http://www.w3.org/2000/svg">
<path d="M297.511 4.83316H299.715C300.3 4.80394 300.881 4.94251 301.39 5.23275C301.9 5.52298 302.317 5.95295 302.593 6.47261C303.141 7.42474 303.684 8.38085 304.221 9.34091L304.765 10.302C305.663 11.8889 306.559 13.4708 307.451 15.0478C307.501 15.137 307.548 15.2293 307.599 15.3304L307.667 15.4643C307.699 15.5253 307.724 15.5903 307.741 15.6577L312.575 24.3578C313.073 25.2326 313.565 26.1084 314.052 26.9851C315.38 26.9851 316.707 26.9851 318.035 26.9851H320L305.867 2.0452C305.544 1.41346 305.049 0.887286 304.44 0.528006C303.831 0.168727 303.133 -0.00885529 302.428 0.0159619C300.724 0.0159619 299.02 0.0159619 297.316 0.0159619H294.639C293.303 0.0159619 292.408 0.551536 291.728 1.7536C288.499 7.47533 285.192 13.2804 281.995 18.895C280.839 20.9242 279.685 22.9524 278.532 24.9797L277.392 26.9851H283.354C284.075 25.7057 284.811 24.3876 285.597 22.9624L289.568 15.7232C289.587 15.6376 289.616 15.5547 289.654 15.4762L289.719 15.3572C289.766 15.262 289.811 15.1727 289.861 15.0864C290.332 14.2454 290.804 13.4033 291.276 12.5603C292.349 10.6471 293.457 8.67144 294.527 6.72552C295.203 5.50858 296.161 4.87779 297.375 4.84803H297.467" fill="#373A3B"/>
<path d="M298.87 22.4803C298.428 22.4803 297.996 22.6123 297.629 22.8594C297.262 23.1066 296.975 23.4579 296.806 23.8689C296.637 24.28 296.593 24.7323 296.679 25.1686C296.765 25.6049 296.978 26.0058 297.291 26.3203C297.603 26.6349 298.001 26.8492 298.434 26.9359C298.868 27.0227 299.317 26.9782 299.725 26.808C300.133 26.6377 300.482 26.3494 300.728 25.9795C300.973 25.6096 301.104 25.1746 301.104 24.7298C301.104 24.4342 301.047 24.1416 300.935 23.8685C300.823 23.5954 300.658 23.3473 300.451 23.1383C300.243 22.9294 299.997 22.7637 299.725 22.6508C299.454 22.5379 299.164 22.4799 298.87 22.4803Z" fill="#373A3B"/>
<path d="M181.86 0.0814226H181.691C181.072 0.103349 180.486 0.366397 180.056 0.815143C179.625 1.26389 179.385 1.86329 179.385 2.48704C179.385 3.1108 179.625 3.7102 180.056 4.15894C180.486 4.60769 181.072 4.87074 181.691 4.89266H181.86C182.479 4.87074 183.065 4.60769 183.495 4.15894C183.926 3.7102 184.166 3.1108 184.166 2.48704C184.166 1.86329 183.926 1.26389 183.495 0.815143C183.065 0.366397 182.479 0.103349 181.86 0.0814226Z" fill="#373A3B"/>
<path d="M177.501 22.1382H176.969C175.991 22.1382 175.114 21.7038 174.289 20.8409C174.183 20.7308 174.077 20.6118 173.964 20.4809C172.741 19.0626 171.521 17.6423 170.303 16.2201C166.781 12.12 163.138 7.88891 159.533 3.72333C158.788 2.88589 157.956 2.13083 157.051 1.47094C155.81 0.545582 154.274 0.0843958 152.347 0.0605925C151.334 0.0605925 150.255 0.0427407 148.849 0.0427407H145.412V26.9881H150.341V5.86265C150.341 5.641 150.419 5.42664 150.562 5.25812C150.705 5.08959 150.903 4.97795 151.121 4.94325C151.445 4.8911 151.773 4.86424 152.102 4.86292C152.797 4.85404 153.484 5.00612 154.111 5.30741C154.738 5.60871 155.288 6.05116 155.718 6.60056C157.134 8.3144 158.608 10.0342 160.035 11.6945C160.561 12.3074 161.086 12.9213 161.61 13.5363C162.418 14.4805 163.224 15.4256 164.027 16.3718C166.096 18.8117 168.253 21.3378 170.392 23.8104C171.172 24.7512 172.14 25.516 173.233 26.0548C174.326 26.5936 175.52 26.8944 176.736 26.9375C177.989 26.9911 179.274 26.997 180.518 27H181.798C182.566 27 183.331 27 184.111 27H184.253V22.1352H177.501V22.1382Z" fill="#373A3B"/>
<path d="M38.3534 4.51181C38.796 4.5124 39.2287 4.3808 39.5969 4.13367C39.9652 3.88653 40.2523 3.53496 40.4221 3.12344C40.5918 2.71193 40.6365 2.25895 40.5506 1.82184C40.4646 1.38472 40.2518 0.9831 39.9391 0.6678C39.6264 0.3525 39.2278 0.137684 38.7938 0.0505337C38.3599 -0.0366167 37.91 0.00782079 37.5011 0.178211C37.0922 0.348601 36.7427 0.637287 36.4968 1.00776C36.2509 1.37822 36.1196 1.81382 36.1196 2.25943C36.1196 2.85629 36.3548 3.42873 36.7737 3.85105C37.1925 4.27337 37.7607 4.51103 38.3534 4.51181Z" fill="#373A3B"/>
<path d="M55.9848 0.0189323C55.2609 1.29539 54.5251 2.61648 53.7391 4.0417L49.7679 11.2809C49.7503 11.3671 49.7205 11.4503 49.6792 11.5278L49.6201 11.6469C49.5699 11.7421 49.5256 11.8313 49.4783 11.9146L48.057 14.4497C46.9874 16.3599 45.8793 18.3326 44.8067 20.2785C44.1301 21.4955 43.1727 22.1263 41.9583 22.156H39.5147C38.9514 22.1607 38.3977 22.0101 37.9133 21.7206C37.4289 21.4311 37.0324 21.0137 36.7667 20.5136C36.2171 19.5615 35.6764 18.6034 35.1356 17.6453L34.1133 15.8422L31.906 11.9385C31.8558 11.8492 31.8085 11.757 31.7583 11.6558L31.6903 11.5219C31.6576 11.4609 31.6328 11.3959 31.6165 11.3285L26.7854 2.63433C26.286 1.7417 25.7866 0.881804 25.2932 0.00108055C23.9635 0.00108055 22.6358 0.00108055 21.3101 0.00108055H19.3451L27.8639 15.0299C27.9431 15.17 27.9848 15.3284 27.9848 15.4896C27.9848 15.6508 27.9431 15.8093 27.8639 15.9493C27.0582 17.3854 26.2535 18.8256 25.4498 20.2696C24.7731 21.4866 23.8158 22.1173 22.6013 22.1471H20.1577C19.5944 22.1521 19.0405 22.0017 18.5561 21.7121C18.0716 21.4226 17.6752 21.005 17.4097 20.5047C16.8601 19.5525 16.3194 18.5945 15.7787 17.6364L15.235 16.6753L12.5491 11.9414C12.4988 11.8522 12.4516 11.7599 12.4013 11.6588L12.3304 11.5249C12.2999 11.4632 12.2761 11.3983 12.2595 11.3315L7.42544 2.63433C6.92706 1.75955 6.43459 0.882798 5.94803 0.00405887C4.61837 0.00405887 3.29067 0.00405887 1.96495 0.00405887H0L6.29374 11.1053C8.90973 15.7172 11.5228 20.3301 14.1329 24.944C14.4518 25.5752 14.9421 26.1024 15.5467 26.4642C16.1514 26.826 16.8455 27.0077 17.5486 26.9881C19.2526 26.9881 20.9565 26.9881 22.6604 26.9881H25.3375C26.6731 26.9881 27.5684 26.4525 28.248 25.2505C28.7148 24.4233 29.1837 23.5961 29.6545 22.769L30.1361 21.915C30.2165 21.7721 30.3331 21.6531 30.474 21.5704C30.615 21.4877 30.7752 21.4441 30.9383 21.4441C31.1015 21.4441 31.2617 21.4877 31.4026 21.5704C31.5436 21.6531 31.6602 21.7721 31.7406 21.915L33.4632 24.9559C33.7856 25.5886 34.2803 26.1158 34.8894 26.4757C35.4985 26.8356 36.1968 27.0134 36.9026 26.9881C38.6085 26.9881 40.3125 26.9881 42.0144 26.9881H44.6915C46.0271 26.9881 46.9253 26.4525 47.602 25.2505C50.8316 19.5287 54.138 13.7237 57.3351 8.11207C58.4895 6.08283 59.6438 4.0536 60.7982 2.02437C61.1793 1.35788 61.5576 0.691382 61.9387 0.0159631H60.0092C58.6658 0.0159631 57.3223 0.0159631 55.9789 0.0159631" fill="#373A3B"/>
<path d="M213.06 0.0278673V4.61893H240.344C240.549 4.61979 240.748 4.68905 240.909 4.81586C241.071 4.94268 241.186 5.11987 241.236 5.31965C241.287 5.51944 241.271 5.73051 241.189 5.91979C241.108 6.10906 240.967 6.26582 240.787 6.3655L217.338 19.2014C216.209 19.766 215.167 20.4916 214.244 21.3556C213.358 22.2483 212.932 23.1409 212.918 24.1287C212.918 24.9738 212.918 25.8366 212.918 26.6727V26.9554H214.812C214.883 26.9551 214.953 26.9641 215.021 26.9821H250.642V22.3822H220.665C220.957 22.0655 221.297 21.7973 221.673 21.5877L229.137 17.5917L242.401 10.4567L244.014 9.59383C245.376 8.8708 246.783 8.10612 248.151 7.34441L248.189 7.32358C248.94 6.87936 249.562 6.24423 249.992 5.48181C250.423 4.71939 250.647 3.85647 250.642 2.97947V0.0278673H213.06Z" fill="#373A3B"/>
<path d="M86.7148 22.156C86.4234 22.1563 86.1323 22.1385 85.8431 22.1025C85.2987 22.0635 84.7904 21.8136 84.4251 21.4053C84.0598 20.9969 83.8659 20.4619 83.8841 19.9126C83.8841 19.5258 83.8841 19.139 83.8841 18.767C83.8841 18.6093 83.8841 18.4487 83.8841 18.291V8.38581C83.8826 8.35905 83.8826 8.33223 83.8841 8.30547C83.8841 7.91569 83.8841 7.41285 83.8841 6.92488C83.8874 6.46578 84.0484 6.02198 84.3398 5.66888C84.6312 5.31578 85.035 5.07516 85.4827 4.98788C85.8899 4.89592 86.3063 4.85099 86.7237 4.85398H116.972V0.001082H86.242C85.1173 -0.013614 83.9956 0.121451 82.906 0.402765C81.1332 0.875856 80.0162 1.70005 79.3603 2.99733C78.8877 3.993 78.6654 5.09041 78.7132 6.19292C78.7132 8.60698 78.7132 11.019 78.7132 13.4291C78.7132 15.8749 78.7132 18.3217 78.7132 20.7695C78.711 21.2242 78.7396 21.6785 78.7989 22.1292C79.0796 24.1793 80.1256 25.5391 81.9989 26.2948C83.2133 26.7828 84.5814 27 86.4311 27H117.081V22.156H86.7148Z" fill="#373A3B"/>
<path d="M114.339 13.4825C114.339 12.8458 114.091 12.2345 113.65 11.7788C113.208 11.3231 112.608 11.059 111.976 11.0427H94.5422C93.898 11.0427 93.2802 11.3003 92.8247 11.759C92.3692 12.2177 92.1133 12.8398 92.1133 13.4885C92.1133 14.1371 92.3692 14.7592 92.8247 15.2179C93.2802 15.6766 93.898 15.9342 94.5422 15.9342H111.976C112.607 15.9172 113.208 15.6528 113.649 15.1973C114.09 14.7417 114.338 14.1309 114.339 13.4944" fill="#373A3B"/>
</svg>
