<svg width="437" height="37" viewBox="0 0 437 37" fill="none" xmlns="http://www.w3.org/2000/svg">
<path d="M406.288 6.6126H409.299C410.097 6.57262 410.89 6.7622 411.586 7.1593C412.282 7.55639 412.852 8.14466 413.229 8.85564C413.977 10.1583 414.718 11.4664 415.452 12.78L416.195 14.0949C417.421 16.266 418.644 18.4304 419.863 20.5879C419.931 20.7101 419.996 20.8363 420.064 20.9747L420.157 21.1578C420.202 21.2413 420.236 21.3303 420.258 21.4225L426.86 33.3257C427.54 34.5225 428.213 35.7207 428.877 36.9203C430.69 36.9203 432.503 36.9203 434.317 36.9203H437L417.7 2.79818C417.258 1.93386 416.582 1.21396 415.751 0.722403C414.919 0.230847 413.966 -0.0121156 413.003 0.0218386C410.676 0.0218386 408.349 0.0218386 406.022 0.0218386H402.366C400.542 0.0218386 399.32 0.754596 398.392 2.39923C393.981 10.2275 389.466 18.1698 385.1 25.8516C383.521 28.6279 381.944 31.4029 380.371 34.1765L378.813 36.9203H386.956C387.94 35.1698 388.945 33.3664 390.019 31.4165L395.442 21.512C395.467 21.3949 395.506 21.2814 395.559 21.1741L395.648 21.0113C395.712 20.881 395.773 20.7589 395.841 20.6408C396.484 19.4901 397.129 18.3381 397.774 17.1847C399.239 14.5671 400.752 11.864 402.213 9.20167C403.137 7.53668 404.444 6.67365 406.103 6.63295H406.228" fill="white"/>
<path d="M408.145 30.757C407.541 30.757 406.951 30.9375 406.45 31.2757C405.948 31.6138 405.557 32.0945 405.326 32.6568C405.095 33.2192 405.035 33.838 405.153 34.435C405.27 35.032 405.561 35.5803 405.987 36.0108C406.414 36.4412 406.958 36.7343 407.549 36.853C408.141 36.9718 408.755 36.9108 409.312 36.6779C409.869 36.445 410.346 36.0505 410.681 35.5444C411.016 35.0383 411.195 34.4432 411.195 33.8346C411.196 33.4303 411.117 33.0298 410.964 32.6562C410.811 32.2826 410.586 31.9431 410.303 31.6572C410.019 31.3713 409.683 31.1446 409.313 30.9902C408.942 30.8357 408.545 30.7564 408.145 30.757Z" fill="white"/>
<path d="M248.352 0.1114H248.122C247.277 0.1414 246.476 0.501294 245.888 1.11526C245.301 1.72922 244.972 2.5493 244.972 3.4027C244.972 4.25611 245.301 5.07619 245.888 5.69015C246.476 6.30411 247.277 6.66401 248.122 6.69401H248.352C249.198 6.66401 249.998 6.30411 250.586 5.69015C251.173 5.07619 251.502 4.25611 251.502 3.4027C251.502 2.5493 251.173 1.72922 250.586 1.11526C249.998 0.501294 249.198 0.1414 248.352 0.1114Z" fill="white"/>
<path d="M242.4 30.2888H241.674C240.338 30.2888 239.14 29.6945 238.014 28.5139C237.869 28.3633 237.724 28.2005 237.57 28.0214C235.9 26.0809 234.233 24.1377 232.571 22.1919C227.761 16.5822 222.785 10.7934 217.862 5.09415C216.844 3.94839 215.708 2.91534 214.473 2.01249C212.778 0.74645 210.68 0.115468 208.049 0.082901C206.665 0.082901 205.192 0.0584767 203.271 0.0584767H198.578V36.9244H205.309V8.02112C205.309 7.71785 205.417 7.42458 205.612 7.19401C205.807 6.96344 206.077 6.81069 206.374 6.76322C206.817 6.69186 207.265 6.65512 207.714 6.65331C208.663 6.64116 209.602 6.84923 210.458 7.26146C211.314 7.67368 212.065 8.27902 212.653 9.0307C214.586 11.3755 216.599 13.7285 218.548 16C219.267 16.8386 219.984 17.6786 220.699 18.5199C221.802 19.8117 222.902 21.1049 224 22.3995C226.825 25.7376 229.77 29.1938 232.692 32.5767C233.757 33.8639 235.079 34.9102 236.571 35.6474C238.064 36.3846 239.694 36.7962 241.355 36.8552C243.066 36.9284 244.821 36.9366 246.52 36.9406H248.267C249.317 36.9406 250.362 36.9406 251.427 36.9406H251.621V30.2848H242.4V30.2888Z" fill="white"/>
<path d="M52.3764 6.17294C52.9807 6.17374 53.5717 5.99369 54.0746 5.65557C54.5774 5.31744 54.9696 4.83644 55.2014 4.27341C55.4332 3.71038 55.4943 3.09064 55.3769 2.49258C55.2594 1.89453 54.9689 1.34505 54.5418 0.913665C54.1148 0.48228 53.5705 0.188375 52.9778 0.0691388C52.3852 -0.050098 51.7708 0.0107002 51.2124 0.243823C50.654 0.476947 50.1767 0.871919 49.8409 1.37878C49.5051 1.88565 49.3258 2.48162 49.3258 3.09129C49.3258 3.90789 49.6471 4.6911 50.2191 5.2689C50.791 5.84671 51.567 6.17186 52.3764 6.17294Z" fill="white"/>
<path d="M76.4542 0.0259027C75.4656 1.77231 74.4609 3.57979 73.3875 5.52974L67.9642 15.4342C67.9403 15.5521 67.8995 15.6659 67.8432 15.7721L67.7625 15.9349C67.6939 16.0652 67.6333 16.1873 67.5688 16.3013L65.6279 19.7697C64.1671 22.3832 62.654 25.0822 61.1892 27.7445C60.2651 29.4095 58.9578 30.2726 57.2993 30.3133H53.9622C53.1931 30.3196 52.4368 30.1136 51.7753 29.7175C51.1139 29.3215 50.5724 28.7504 50.2095 28.0661C49.459 26.7634 48.7206 25.4526 47.9821 24.1418L46.5859 21.6749L43.5717 16.3339C43.5031 16.2117 43.4385 16.0855 43.3699 15.9471L43.2771 15.7639C43.2324 15.6805 43.1985 15.5915 43.1763 15.4993L36.5787 3.60421C35.8968 2.38295 35.2149 1.20646 34.541 0.00147838C32.7252 0.00147838 30.912 0.00147838 29.1016 0.00147838H26.4182L38.0516 20.5635C38.1599 20.7551 38.2168 20.9719 38.2168 21.1925C38.2168 21.413 38.1599 21.6298 38.0516 21.8214C36.9513 23.7863 35.8524 25.7566 34.7549 27.7323C33.8308 29.3973 32.5234 30.2603 30.865 30.301H27.5279C26.7586 30.3079 26.0022 30.102 25.3406 29.7059C24.6791 29.3098 24.1377 28.7385 23.7752 28.0539C23.0246 26.7512 22.2862 25.4404 21.5478 24.1296L20.8053 22.8147L17.1373 16.3379C17.0687 16.2158 17.0042 16.0896 16.9356 15.9512L16.8387 15.768C16.797 15.6836 16.7645 15.5949 16.7419 15.5034L10.1404 3.60421C9.45977 2.40737 8.78724 1.20782 8.12278 0.00555323C6.30696 0.00555323 4.49382 0.00555323 2.68338 0.00555323H0L8.59489 15.194C12.1674 21.5039 15.7358 27.8151 19.3002 34.1277C19.7358 34.9913 20.4053 35.7125 21.231 36.2076C22.0567 36.7026 23.0047 36.9512 23.9648 36.9244C26.2918 36.9244 28.6187 36.9244 30.9457 36.9244H34.6015C36.4254 36.9244 37.6481 36.1916 38.5762 34.547C39.2137 33.4153 39.854 32.2836 40.4969 31.1519L41.1546 29.9835C41.2644 29.7879 41.4237 29.6252 41.6161 29.512C41.8086 29.3988 42.0274 29.3392 42.2502 29.3392C42.4729 29.3392 42.6918 29.3988 42.8842 29.512C43.0767 29.6252 43.236 29.7879 43.3457 29.9835L45.6982 34.144C46.1384 35.0097 46.814 35.731 47.6458 36.2234C48.4776 36.7158 49.4313 36.9589 50.3951 36.9244C52.7248 36.9244 55.0517 36.9244 57.376 36.9244H61.0318C62.8557 36.9244 64.0824 36.1916 65.0065 34.547C69.4169 26.7187 73.9323 18.7764 78.2983 11.0987C79.8747 8.32236 81.4511 5.54603 83.0275 2.76968C83.548 1.85781 84.0646 0.94593 84.5851 0.0218402H81.9501C80.1155 0.0218402 78.2808 0.0218402 76.4461 0.0218402" fill="white"/>
<path d="M290.959 0.0381272V6.31949H328.22C328.5 6.32066 328.771 6.41543 328.992 6.58893C329.212 6.76243 329.369 7.00486 329.439 7.2782C329.508 7.55154 329.485 7.84033 329.374 8.09929C329.263 8.35824 329.07 8.57273 328.825 8.7091L296.802 26.2709C295.261 27.0433 293.838 28.036 292.578 29.2182C291.367 30.4395 290.786 31.6607 290.766 33.0123C290.766 34.1684 290.766 35.3489 290.766 36.4929V36.8796H293.352C293.449 36.8792 293.545 36.8915 293.639 36.9162H342.283V30.6227H301.346C301.745 30.1893 302.209 29.8225 302.722 29.5357L312.915 24.0685L331.029 14.3066L333.232 13.126C335.092 12.1368 337.013 11.0906 338.881 10.0484L338.933 10.0199C339.959 9.41215 340.808 8.54317 341.396 7.50006C341.984 6.45694 342.29 5.27631 342.283 4.07643V0.0381272H290.959Z" fill="white"/>
<path d="M118.42 30.3133C118.022 30.3137 117.624 30.2892 117.23 30.24C116.486 30.1867 115.792 29.8448 115.293 29.2861C114.794 28.7274 114.529 27.9954 114.554 27.2438C114.554 26.7146 114.554 26.1854 114.554 25.6765C114.554 25.4608 114.554 25.2409 114.554 25.0252V11.4732C114.552 11.4366 114.552 11.3999 114.554 11.3633C114.554 10.83 114.554 10.1421 114.554 9.47443C114.559 8.8463 114.779 8.23911 115.177 7.75601C115.574 7.27291 116.126 6.94369 116.737 6.82428C117.293 6.69846 117.862 6.63699 118.432 6.64109H159.74V0.00148036H117.774C116.238 -0.0186263 114.707 0.166166 113.219 0.551052C110.797 1.19832 109.272 2.32596 108.376 4.10086C107.731 5.46311 107.427 6.96456 107.493 8.47298C107.493 11.7758 107.493 15.076 107.493 18.3734C107.493 21.7196 107.493 25.0672 107.493 28.4162C107.49 29.0383 107.529 29.6599 107.61 30.2766C107.993 33.0815 109.421 34.9418 111.98 35.9759C113.638 36.6435 115.507 36.9406 118.033 36.9406H159.889V30.3133H118.42Z" fill="white"/>
<path d="M156.145 18.4464C156.144 17.5753 155.806 16.7389 155.203 16.1154C154.6 15.4919 153.78 15.1305 152.917 15.1083H129.109C128.229 15.1083 127.386 15.4608 126.764 16.0884C126.142 16.7159 125.792 17.567 125.792 18.4545C125.792 19.342 126.142 20.1931 126.764 20.8207C127.386 21.4482 128.229 21.8008 129.109 21.8008H152.917C153.779 21.7775 154.599 21.4158 155.202 20.7925C155.805 20.1692 156.143 19.3334 156.145 18.4627" fill="white"/>
</svg>
