<svg width="70" height="70" viewBox="0 0 70 70" fill="none" xmlns="http://www.w3.org/2000/svg">
<path fill-rule="evenodd" clip-rule="evenodd" d="M35.3927 58.1478C38.2255 56.7729 55.4163 47.7827 55.4163 32.0833C55.4163 20.8075 46.2755 11.6666 34.9997 11.6666C23.7239 11.6666 14.583 20.8075 14.583 32.0833C14.583 47.7827 31.7738 56.7729 34.6067 58.1478C34.863 58.2722 35.1364 58.2722 35.3927 58.1478ZM34.9997 40.8333C39.8322 40.8333 43.7497 36.9158 43.7497 32.0833C43.7497 27.2508 39.8322 23.3333 34.9997 23.3333C30.1672 23.3333 26.2497 27.2508 26.2497 32.0833C26.2497 36.9158 30.1672 40.8333 34.9997 40.8333Z" fill="#373A3B"/>
<path d="M35.3927 58.1478L35.6546 58.6876L35.6546 58.6876L35.3927 58.1478ZM34.6067 58.1478L34.8687 57.608H34.8687L34.6067 58.1478ZM54.8163 32.0833C54.8163 39.6998 50.6473 45.7251 46.0554 50.0505C41.4667 54.3729 36.5218 56.9328 35.1307 57.608L35.6546 58.6876C37.0964 57.9878 42.1634 55.3652 46.8782 50.924C51.5899 46.4857 56.0163 40.1663 56.0163 32.0833H54.8163ZM34.9997 12.2666C45.9441 12.2666 54.8163 21.1389 54.8163 32.0833H56.0163C56.0163 20.4761 46.6069 11.0666 34.9997 11.0666V12.2666ZM15.183 32.0833C15.183 21.1389 24.0552 12.2666 34.9997 12.2666V11.0666C23.3925 11.0666 13.983 20.4761 13.983 32.0833H15.183ZM34.8687 57.608C33.4776 56.9329 28.5327 54.3729 23.9439 50.0505C19.352 45.7251 15.183 39.6998 15.183 32.0833H13.983C13.983 40.1663 18.4094 46.4858 23.1211 50.924C27.836 55.3652 32.9029 57.9878 34.3447 58.6876L34.8687 57.608ZM35.1307 57.608C35.0398 57.6521 34.9595 57.6521 34.8687 57.608L34.3447 58.6876C34.7664 58.8922 35.2329 58.8922 35.6546 58.6876L35.1307 57.608ZM43.1497 32.0833C43.1497 36.5844 39.5008 40.2333 34.9997 40.2333V41.4333C40.1635 41.4333 44.3497 37.2472 44.3497 32.0833H43.1497ZM34.9997 23.9333C39.5008 23.9333 43.1497 27.5822 43.1497 32.0833H44.3497C44.3497 26.9194 40.1635 22.7333 34.9997 22.7333V23.9333ZM26.8497 32.0833C26.8497 27.5822 30.4986 23.9333 34.9997 23.9333V22.7333C29.8358 22.7333 25.6497 26.9194 25.6497 32.0833H26.8497ZM34.9997 40.2333C30.4986 40.2333 26.8497 36.5844 26.8497 32.0833H25.6497C25.6497 37.2472 29.8358 41.4333 34.9997 41.4333V40.2333Z" fill="#373A3B"/>
</svg>
