<svg width="785" height="804" viewBox="0 0 785 804" fill="none" xmlns="http://www.w3.org/2000/svg">
<path d="M119.667 712C119.667 709.054 122.054 706.667 125 706.667C127.946 706.667 130.333 709.054 130.333 712C130.333 714.946 127.946 717.333 125 717.333C122.054 717.333 119.667 714.946 119.667 712ZM262.49 798V799H262.203L261.96 798.848L262.49 798ZM322.667 798C322.667 795.054 325.054 792.667 328 792.667C330.946 792.667 333.333 795.054 333.333 798C333.333 800.946 330.946 803.333 328 803.333C325.054 803.333 322.667 800.946 322.667 798ZM125.53 711.152L263.02 797.152L261.96 798.848L124.47 712.848L125.53 711.152ZM262.49 797H328V799H262.49V797Z" fill="white"/>
<path opacity="0.4" d="M190.255 147V148.5H190.865L191.302 148.074L190.255 147ZM234.327 104V102.5H233.716L233.279 102.926L234.327 104ZM293 104C293 108.418 296.582 112 301 112C305.418 112 309 108.418 309 104C309 99.5817 305.418 96 301 96C296.582 96 293 99.5817 293 104ZM191.302 148.074L235.374 105.074L233.279 102.926L189.207 145.926L191.302 148.074ZM234.327 105.5H301V102.5H234.327V105.5ZM0 148.5H190.255V145.5H0V148.5Z" fill="white"/>
<path opacity="0.4" d="M190.255 642V640.5H190.865L191.302 640.926L190.255 642ZM234.327 685V686.5H233.716L233.279 686.074L234.327 685ZM293 685C293 680.582 296.582 677 301 677C305.418 677 309 680.582 309 685C309 689.418 305.418 693 301 693C296.582 693 293 689.418 293 685ZM191.302 640.926L235.374 683.926L233.279 686.074L189.207 643.074L191.302 640.926ZM234.327 683.5H301V686.5H234.327V683.5ZM0 640.5H190.255V643.5H0V640.5Z" fill="white"/>
<path opacity="0.4" d="M348.783 181.862V180.362H348.159L347.719 180.805L348.783 181.862ZM418.147 181.862V183.362H418.692L419.109 183.013L418.147 181.862ZM469.46 139V137.5H468.916L468.498 137.849L469.46 139ZM613 139C613 143.418 616.582 147 621 147C625.418 147 629 143.418 629 139C629 134.582 625.418 131 621 131C616.582 131 613 134.582 613 139ZM295.064 238.057L349.847 182.919L347.719 180.805L292.936 235.943L295.064 238.057ZM348.783 183.362L418.147 183.362V180.362L348.783 180.362V183.362ZM419.109 183.013L470.422 140.151L468.498 137.849L417.186 180.711L419.109 183.013ZM469.46 140.5H621V137.5H469.46V140.5Z" fill="white"/>
<path opacity="0.4" d="M347.969 609.138V610.638H347.346L346.907 610.197L347.969 609.138ZM417.568 609.138V607.638H418.111L418.528 607.985L417.568 609.138ZM469.055 652V653.5H468.512L468.095 653.153L469.055 652ZM613 652C613 647.582 616.582 644 621 644C625.418 644 629 647.582 629 652C629 656.418 625.418 660 621 660C616.582 660 613 656.418 613 652ZM294.062 552.941L349.031 608.079L346.907 610.197L291.938 555.059L294.062 552.941ZM347.969 607.638L417.568 607.638V610.638L347.969 610.638V607.638ZM418.528 607.985L470.014 650.847L468.095 653.153L416.609 610.291L418.528 607.985ZM469.055 650.5H621V653.5H469.055V650.5Z" fill="white"/>
<path opacity="0.4" d="M769 394C769 398.418 772.582 402 777 402C781.418 402 785 398.418 785 394C785 389.582 781.418 386 777 386C772.582 386 769 389.582 769 394ZM385 395.5H777V392.5H385V395.5Z" fill="white"/>
<path opacity="0.4" d="M403.972 373.862V375.362H404.582L405.019 374.936L403.972 373.862ZM447.979 331V329.5H447.369L446.933 329.925L447.979 331ZM507 331C507 335.418 510.582 339 515 339C519.418 339 523 335.418 523 331C523 326.582 519.418 323 515 323C510.582 323 507 326.582 507 331ZM405.019 374.936L449.026 332.075L446.933 329.925L402.926 372.787L405.019 374.936ZM447.979 332.5H515V329.5H447.979V332.5ZM214 375.362H403.972V372.362H214V375.362Z" fill="white"/>
<path d="M411.667 303C411.667 305.946 414.054 308.333 417 308.333C419.946 308.333 422.333 305.946 422.333 303C422.333 300.054 419.946 297.667 417 297.667C414.054 297.667 411.667 300.054 411.667 303ZM469.898 266V265H469.583L469.325 265.181L469.898 266ZM559.667 266C559.667 268.946 562.054 271.333 565 271.333C567.946 271.333 570.333 268.946 570.333 266C570.333 263.054 567.946 260.667 565 260.667C562.054 260.667 559.667 263.054 559.667 266ZM417.573 303.819L470.472 266.819L469.325 265.181L416.427 302.181L417.573 303.819ZM469.898 267H565V265H469.898V267Z" fill="white"/>
<path opacity="0.4" d="M404.255 412V410.5H404.865L405.302 410.926L404.255 412ZM448.327 455V456.5H447.716L447.279 456.074L448.327 455ZM507 455C507 450.582 510.582 447 515 447C519.418 447 523 450.582 523 455C523 459.418 519.418 463 515 463C510.582 463 507 459.418 507 455ZM405.302 410.926L449.374 453.926L447.279 456.074L403.207 413.074L405.302 410.926ZM448.327 453.5H515V456.5H448.327V453.5ZM214 410.5H404.255V413.5H214V410.5Z" fill="white"/>
<path d="M119.667 92C119.667 94.9455 122.054 97.3333 125 97.3333C127.946 97.3333 130.333 94.9455 130.333 92C130.333 89.0545 127.946 86.6667 125 86.6667C122.054 86.6667 119.667 89.0545 119.667 92ZM262.49 6V5H262.203L261.96 5.15219L262.49 6ZM322.667 6C322.667 8.94552 325.054 11.3333 328 11.3333C330.946 11.3333 333.333 8.94552 333.333 6C333.333 3.05448 330.946 0.666667 328 0.666667C325.054 0.666667 322.667 3.05448 322.667 6ZM125.53 92.8478L263.02 6.84781L261.96 5.15219L124.47 91.1522L125.53 92.8478ZM262.49 7H328V5H262.49V7Z" fill="white"/>
</svg>
