<svg width="666" height="803" viewBox="0 0 666 803" fill="none" xmlns="http://www.w3.org/2000/svg">
<path d="M0.666667 711C0.666667 708.054 3.05448 705.667 6 705.667C8.94552 705.667 11.3333 708.054 11.3333 711C11.3333 713.946 8.94552 716.333 6 716.333C3.05448 716.333 0.666667 713.946 0.666667 711ZM143.49 797V798H143.203L142.96 797.848L143.49 797ZM203.667 797C203.667 794.054 206.054 791.667 209 791.667C211.946 791.667 214.333 794.054 214.333 797C214.333 799.946 211.946 802.333 209 802.333C206.054 802.333 203.667 799.946 203.667 797ZM6.5303 710.152L144.02 796.152L142.96 797.848L5.4697 711.848L6.5303 710.152ZM143.49 796H209V798H143.49V796Z" fill="white"/>
<path opacity="0.4" fill-rule="evenodd" clip-rule="evenodd" d="M174.15 101.5H114.73L90.75 125.255L93.5 126H93.5028L115.944 104.5H174.15C174.852 108.201 178.104 111 182.01 111C186.428 111 190.01 107.418 190.01 103C190.01 98.5817 186.428 95 182.01 95C178.104 95 174.852 97.7987 174.15 101.5Z" fill="white"/>
<path opacity="0.4" fill-rule="evenodd" clip-rule="evenodd" d="M174.143 685.5H114.728L102.809 674.112L106.055 673.065L115.93 682.5H174.143C174.845 678.799 178.097 676 182.002 676C186.421 676 190.002 679.582 190.002 684C190.002 688.418 186.421 692 182.002 692C178.097 692 174.845 689.201 174.143 685.5Z" fill="white"/>
<path opacity="0.4" fill-rule="evenodd" clip-rule="evenodd" d="M494.142 136.5H349.917L298.605 179.362L229.158 179.362L213.406 195.298L215.5 197.5L230.411 182.362L299.693 182.362L351.005 139.5H494.142C494.844 143.201 498.096 146 502.001 146C506.419 146 510.001 142.418 510.001 138C510.001 133.582 506.419 130 502.001 130C498.096 130 494.844 132.799 494.142 136.5Z" fill="white"/>
<path opacity="0.4" fill-rule="evenodd" clip-rule="evenodd" d="M494.138 652.5H349.51L298.024 609.638L228.342 609.638L219.996 601.232L221.996 598.988L229.591 606.638L299.109 606.638L350.595 649.5H494.138C494.841 645.799 498.092 643 501.998 643C506.416 643 509.998 646.582 509.998 651C509.998 655.418 506.416 659 501.998 659C498.092 659 494.841 656.201 494.138 652.5Z" fill="white"/>
<path opacity="0.4" fill-rule="evenodd" clip-rule="evenodd" d="M650.14 391.5H301V394.5H650.14C650.842 398.201 654.094 401 658 401C662.418 401 666 397.418 666 393C666 388.582 662.418 385 658 385C654.094 385 650.842 387.799 650.14 391.5Z" fill="white"/>
<path opacity="0.4" fill-rule="evenodd" clip-rule="evenodd" d="M388.148 328.5H328.377L297.75 358.33L298.282 362L329.596 331.5H388.148C388.85 335.201 392.102 338 396.007 338C400.426 338 404.007 334.418 404.007 330C404.007 325.582 400.426 322 396.007 322C392.102 322 388.85 324.799 388.148 328.5Z" fill="white"/>
<path d="M292.667 302C292.667 304.946 295.054 307.333 298 307.333C300.946 307.333 303.333 304.946 303.333 302C303.333 299.054 300.946 296.667 298 296.667C295.054 296.667 292.667 299.054 292.667 302ZM350.898 265V264H350.583L350.325 264.181L350.898 265ZM440.667 265C440.667 267.946 443.054 270.333 446 270.333C448.946 270.333 451.333 267.946 451.333 265C451.333 262.054 448.946 259.667 446 259.667C443.054 259.667 440.667 262.054 440.667 265ZM298.573 302.819L351.472 265.819L350.325 264.181L297.427 301.181L298.573 302.819ZM350.898 266H446V264H350.898V266Z" fill="white"/>
<path opacity="0.4" fill-rule="evenodd" clip-rule="evenodd" d="M388.141 455.5H328.717L299.867 427.352L300.215 423.5L329.938 452.5H388.141C388.843 448.799 392.095 446 396.001 446C400.419 446 404.001 449.582 404.001 454C404.001 458.418 400.419 462 396.001 462C392.095 462 388.843 459.201 388.141 455.5Z" fill="white"/>
<path d="M9.66667 92C9.66667 94.9455 12.0545 97.3333 15 97.3333C17.9455 97.3333 20.3333 94.9455 20.3333 92C20.3333 89.0545 17.9455 86.6667 15 86.6667C12.0545 86.6667 9.66667 89.0545 9.66667 92ZM152.49 6V5H152.203L151.96 5.15219L152.49 6ZM212.667 6C212.667 8.94552 215.054 11.3333 218 11.3333C220.946 11.3333 223.333 8.94552 223.333 6C223.333 3.05448 220.946 0.666667 218 0.666667C215.054 0.666667 212.667 3.05448 212.667 6ZM15.5303 92.8478L153.02 6.84781L151.96 5.15219L14.4697 91.1522L15.5303 92.8478ZM152.49 7H218V5H152.49V7Z" fill="white"/>
<path d="M301.667 487C301.667 484.054 304.054 481.667 307 481.667C309.946 481.667 312.333 484.054 312.333 487C312.333 489.946 309.946 492.333 307 492.333C304.054 492.333 301.667 489.946 301.667 487ZM359.898 524V525H359.583L359.325 524.819L359.898 524ZM449.667 524C449.667 521.054 452.054 518.667 455 518.667C457.946 518.667 460.333 521.054 460.333 524C460.333 526.946 457.946 529.333 455 529.333C452.054 529.333 449.667 526.946 449.667 524ZM307.573 486.181L360.472 523.181L359.325 524.819L306.427 487.819L307.573 486.181ZM359.898 523H455V525H359.898V523Z" fill="white"/>
</svg>
