<svg width="247" height="274" viewBox="0 0 247 274" fill="none" xmlns="http://www.w3.org/2000/svg">
<path opacity="0.4" d="M223 97.1398L222.5 97.1398L222.5 97.3369L222.634 97.4809L223 97.1398ZM244 119.642L244.5 119.642L244.5 119.445L244.366 119.301L244 119.642ZM244 151.017C242.527 151.017 241.333 152.211 241.333 153.684C241.333 155.157 242.527 156.351 244 156.351C245.473 156.351 246.667 155.157 246.667 153.684C246.667 152.211 245.473 151.017 244 151.017ZM222.634 97.4809L243.634 119.983L244.366 119.301L223.366 96.7987L222.634 97.4809ZM243.5 119.642L243.5 153.684L244.5 153.684L244.5 119.642L243.5 119.642ZM222.5 -1.25198e-06L222.5 97.1398L223.5 97.1398L223.5 -1.19375e-06L222.5 -1.25198e-06Z" fill="white"/>
<path opacity="0.4" d="M23 101.401L23.5 101.401L23.5 101.59L23.375 101.732L23 101.401ZM3 124.075L2.5 124.075L2.5 123.886L2.62502 123.744L3 124.075ZM2.99999 155.71C4.47275 155.71 5.66666 156.904 5.66666 158.377C5.66666 159.849 4.47275 161.043 2.99999 161.043C1.52724 161.043 0.333328 159.849 0.333328 158.377C0.333328 156.904 1.52724 155.71 2.99999 155.71ZM23.375 101.732L3.37497 124.406L2.62502 123.744L22.625 101.07L23.375 101.732ZM3.5 124.075L3.49999 158.377L2.49999 158.377L2.5 124.075L3.5 124.075ZM23.5 3.51947L23.5 101.401L22.5 101.401L22.5 3.51947L23.5 3.51947Z" fill="white"/>
<path opacity="0.4" d="M42 100.659L42.5 100.659L42.5 100.881L42.3359 101.03L42 100.659ZM21 119.711L20.5 119.711L20.5 119.489L20.6641 119.34L21 119.711ZM21 173.307C22.4728 173.307 23.6667 174.501 23.6667 175.974C23.6667 177.447 22.4728 178.641 21 178.641C19.5273 178.641 18.3334 177.447 18.3334 175.974C18.3334 174.501 19.5273 173.307 21 173.307ZM42.5 43.4069L42.5 100.659L41.5 100.659L41.5 43.4069L42.5 43.4069ZM42.3359 101.03L21.336 120.081L20.6641 119.34L41.664 100.289L42.3359 101.03ZM21.5 119.711L21.5 175.974L20.5 175.974L20.5 119.711L21.5 119.711Z" fill="white"/>
<path opacity="0.4" d="M206 101.992L205.5 101.992L205.5 102.216L205.667 102.366L206 101.992ZM227 120.706L227.5 120.706L227.5 120.482L227.333 120.333L227 120.706ZM227 173.307C225.527 173.307 224.333 174.501 224.333 175.974C224.333 177.447 225.527 178.641 227 178.641C228.473 178.641 229.667 177.447 229.667 175.974C229.667 174.501 228.473 173.307 227 173.307ZM205.5 45.7532L205.5 101.992L206.5 101.992L206.5 45.7532L205.5 45.7532ZM205.667 102.366L226.667 121.08L227.333 120.333L206.333 101.619L205.667 102.366ZM226.5 120.706L226.5 175.974L227.5 175.974L227.5 120.706L226.5 120.706Z" fill="white"/>
<path opacity="0.4" d="M175 129.389L174.5 129.389L174.5 129.562L174.607 129.698L175 129.389ZM196 156.155L196.5 156.155L196.5 155.982L196.393 155.846L196 156.155ZM196 199.117C194.527 199.117 193.333 200.311 193.333 201.784C193.333 203.256 194.527 204.45 196 204.45C197.473 204.45 198.667 203.256 198.667 201.784C198.667 200.311 197.473 199.117 196 199.117ZM174.5 28.1558L174.5 129.389L175.5 129.389L175.5 28.1558L174.5 28.1558ZM174.607 129.698L195.606 156.463L196.393 155.846L175.393 129.08L174.607 129.698ZM195.5 156.155L195.5 201.784L196.5 201.784L196.5 156.155L195.5 156.155Z" fill="white"/>
<path opacity="0.4" d="M151 140.764L150.5 140.764L150.5 140.928L150.598 141.06L151 140.764ZM172 169.256L172.5 169.256L172.5 169.092L172.402 168.96L172 169.256ZM172 250.736C170.527 250.736 169.333 251.93 169.333 253.403C169.333 254.875 170.527 256.069 172 256.069C173.473 256.069 174.667 254.875 174.667 253.403C174.667 251.93 173.473 250.736 172 250.736ZM150.5 55.1385L150.5 140.764L151.5 140.764L151.5 55.1385L150.5 55.1385ZM150.598 141.06L171.598 169.553L172.402 168.96L151.402 140.467L150.598 141.06ZM171.5 169.256L171.5 253.403L172.5 253.403L172.5 169.256L171.5 169.256Z" fill="white"/>
<path opacity="0.4" d="M96 140.687L96.5 140.687L96.5 140.851L96.4026 140.983L96 140.687ZM75 169.199L74.5 169.199L74.5 169.035L74.5974 168.902L75 169.199ZM75 250.736C76.4728 250.736 77.6667 251.93 77.6667 253.403C77.6667 254.875 76.4728 256.069 75 256.069C73.5273 256.069 72.3334 254.875 72.3334 253.403C72.3334 251.93 73.5273 250.736 75 250.736ZM96.5 32.8484L96.5 140.687L95.5 140.687L95.5 32.8484L96.5 32.8484ZM96.4026 140.983L75.4026 169.495L74.5974 168.902L95.5974 140.39L96.4026 140.983ZM75.5 169.199L75.5 253.403L74.5 253.403L74.5 169.199L75.5 169.199Z" fill="white"/>
<path opacity="0.4" d="M73 129.389L73.5 129.389L73.5 129.562L73.3934 129.698L73 129.389ZM52.0004 156.155L51.5004 156.155L51.5004 155.982L51.607 155.846L52.0004 156.155ZM52 199.117C53.4728 199.117 54.6667 200.311 54.6667 201.784C54.6667 203.256 53.4728 204.45 52 204.45C50.5273 204.45 49.3334 203.256 49.3333 201.784C49.3333 200.311 50.5273 199.117 52 199.117ZM73.5 28.1558L73.5 129.389L72.5 129.389L72.5 28.1558L73.5 28.1558ZM73.3934 129.698L52.3938 156.463L51.607 155.846L72.6066 129.08L73.3934 129.698ZM52.5004 156.155L52.5 201.784L51.5 201.784L51.5004 156.155L52.5004 156.155Z" fill="white"/>
<path opacity="0.4" d="M124 268.333C122.527 268.333 121.333 269.527 121.333 271C121.333 272.473 122.527 273.667 124 273.667C125.473 273.667 126.667 272.473 126.667 271C126.667 269.527 125.473 268.333 124 268.333ZM123.5 69.2164L123.5 271L124.5 271L124.5 69.2164L123.5 69.2164Z" fill="white"/>
<path opacity="0.4" d="M132 186.896L131.5 186.896L131.5 187.092L131.633 187.236L132 186.896ZM153 209.537L153.5 209.537L153.5 209.341L153.367 209.197L153 209.537ZM153 241.351C151.527 241.351 150.333 242.545 150.333 244.017C150.333 245.49 151.527 246.684 153 246.684C154.473 246.684 155.667 245.49 155.667 244.017C155.667 242.545 154.473 241.351 153 241.351ZM131.633 187.236L152.633 209.877L153.367 209.197L132.367 186.556L131.633 187.236ZM152.5 209.537L152.5 244.017L153.5 244.017L153.5 209.537L152.5 209.537ZM131.5 89.1602L131.5 186.896L132.5 186.896L132.5 89.1602L131.5 89.1602Z" fill="white"/>
<path opacity="0.4" d="M115 187.05L115.5 187.05L115.5 187.246L115.367 187.39L115 187.05ZM94 209.721L93.5 209.721L93.5 209.525L93.6332 209.381L94 209.721ZM94 241.351C95.4728 241.351 96.6667 242.545 96.6667 244.017C96.6667 245.49 95.4728 246.684 94 246.684C92.5272 246.684 91.3333 245.49 91.3333 244.017C91.3333 242.545 92.5272 241.351 94 241.351ZM115.367 187.39L94.3668 210.061L93.6332 209.381L114.633 186.71L115.367 187.39ZM94.5 209.721L94.5 244.017L93.5 244.017L93.5 209.721L94.5 209.721ZM115.5 62.1775L115.5 187.05L114.5 187.05L114.5 62.1775L115.5 62.1775Z" fill="white"/>
</svg>
