<svg width="226" height="226" viewBox="0 0 226 226" fill="none" xmlns="http://www.w3.org/2000/svg">
<g id="Group">
<path id="Vector" d="M18.0625 180.107V207.114H45.0698V180.107H18.0625Z" fill="#373A3B"/>
<path id="Vector_2" d="M0.0585938 225.119H63.0757L63.0757 162.102H0.0585938L0.0585938 225.119ZM9.06104 216.117L9.06104 171.104H54.0733V216.117H9.06104Z" fill="#373A3B"/>
<path id="Vector_3" d="M207.115 45.0703V18.063H180.108V45.0703H207.115Z" fill="#373A3B"/>
<path id="Vector_4" d="M225.119 0.0581055L162.102 0.0581055V63.0752L225.119 63.0752V0.0581055ZM216.117 9.06055V54.0728H171.104V9.06055L216.117 9.06055Z" fill="#373A3B"/>
<path id="Vector_5" d="M45.0698 18.063H18.0625V45.0703H45.0698V18.063Z" fill="#373A3B"/>
<path id="Vector_6" d="M0.0585938 0.0581055V63.0752H63.0757V0.0581055H0.0585938ZM9.06104 9.06055H54.0733V54.0728H9.06104V9.06055Z" fill="#373A3B"/>
<path id="Vector_7" d="M90.0825 0.0581055H81.0801V9.06055H90.0825V0.0581055Z" fill="#373A3B"/>
<path id="Vector_8" d="M117.09 0.0581055H108.088V9.06055H117.09V0.0581055Z" fill="#373A3B"/>
<path id="Vector_9" d="M135.094 0.0581055H126.092V9.06055H135.094V0.0581055Z" fill="#373A3B"/>
<path id="Vector_10" d="M144.098 0.0581055H135.096V9.06055H144.098V0.0581055Z" fill="#373A3B"/>
<path id="Vector_11" d="M99.0845 9.06055H90.082V18.063H99.0845V9.06055Z" fill="#373A3B"/>
<path id="Vector_12" d="M108.086 9.06055H99.084V18.063H108.086V9.06055Z" fill="#373A3B"/>
<path id="Vector_13" d="M117.09 9.06055H108.088V18.063H117.09V9.06055Z" fill="#373A3B"/>
<path id="Vector_14" d="M126.092 9.06055H117.09V18.063H126.092V9.06055Z" fill="#373A3B"/>
<path id="Vector_15" d="M153.1 9.06055H144.098V18.063H153.1V9.06055Z" fill="#373A3B"/>
<path id="Vector_16" d="M81.0806 18.063H72.0781V27.0654H81.0806V18.063Z" fill="#373A3B"/>
<path id="Vector_17" d="M108.086 18.063H99.084V27.0654H108.086V18.063Z" fill="#373A3B"/>
<path id="Vector_18" d="M135.094 18.063H126.092V27.0654H135.094V18.063Z" fill="#373A3B"/>
<path id="Vector_19" d="M99.0845 27.0654H90.082V36.0679H99.0845V27.0654Z" fill="#373A3B"/>
<path id="Vector_20" d="M108.086 27.0654H99.084V36.0679H108.086V27.0654Z" fill="#373A3B"/>
<path id="Vector_21" d="M117.09 27.0654H108.088V36.0679H117.09V27.0654Z" fill="#373A3B"/>
<path id="Vector_22" d="M126.092 27.0654H117.09V36.0679H126.092V27.0654Z" fill="#373A3B"/>
<path id="Vector_23" d="M144.098 27.0654H135.096V36.0679H144.098V27.0654Z" fill="#373A3B"/>
<path id="Vector_24" d="M81.0806 36.0679H72.0781V45.0703H81.0806V36.0679Z" fill="#373A3B"/>
<path id="Vector_25" d="M99.0845 36.0679H90.082V45.0703H99.0845V36.0679Z" fill="#373A3B"/>
<path id="Vector_26" d="M144.098 36.0679H135.096V45.0703H144.098V36.0679Z" fill="#373A3B"/>
<path id="Vector_27" d="M81.0806 45.0703H72.0781V54.0728H81.0806V45.0703Z" fill="#373A3B"/>
<path id="Vector_28" d="M90.0825 45.0703H81.0801V54.0728H90.0825V45.0703Z" fill="#373A3B"/>
<path id="Vector_29" d="M99.0845 45.0703H90.082V54.0728H99.0845V45.0703Z" fill="#373A3B"/>
<path id="Vector_30" d="M108.086 45.0703H99.084V54.0728H108.086V45.0703Z" fill="#373A3B"/>
<path id="Vector_31" d="M126.092 45.0703H117.09V54.0728H126.092V45.0703Z" fill="#373A3B"/>
<path id="Vector_32" d="M135.094 45.0703H126.092V54.0728H135.094V45.0703Z" fill="#373A3B"/>
<path id="Vector_33" d="M153.1 45.0703H144.098V54.0728H153.1V45.0703Z" fill="#373A3B"/>
<path id="Vector_34" d="M81.0806 54.0728H72.0781V63.0752H81.0806V54.0728Z" fill="#373A3B"/>
<path id="Vector_35" d="M99.0845 54.0728H90.082V63.0752H99.0845V54.0728Z" fill="#373A3B"/>
<path id="Vector_36" d="M117.09 54.0728H108.088V63.0752H117.09V54.0728Z" fill="#373A3B"/>
<path id="Vector_37" d="M135.094 54.0728H126.092V63.0752H135.094V54.0728Z" fill="#373A3B"/>
<path id="Vector_38" d="M153.1 54.0728H144.098V63.0752H153.1V54.0728Z" fill="#373A3B"/>
<path id="Vector_39" d="M153.1 63.0752H144.098V72.0776H153.1V63.0752Z" fill="#373A3B"/>
<path id="Vector_40" d="M18.063 72.0776H9.06055V81.0801H18.063V72.0776Z" fill="#373A3B"/>
<path id="Vector_41" d="M45.0708 72.0776H36.0684V81.0801H45.0708V72.0776Z" fill="#373A3B"/>
<path id="Vector_42" d="M63.0747 72.0776H54.0723V81.0801H63.0747V72.0776Z" fill="#373A3B"/>
<path id="Vector_43" d="M81.0806 72.0776H72.0781V81.0801H81.0806V72.0776Z" fill="#373A3B"/>
<path id="Vector_44" d="M90.0825 72.0776H81.0801V81.0801H90.0825V72.0776Z" fill="#373A3B"/>
<path id="Vector_45" d="M108.086 72.0776H99.084V81.0801H108.086V72.0776Z" fill="#373A3B"/>
<path id="Vector_46" d="M135.094 72.0776H126.092V81.0801H135.094V72.0776Z" fill="#373A3B"/>
<path id="Vector_47" d="M153.1 72.0776H144.098V81.0801H153.1V72.0776Z" fill="#373A3B"/>
<path id="Vector_48" d="M162.104 72.0776H153.102V81.0801H162.104V72.0776Z" fill="#373A3B"/>
<path id="Vector_49" d="M180.108 72.0776H171.105V81.0801H180.108V72.0776Z" fill="#373A3B"/>
<path id="Vector_50" d="M189.11 72.0776H180.107V81.0801H189.11V72.0776Z" fill="#373A3B"/>
<path id="Vector_51" d="M207.116 72.0776H198.113V81.0801H207.116V72.0776Z" fill="#373A3B"/>
<path id="Vector_52" d="M18.063 81.0801H9.06055V90.0825H18.063V81.0801Z" fill="#373A3B"/>
<path id="Vector_53" d="M27.0649 81.0801H18.0625V90.0825H27.0649V81.0801Z" fill="#373A3B"/>
<path id="Vector_54" d="M45.0708 81.0801H36.0684V90.0825H45.0708V81.0801Z" fill="#373A3B"/>
<path id="Vector_55" d="M54.0728 81.0801H45.0703V90.0825H54.0728V81.0801Z" fill="#373A3B"/>
<path id="Vector_56" d="M72.0786 81.0801H63.0762V90.0825H72.0786V81.0801Z" fill="#373A3B"/>
<path id="Vector_57" d="M81.0806 81.0801H72.0781V90.0825H81.0806V81.0801Z" fill="#373A3B"/>
<path id="Vector_58" d="M99.0845 81.0801H90.082V90.0825H99.0845V81.0801Z" fill="#373A3B"/>
<path id="Vector_59" d="M126.092 81.0801H117.09V90.0825H126.092V81.0801Z" fill="#373A3B"/>
<path id="Vector_60" d="M144.098 81.0801H135.096V90.0825H144.098V81.0801Z" fill="#373A3B"/>
<path id="Vector_61" d="M162.104 81.0801H153.102V90.0825H162.104V81.0801Z" fill="#373A3B"/>
<path id="Vector_62" d="M180.108 81.0801H171.105V90.0825H180.108V81.0801Z" fill="#373A3B"/>
<path id="Vector_63" d="M189.11 81.0801H180.107V90.0825H189.11V81.0801Z" fill="#373A3B"/>
<path id="Vector_64" d="M198.112 81.0801H189.109V90.0825H198.112V81.0801Z" fill="#373A3B"/>
<path id="Vector_65" d="M207.116 81.0801H198.113V90.0825H207.116V81.0801Z" fill="#373A3B"/>
<path id="Vector_66" d="M9.06104 90.0825H0.0585938V99.085H9.06104V90.0825Z" fill="#373A3B"/>
<path id="Vector_67" d="M27.0649 90.0825H18.0625V99.085H27.0649V90.0825Z" fill="#373A3B"/>
<path id="Vector_68" d="M36.0688 90.0825H27.0664V99.085H36.0688V90.0825Z" fill="#373A3B"/>
<path id="Vector_69" d="M45.0708 90.0825H36.0684V99.085H45.0708V90.0825Z" fill="#373A3B"/>
<path id="Vector_70" d="M54.0728 90.0825H45.0703V99.085H54.0728V90.0825Z" fill="#373A3B"/>
<path id="Vector_71" d="M63.0747 90.0825H54.0723V99.085H63.0747V90.0825Z" fill="#373A3B"/>
<path id="Vector_72" d="M72.0786 90.0825H63.0762V99.085H72.0786V90.0825Z" fill="#373A3B"/>
<path id="Vector_73" d="M90.0825 90.0825H81.0801V99.085H90.0825V90.0825Z" fill="#373A3B"/>
<path id="Vector_74" d="M99.0845 90.0825H90.082V99.085H99.0845V90.0825Z" fill="#373A3B"/>
<path id="Vector_75" d="M108.086 90.0825H99.084V99.085H108.086V90.0825Z" fill="#373A3B"/>
<path id="Vector_76" d="M126.092 90.0825H117.09V99.085H126.092V90.0825Z" fill="#373A3B"/>
<path id="Vector_77" d="M135.094 90.0825H126.092V99.085H135.094V90.0825Z" fill="#373A3B"/>
<path id="Vector_78" d="M144.098 90.0825H135.096V99.085H144.098V90.0825Z" fill="#373A3B"/>
<path id="Vector_79" d="M180.108 90.0825H171.105V99.085H180.108V90.0825Z" fill="#373A3B"/>
<path id="Vector_80" d="M198.112 90.0825H189.109V99.085H198.112V90.0825Z" fill="#373A3B"/>
<path id="Vector_81" d="M207.116 90.0825H198.113V99.085H207.116V90.0825Z" fill="#373A3B"/>
<path id="Vector_82" d="M18.063 99.085H9.06055V108.087H18.063V99.085Z" fill="#373A3B"/>
<path id="Vector_83" d="M45.0708 99.085H36.0684V108.087H45.0708V99.085Z" fill="#373A3B"/>
<path id="Vector_84" d="M81.0806 99.085H72.0781V108.087H81.0806V99.085Z" fill="#373A3B"/>
<path id="Vector_85" d="M117.09 99.085H108.088V108.087H117.09V99.085Z" fill="#373A3B"/>
<path id="Vector_86" d="M144.098 99.085H135.096V108.087H144.098V99.085Z" fill="#373A3B"/>
<path id="Vector_87" d="M162.104 99.085H153.102V108.087H162.104V99.085Z" fill="#373A3B"/>
<path id="Vector_88" d="M171.106 99.085H162.104V108.087H171.106V99.085Z" fill="#373A3B"/>
<path id="Vector_89" d="M198.112 99.085H189.109V108.087H198.112V99.085Z" fill="#373A3B"/>
<path id="Vector_90" d="M207.116 99.085H198.113V108.087H207.116V99.085Z" fill="#373A3B"/>
<path id="Vector_91" d="M9.06104 108.087H0.0585938V117.09H9.06104V108.087Z" fill="#373A3B"/>
<path id="Vector_92" d="M18.063 108.087H9.06055V117.09H18.063V108.087Z" fill="#373A3B"/>
<path id="Vector_93" d="M54.0728 108.087H45.0703V117.09H54.0728V108.087Z" fill="#373A3B"/>
<path id="Vector_94" d="M63.0747 108.087H54.0723V117.09H63.0747V108.087Z" fill="#373A3B"/>
<path id="Vector_95" d="M72.0786 108.087H63.0762V117.09H72.0786V108.087Z" fill="#373A3B"/>
<path id="Vector_96" d="M108.086 108.087H99.084V117.09H108.086V108.087Z" fill="#373A3B"/>
<path id="Vector_97" d="M126.092 108.087H117.09V117.09H126.092V108.087Z" fill="#373A3B"/>
<path id="Vector_98" d="M135.094 108.087H126.092V117.09H135.094V108.087Z" fill="#373A3B"/>
<path id="Vector_99" d="M144.098 108.087H135.096V117.09H144.098V108.087Z" fill="#373A3B"/>
<path id="Vector_100" d="M171.106 108.087H162.104V117.09H171.106V108.087Z" fill="#373A3B"/>
<path id="Vector_101" d="M198.112 108.087H189.109V117.09H198.112V108.087Z" fill="#373A3B"/>
<path id="Vector_102" d="M207.116 108.087H198.113V117.09H207.116V108.087Z" fill="#373A3B"/>
<path id="Vector_103" d="M216.118 108.087H207.115V117.09H216.118V108.087Z" fill="#373A3B"/>
<path id="Vector_104" d="M225.12 108.087H216.117V117.09H225.12V108.087Z" fill="#373A3B"/>
<path id="Vector_105" d="M9.06104 117.09H0.0585938V126.092H9.06104V117.09Z" fill="#373A3B"/>
<path id="Vector_106" d="M45.0708 117.09H36.0684V126.092H45.0708V117.09Z" fill="#373A3B"/>
<path id="Vector_107" d="M54.0728 117.09H45.0703V126.092H54.0728V117.09Z" fill="#373A3B"/>
<path id="Vector_108" d="M72.0786 117.09H63.0762V126.092H72.0786V117.09Z" fill="#373A3B"/>
<path id="Vector_109" d="M117.09 117.09H108.088V126.092H117.09V117.09Z" fill="#373A3B"/>
<path id="Vector_110" d="M126.092 117.09H117.09V126.092H126.092V117.09Z" fill="#373A3B"/>
<path id="Vector_111" d="M135.094 117.09H126.092V126.092H135.094V117.09Z" fill="#373A3B"/>
<path id="Vector_112" d="M144.098 117.09H135.096V126.092H144.098V117.09Z" fill="#373A3B"/>
<path id="Vector_113" d="M180.108 117.09H171.105V126.092H180.108V117.09Z" fill="#373A3B"/>
<path id="Vector_114" d="M189.11 117.09H180.107V126.092H189.11V117.09Z" fill="#373A3B"/>
<path id="Vector_115" d="M207.116 117.09H198.113V126.092H207.116V117.09Z" fill="#373A3B"/>
<path id="Vector_116" d="M27.0649 126.092H18.0625V135.095H27.0649V126.092Z" fill="#373A3B"/>
<path id="Vector_117" d="M36.0688 126.092H27.0664V135.095H36.0688V126.092Z" fill="#373A3B"/>
<path id="Vector_118" d="M54.0728 126.092H45.0703V135.095H54.0728V126.092Z" fill="#373A3B"/>
<path id="Vector_119" d="M63.0747 126.092H54.0723V135.095H63.0747V126.092Z" fill="#373A3B"/>
<path id="Vector_120" d="M99.0845 126.092H90.082V135.095H99.0845V126.092Z" fill="#373A3B"/>
<path id="Vector_121" d="M108.086 126.092H99.084V135.095H108.086V126.092Z" fill="#373A3B"/>
<path id="Vector_122" d="M117.09 126.092H108.088V135.095H117.09V126.092Z" fill="#373A3B"/>
<path id="Vector_123" d="M135.094 126.092H126.092V135.095H135.094V126.092Z" fill="#373A3B"/>
<path id="Vector_124" d="M144.098 126.092H135.096V135.095H144.098V126.092Z" fill="#373A3B"/>
<path id="Vector_125" d="M162.104 126.092H153.102V135.095H162.104V126.092Z" fill="#373A3B"/>
<path id="Vector_126" d="M180.108 126.092H171.105V135.095H180.108V126.092Z" fill="#373A3B"/>
<path id="Vector_127" d="M198.112 126.092H189.109V135.095H198.112V126.092Z" fill="#373A3B"/>
<path id="Vector_128" d="M81.0806 135.095H72.0781V144.097H81.0806V135.095Z" fill="#373A3B"/>
<path id="Vector_129" d="M90.0825 135.095H81.0801V144.097H90.0825V135.095Z" fill="#373A3B"/>
<path id="Vector_130" d="M108.086 135.095H99.084V144.097H108.086V135.095Z" fill="#373A3B"/>
<path id="Vector_131" d="M126.092 135.095H117.09V144.097H126.092V135.095Z" fill="#373A3B"/>
<path id="Vector_132" d="M162.104 135.095H153.102V144.097H162.104V135.095Z" fill="#373A3B"/>
<path id="Vector_133" d="M189.11 135.095H180.107V144.097H189.11V135.095Z" fill="#373A3B"/>
<path id="Vector_134" d="M198.112 135.095H189.109V144.097H198.112V135.095Z" fill="#373A3B"/>
<path id="Vector_135" d="M207.116 135.095H198.113V144.097H207.116V135.095Z" fill="#373A3B"/>
<path id="Vector_136" d="M216.118 135.095H207.115V144.097H216.118V135.095Z" fill="#373A3B"/>
<path id="Vector_137" d="M9.06104 144.097H0.0585938V153.1H9.06104V144.097Z" fill="#373A3B"/>
<path id="Vector_138" d="M18.063 144.097H9.06055V153.1H18.063V144.097Z" fill="#373A3B"/>
<path id="Vector_139" d="M27.0649 144.097H18.0625V153.1H27.0649V144.097Z" fill="#373A3B"/>
<path id="Vector_140" d="M36.0688 144.097H27.0664V153.1H36.0688V144.097Z" fill="#373A3B"/>
<path id="Vector_141" d="M45.0708 144.097H36.0684V153.1H45.0708V144.097Z" fill="#373A3B"/>
<path id="Vector_142" d="M54.0728 144.097H45.0703V153.1H54.0728V144.097Z" fill="#373A3B"/>
<path id="Vector_143" d="M63.0747 144.097H54.0723V153.1H63.0747V144.097Z" fill="#373A3B"/>
<path id="Vector_144" d="M81.0806 144.097H72.0781V153.1H81.0806V144.097Z" fill="#373A3B"/>
<path id="Vector_145" d="M108.086 144.097H99.084V153.1H108.086V144.097Z" fill="#373A3B"/>
<path id="Vector_146" d="M117.09 144.097H108.088V153.1H117.09V144.097Z" fill="#373A3B"/>
<path id="Vector_147" d="M126.092 144.097H117.09V153.1H126.092V144.097Z" fill="#373A3B"/>
<path id="Vector_148" d="M153.1 144.097H144.098V153.1H153.1V144.097Z" fill="#373A3B"/>
<path id="Vector_149" d="M162.104 144.097H153.102V153.1H162.104V144.097Z" fill="#373A3B"/>
<path id="Vector_150" d="M171.106 144.097H162.104V153.1H171.106V144.097Z" fill="#373A3B"/>
<path id="Vector_151" d="M180.108 144.097H171.105V153.1H180.108V144.097Z" fill="#373A3B"/>
<path id="Vector_152" d="M189.11 144.097H180.107V153.1H189.11V144.097Z" fill="#373A3B"/>
<path id="Vector_153" d="M207.116 144.097H198.113V153.1H207.116V144.097Z" fill="#373A3B"/>
<path id="Vector_154" d="M216.118 144.097H207.115V153.1H216.118V144.097Z" fill="#373A3B"/>
<path id="Vector_155" d="M225.12 144.097H216.117V153.1H225.12V144.097Z" fill="#373A3B"/>
<path id="Vector_156" d="M81.0806 153.1H72.0781V162.102H81.0806V153.1Z" fill="#373A3B"/>
<path id="Vector_157" d="M117.09 153.1H108.088V162.102H117.09V153.1Z" fill="#373A3B"/>
<path id="Vector_158" d="M126.092 153.1H117.09V162.102H126.092V153.1Z" fill="#373A3B"/>
<path id="Vector_159" d="M135.094 153.1H126.092V162.102H135.094V153.1Z" fill="#373A3B"/>
<path id="Vector_160" d="M144.098 153.1H135.096V162.102H144.098V153.1Z" fill="#373A3B"/>
<path id="Vector_161" d="M153.1 153.1H144.098V162.102H153.1V153.1Z" fill="#373A3B"/>
<path id="Vector_162" d="M189.11 153.1H180.107V162.102H189.11V153.1Z" fill="#373A3B"/>
<path id="Vector_163" d="M207.116 153.1H198.113V162.102H207.116V153.1Z" fill="#373A3B"/>
<path id="Vector_164" d="M216.118 153.1H207.115V162.102H216.118V153.1Z" fill="#373A3B"/>
<path id="Vector_165" d="M90.0825 162.102H81.0801V171.104H90.0825V162.102Z" fill="#373A3B"/>
<path id="Vector_166" d="M99.0845 162.102H90.082V171.104H99.0845V162.102Z" fill="#373A3B"/>
<path id="Vector_167" d="M153.1 162.102H144.098V171.104H153.1V162.102Z" fill="#373A3B"/>
<path id="Vector_168" d="M171.106 162.102H162.104V171.104H171.106V162.102Z" fill="#373A3B"/>
<path id="Vector_169" d="M189.11 162.102H180.107V171.104H189.11V162.102Z" fill="#373A3B"/>
<path id="Vector_170" d="M90.0825 171.104H81.0801V180.107H90.0825V171.104Z" fill="#373A3B"/>
<path id="Vector_171" d="M108.086 171.104H99.084V180.107H108.086V171.104Z" fill="#373A3B"/>
<path id="Vector_172" d="M126.092 171.104H117.09V180.107H126.092V171.104Z" fill="#373A3B"/>
<path id="Vector_173" d="M135.094 171.104H126.092V180.107H135.094V171.104Z" fill="#373A3B"/>
<path id="Vector_174" d="M144.098 171.104H135.096V180.107H144.098V171.104Z" fill="#373A3B"/>
<path id="Vector_175" d="M153.1 171.104H144.098V180.107H153.1V171.104Z" fill="#373A3B"/>
<path id="Vector_176" d="M189.11 171.104H180.107V180.107H189.11V171.104Z" fill="#373A3B"/>
<path id="Vector_177" d="M198.112 171.104H189.109V180.107H198.112V171.104Z" fill="#373A3B"/>
<path id="Vector_178" d="M207.116 171.104H198.113V180.107H207.116V171.104Z" fill="#373A3B"/>
<path id="Vector_179" d="M216.118 171.104H207.115V180.107H216.118V171.104Z" fill="#373A3B"/>
<path id="Vector_180" d="M81.0806 180.107H72.0781V189.109H81.0806V180.107Z" fill="#373A3B"/>
<path id="Vector_181" d="M90.0825 180.107H81.0801V189.109H90.0825V180.107Z" fill="#373A3B"/>
<path id="Vector_182" d="M108.086 180.107H99.084V189.109H108.086V180.107Z" fill="#373A3B"/>
<path id="Vector_183" d="M126.092 180.107H117.09V189.109H126.092V180.107Z" fill="#373A3B"/>
<path id="Vector_184" d="M153.1 180.107H144.098V189.109H153.1V180.107Z" fill="#373A3B"/>
<path id="Vector_185" d="M162.104 180.107H153.102V189.109H162.104V180.107Z" fill="#373A3B"/>
<path id="Vector_186" d="M171.106 180.107H162.104V189.109H171.106V180.107Z" fill="#373A3B"/>
<path id="Vector_187" d="M180.108 180.107H171.105V189.109H180.108V180.107Z" fill="#373A3B"/>
<path id="Vector_188" d="M189.11 180.107H180.107V189.109H189.11V180.107Z" fill="#373A3B"/>
<path id="Vector_189" d="M198.112 180.107H189.109V189.109H198.112V180.107Z" fill="#373A3B"/>
<path id="Vector_190" d="M207.116 180.107H198.113V189.109H207.116V180.107Z" fill="#373A3B"/>
<path id="Vector_191" d="M216.118 180.107H207.115V189.109H216.118V180.107Z" fill="#373A3B"/>
<path id="Vector_192" d="M225.12 180.107H216.117V189.109H225.12V180.107Z" fill="#373A3B"/>
<path id="Vector_193" d="M99.0845 189.109H90.082V198.112H99.0845V189.109Z" fill="#373A3B"/>
<path id="Vector_194" d="M117.09 189.109H108.088V198.112H117.09V189.109Z" fill="#373A3B"/>
<path id="Vector_195" d="M126.092 189.109H117.09V198.112H126.092V189.109Z" fill="#373A3B"/>
<path id="Vector_196" d="M171.106 189.109H162.104V198.112H171.106V189.109Z" fill="#373A3B"/>
<path id="Vector_197" d="M198.112 189.109H189.109V198.112H198.112V189.109Z" fill="#373A3B"/>
<path id="Vector_198" d="M216.118 189.109H207.115V198.112H216.118V189.109Z" fill="#373A3B"/>
<path id="Vector_199" d="M225.12 189.109H216.117V198.112H225.12V189.109Z" fill="#373A3B"/>
<path id="Vector_200" d="M90.0825 198.112H81.0801V207.114H90.0825V198.112Z" fill="#373A3B"/>
<path id="Vector_201" d="M99.0845 198.112H90.082V207.114H99.0845V198.112Z" fill="#373A3B"/>
<path id="Vector_202" d="M144.098 198.112H135.096V207.114H144.098V198.112Z" fill="#373A3B"/>
<path id="Vector_203" d="M153.1 198.112H144.098V207.114H153.1V198.112Z" fill="#373A3B"/>
<path id="Vector_204" d="M171.106 198.112H162.104V207.114H171.106V198.112Z" fill="#373A3B"/>
<path id="Vector_205" d="M216.118 198.112H207.115V207.114H216.118V198.112Z" fill="#373A3B"/>
<path id="Vector_206" d="M81.0806 207.114H72.0781V216.117H81.0806V207.114Z" fill="#373A3B"/>
<path id="Vector_207" d="M108.086 207.114H99.084V216.117H108.086V207.114Z" fill="#373A3B"/>
<path id="Vector_208" d="M162.104 207.114H153.102V216.117H162.104V207.114Z" fill="#373A3B"/>
<path id="Vector_209" d="M171.106 207.114H162.104V216.117H171.106V207.114Z" fill="#373A3B"/>
<path id="Vector_210" d="M198.112 207.114H189.109V216.117H198.112V207.114Z" fill="#373A3B"/>
<path id="Vector_211" d="M207.116 207.114H198.113V216.117H207.116V207.114Z" fill="#373A3B"/>
<path id="Vector_212" d="M216.118 207.114H207.115V216.117H216.118V207.114Z" fill="#373A3B"/>
<path id="Vector_213" d="M99.0845 216.117H90.082V225.119H99.0845V216.117Z" fill="#373A3B"/>
<path id="Vector_214" d="M171.106 216.117H162.104V225.119H171.106V216.117Z" fill="#373A3B"/>
<path id="Vector_215" d="M180.108 216.117H171.105V225.119H180.108V216.117Z" fill="#373A3B"/>
<path id="Vector_216" d="M189.11 216.117H180.107V225.119H189.11V216.117Z" fill="#373A3B"/>
<path id="Vector_217" d="M207.116 216.117H198.113V225.119H207.116V216.117Z" fill="#373A3B"/>
<path id="Vector_218" d="M216.118 216.117H207.115V225.119H216.118V216.117Z" fill="#373A3B"/>
<path id="Vector_219" d="M225.12 216.117H216.117V225.119H225.12V216.117Z" fill="#373A3B"/>
</g>
</svg>
