<svg width="100" height="100" viewBox="0 0 100 100" fill="none" xmlns="http://www.w3.org/2000/svg">
<g id="briefing 1">
<g id="Icon">
<path id="Vector" fill-rule="evenodd" clip-rule="evenodd" d="M82.1163 20.2326V67.0642C82.1163 68.7907 81.4316 70.4465 80.2074 71.667L63.7833 88.0912C62.5628 89.3153 60.907 90 59.1805 90H27.2326C24.52 90 21.9153 88.9209 19.9953 87.0047C18.0791 85.0847 17 82.48 17 79.7674V20.2326C17 17.52 18.0791 14.9153 19.9953 12.9953C21.9153 11.0791 24.52 10 27.2326 10H71.8837C74.5963 10 77.2009 11.0791 79.1209 12.9953C81.0372 14.9153 82.1163 17.52 82.1163 20.2326ZM58.8605 83.4884L75.6047 66.7442H62.5814C60.5274 66.7442 58.8605 68.4112 58.8605 70.4651V83.4884ZM34.6744 30.4651H64.4419C65.9823 30.4651 67.2326 29.2149 67.2326 27.6744C67.2326 26.134 65.9823 24.8837 64.4419 24.8837H34.6744C33.134 24.8837 31.8837 26.134 31.8837 27.6744C31.8837 29.2149 33.134 30.4651 34.6744 30.4651ZM34.6744 75.1163H47.6977C49.2381 75.1163 50.4884 73.866 50.4884 72.3256C50.4884 70.7851 49.2381 69.5349 47.6977 69.5349H34.6744C33.134 69.5349 31.8837 70.7851 31.8837 72.3256C31.8837 73.866 33.134 75.1163 34.6744 75.1163ZM34.6744 60.2326H53.2791C54.8195 60.2326 56.0698 58.9823 56.0698 57.4419C56.0698 55.9014 54.8195 54.6512 53.2791 54.6512H34.6744C33.134 54.6512 31.8837 55.9014 31.8837 57.4419C31.8837 58.9823 33.134 60.2326 34.6744 60.2326ZM34.6744 45.3488H64.4419C65.9823 45.3488 67.2326 44.0986 67.2326 42.5581C67.2326 41.0177 65.9823 39.7674 64.4419 39.7674H34.6744C33.134 39.7674 31.8837 41.0177 31.8837 42.5581C31.8837 44.0986 33.134 45.3488 34.6744 45.3488Z" fill="white"/>
</g>
</g>
</svg>
