<svg width="101" height="100" viewBox="0 0 101 100" fill="none" xmlns="http://www.w3.org/2000/svg">
<g id="group 1">
<g id="Group 335401">
<g id="Group">
<g id="Group_2">
<path id="Vector" d="M78.7866 52.6382H72.5996C73.2302 54.3648 73.5748 56.2281 73.5748 58.1701V81.5532C73.5748 82.3629 73.4338 83.1401 73.1774 83.8629H83.4058C87.2267 83.8629 90.335 80.7544 90.335 76.9338V64.1866C90.3351 57.8189 85.1544 52.6382 78.7866 52.6382Z" fill="white"/>
</g>
</g>
<g id="Group_3">
<g id="Group_4">
<path id="Vector_2" d="M27.0943 58.1701C27.0943 56.2279 27.4389 54.3648 28.0695 52.6382H21.8826C15.5147 52.6382 10.334 57.8189 10.334 64.1867V76.9339C10.334 80.7546 13.4423 83.8631 17.2631 83.8631H27.4917C27.2353 83.1399 27.0943 82.3629 27.0943 81.5532V58.1701Z" fill="white"/>
</g>
</g>
<g id="Group_5">
<g id="Group_6">
<path id="Vector_3" d="M57.4057 46.6211H43.2615C36.8936 46.6211 31.7129 51.8018 31.7129 58.1697V81.5527C31.7129 82.8282 32.747 83.8625 34.0226 83.8625H66.6445C67.9202 83.8625 68.9542 82.8284 68.9542 81.5527V58.1697C68.9542 51.8018 63.7736 46.6211 57.4057 46.6211Z" fill="white"/>
</g>
</g>
<g id="Group_7">
<g id="Group_8">
<path id="Vector_4" d="M50.3339 16C42.6757 16 36.4453 22.2304 36.4453 29.8887C36.4453 35.0833 39.3124 39.6201 43.5465 42.002C45.5548 43.1317 47.8701 43.7773 50.3339 43.7773C52.7977 43.7773 55.113 43.1317 57.1213 42.002C61.3556 39.6201 64.2225 35.0832 64.2225 29.8887C64.2225 22.2305 57.9921 16 50.3339 16Z" fill="white"/>
</g>
</g>
<g id="Group_9">
<g id="Group_10">
<path id="Vector_5" d="M25.9474 28.9458C20.22 28.9458 15.5605 33.6052 15.5605 39.3326C15.5605 45.06 20.22 49.7195 25.9474 49.7195C27.4002 49.7195 28.7837 49.4185 30.0404 48.8776C32.2132 47.9421 34.0048 46.2862 35.1134 44.2119C35.8916 42.7561 36.3342 41.0953 36.3342 39.3326C36.3342 33.6054 31.6748 28.9458 25.9474 28.9458Z" fill="white"/>
</g>
</g>
<g id="Group_11">
<g id="Group_12">
<path id="Vector_6" d="M74.7228 28.9453C68.9954 28.9453 64.3359 33.6047 64.3359 39.3321C64.3359 41.095 64.7786 42.7558 65.5567 44.2114C66.6653 46.2858 68.4569 47.9418 70.6298 48.8771C71.8865 49.418 73.2699 49.719 74.7228 49.719C80.4502 49.719 85.1096 45.0596 85.1096 39.3321C85.1096 33.6047 80.4502 28.9453 74.7228 28.9453Z" fill="white"/>
</g>
</g>
</g>
</g>
</svg>
