<svg width="101" height="100" viewBox="0 0 101 100" fill="none" xmlns="http://www.w3.org/2000/svg">
<g id="high 1">
<g id="Group 335400">
<path id="Vector" d="M32.9318 91.7245H17.4211C15.9941 91.7245 14.8359 90.5663 14.8359 89.1393V73.6286C14.8359 72.2016 15.9941 71.0435 17.4211 71.0435H32.9318C34.3588 71.0435 35.517 72.2016 35.517 73.6286V89.1393C35.517 90.5663 34.3588 91.7245 32.9318 91.7245Z" fill="white"/>
<path id="Vector_2" d="M60.506 91.7243H44.9953C43.5683 91.7243 42.4102 90.5661 42.4102 89.1392V56.3942C42.4102 54.9672 43.5683 53.8091 44.9953 53.8091H60.506C61.933 53.8091 63.0912 54.9672 63.0912 56.3942V89.1392C63.0912 90.5661 61.933 91.7243 60.506 91.7243Z" fill="white"/>
<path id="Vector_3" d="M88.0803 91.7246H72.5695C71.1425 91.7246 69.9844 90.5664 69.9844 89.1395V39.1603C69.9844 37.7333 71.1425 36.5752 72.5695 36.5752H88.0803C89.5073 36.5752 90.6654 37.7333 90.6654 39.1603V89.1395C90.6654 90.5664 89.5073 91.7246 88.0803 91.7246Z" fill="white"/>
<path id="Vector_4" d="M62.0611 11.2249C61.8349 10.9371 61.4726 10.7431 61.1439 10.7127C53.6022 9.9119 44.2749 13.2046 37.9031 18.8865C31.8451 18.3471 26.5874 19.5352 23.0566 22.2803C22.6733 22.5783 22.4806 23.0597 22.5531 23.5391C22.6255 24.0185 22.9508 24.4215 23.4076 24.5949L28.904 26.6616L28.8647 26.6945C28.3253 27.1595 28.2456 27.9686 28.6834 28.5316L37.0583 39.3034C37.2839 39.5966 37.6085 39.767 37.9519 39.81C38.2712 39.8499 38.602 39.7778 38.8834 39.5806L38.925 39.5506L39.5731 45.3869C39.6262 45.8693 39.9362 46.2865 40.3857 46.4753C40.5011 46.5249 40.6189 46.5558 40.7413 46.5711C41.0899 46.6148 41.4449 46.5214 41.7321 46.3005C45.2658 43.5531 47.7106 38.7501 48.6812 32.7461C55.7688 27.954 61.2497 19.7357 62.3317 12.2373C62.3793 11.8784 62.2846 11.5124 62.0611 11.2249Z" fill="white"/>
</g>
<path id="Vector_5" d="M19.5446 34.9646C17.3766 37.1329 14.6011 46.1386 14.068 47.9223C13.8968 48.491 14.0551 49.1082 14.4719 49.5282C14.7821 49.8352 15.1924 50 15.6157 50C15.7708 50 15.9259 49.9774 16.0809 49.9321C17.8644 49.399 26.866 46.6265 29.0372 44.455C31.6543 41.8377 31.6543 37.582 29.0372 34.9614C26.4136 32.344 22.1552 32.3473 19.5446 34.9646Z" fill="white"/>
</g>
</svg>
