<svg width="101" height="100" viewBox="0 0 101 100" fill="none" xmlns="http://www.w3.org/2000/svg">
<path d="M64.4994 89.9907H36.1694C34.9363 89.9907 33.8864 89.0908 33.6997 87.8709L30.3668 66.2068C30.2568 65.4869 30.4635 64.7503 30.9401 64.197C31.4167 63.6438 32.1066 63.3271 32.8365 63.3271H67.8324C68.5623 63.3271 69.2556 63.6471 69.7288 64.2004C70.2021 64.7536 70.4121 65.4869 70.3021 66.2101L66.9692 87.8743C66.7825 89.0908 65.7326 89.9907 64.4994 89.9907Z" fill="white"/>
<path d="M50.3337 36.6635C57.6967 36.6635 63.6655 30.6947 63.6655 23.3318C63.6655 15.9688 57.6967 10 50.3337 10C42.9708 10 37.002 15.9688 37.002 23.3318C37.002 30.6947 42.9708 36.6635 50.3337 36.6635Z" fill="white"/>
<path d="M87.7191 53.3282C87.1891 45.939 83.2163 39.0998 76.9937 34.9636C76.977 32.2173 74.7473 29.9976 71.9976 29.9976C69.2379 29.9976 66.9982 32.2373 66.9982 34.997C66.9982 37.7566 69.2379 39.9964 71.9976 39.9964C72.9108 39.9964 73.754 39.7331 74.4906 39.3065C79.1801 42.5361 82.2097 47.7121 82.7197 53.3282H76.797C75.5972 45.7957 69.0646 39.9964 61.1655 39.9964H39.5014C31.6023 39.9964 25.0698 45.7957 23.8699 53.3282H12.8379C11.0681 53.3282 9.92487 55.1213 10.4715 56.6944L17.1374 75.0256C17.504 75.9922 18.4372 76.6587 19.5037 76.6587H25.2364L23.7699 67.2265C23.37 64.5602 24.1365 61.8938 25.8697 59.8607C27.3562 58.0776 29.9858 56.6611 32.8355 56.6611H67.8314C70.3478 56.6611 72.8875 57.6976 74.7972 59.8607C76.5304 61.8938 77.297 64.5602 76.897 67.2265L75.4305 76.6587H81.1632C82.2297 76.6587 83.1629 75.9922 83.5296 75.0256L90.1954 56.6944C90.722 55.1779 89.7155 53.3282 87.7191 53.3282Z" fill="white"/>
</svg>
