<svg width="101" height="100" viewBox="0 0 101 100" fill="none" xmlns="http://www.w3.org/2000/svg">
<path d="M60.6673 32C58.8273 32 57.334 30.5067 57.334 28.6667V23.6667H44.0007V28.6667C44.0007 30.5067 42.5073 32 40.6673 32C38.8273 32 37.334 30.5067 37.334 28.6667V23.6667C37.334 19.99 40.324 17 44.0007 17H57.334C61.0107 17 64.0007 19.99 64.0007 23.6667V28.6667C64.0007 30.5067 62.5073 32 60.6673 32Z" fill="white"/>
<path d="M53.0327 61.5997C52.4327 61.8331 51.566 61.9997 50.666 61.9997C49.766 61.9997 48.8993 61.8331 48.0993 61.5331L10.666 49.0664V74.4997C10.666 79.5664 14.766 83.6664 19.8327 83.6664H81.4993C86.566 83.6664 90.666 79.5664 90.666 74.4997V49.0664L53.0327 61.5997Z" fill="white"/>
<path d="M90.666 36.1667V43.8L51.466 56.8667C51.1993 56.9667 50.9327 57 50.666 57C50.3993 57 50.1327 56.9667 49.866 56.8667L10.666 43.8V36.1667C10.666 31.1 14.766 27 19.8327 27H81.4993C86.566 27 90.666 31.1 90.666 36.1667Z" fill="white"/>
</svg>
