<svg width="100" height="100" viewBox="0 0 100 100" fill="none" xmlns="http://www.w3.org/2000/svg">
<path d="M78.1249 66.4061C75.7405 66.4061 73.5255 67.1302 71.6727 68.3585L66.4072 63.093C69.2943 59.4841 71.0936 54.9707 71.0936 49.9999C71.0936 47.7718 70.6522 45.6646 70.0089 43.647L74.7814 40.9954C76.3641 42.2143 78.321 42.9687 80.4686 42.9687C85.6391 42.9687 89.9998 38.7642 89.9998 33.5937C89.9998 28.4232 85.6391 24.2187 80.4686 24.2187C75.2982 24.2187 71.0936 28.4232 71.0936 33.5937C71.0936 34.8967 71.3632 36.1368 71.8455 37.2656L68.1013 39.3459C64.8091 33.7753 59.071 29.9 52.3437 29.1432V23.6308C55.0659 22.66 57.0312 20.0828 57.0312 17.0312C57.0312 13.1541 53.8771 10 49.9999 10C46.1227 10 42.9687 13.1541 42.9687 17.0312C42.9687 20.0828 44.934 22.66 47.6562 23.6308V29.1431C43.0434 29.6621 38.8834 31.6136 35.6582 34.6231L27.8865 28.0959C28.4289 26.9109 28.75 25.6051 28.75 24.2187C28.75 19.0483 24.5454 14.8437 19.375 14.8437C14.2045 14.8437 10 19.0483 10 24.2187C10 29.3892 14.2045 33.5937 19.375 33.5937C21.4606 33.5937 23.3701 32.8865 24.9287 31.7306L32.5696 38.1459C30.2628 41.5273 28.9062 45.6062 28.9062 49.9999C28.9062 54.1959 30.1707 58.0877 32.291 61.3765L29.6901 63.514C28.1467 62.3965 26.2662 61.7187 24.2187 61.7187C19.0483 61.7187 14.8437 65.9232 14.8437 71.0936C14.8437 76.2641 19.0483 80.4686 24.2187 80.4686C29.3892 80.4686 33.5937 76.2641 33.5937 71.0936C33.5937 69.6694 33.2501 68.333 32.6796 67.1232L35.2326 65.0255C38.5096 68.2468 42.8509 70.3164 47.6563 70.8569V76.213C44.9342 77.1838 42.9688 79.761 42.9688 82.8125C42.9688 86.6897 46.1229 90 50.0001 90C53.8773 90 57.0313 86.6897 57.0313 82.8125C57.0313 79.761 55.066 77.1838 52.3438 76.213V70.8569C56.3919 70.4014 60.0671 68.8282 63.0932 66.4074L68.3586 71.6729C67.1304 73.5255 66.4061 75.7405 66.4061 78.1249C66.4061 84.5863 71.6635 89.9998 78.1249 89.9998C84.5863 89.9998 89.9998 84.5863 89.9998 78.1249C89.9998 71.6635 84.5864 66.4061 78.1249 66.4061Z" fill="white"/>
</svg>
